<svg id="armado" xmlns="http://www.w3.org/2000/svg" width="49.872" height="49.551" viewBox="0 0 49.872 49.551">
  <path id="Path_325" data-name="Path 325" d="M-5330.492,5363.776l-.214-.188a11.211,11.211,0,0,0-2.868-10.946,11.2,11.2,0,0,0-10.854-2.884l6.345,6.345-1.665,6.217-6.217,1.663-6.349-6.341a11.2,11.2,0,0,0,2.9,10.854,11.218,11.218,0,0,0,11.414,2.727l.036.035,26.109,26.108a5.278,5.278,0,0,0,3.738,1.553,5.3,5.3,0,0,0,3.742-1.553,5.288,5.288,0,0,0,0-7.481Zm22.825,32.7a2.02,2.02,0,0,1-2.016-2.02,2.018,2.018,0,0,1,2.016-2.02,2.017,2.017,0,0,1,2.022,2.02A2.017,2.017,0,0,1-5307.667,5396.477Z" transform="translate(5352.702 -5349.366)" fill="#29abe2"/>
</svg>
