<svg xmlns="http://www.w3.org/2000/svg" xmlns:xlink="http://www.w3.org/1999/xlink" width="127" height="127" viewBox="0 0 127 127">
  <defs>
    <filter id="Ellipse_2" x="0" y="0" width="127" height="127" filterUnits="userSpaceOnUse">
      <feOffset dy="10" input="SourceAlpha"/>
      <feGaussianBlur stdDeviation="12.5" result="blur"/>
      <feFlood flood-opacity="0.161"/>
      <feComposite operator="in" in2="blur"/>
      <feComposite in="SourceGraphic"/>
    </filter>
  </defs>
  <g id="Group_247" data-name="Group 247" transform="translate(-1069.5 -12.5)">
    <g transform="matrix(1, 0, 0, 1, 1069.5, 12.5)" filter="url(#Ellipse_2)">
      <circle id="Ellipse_2-2" data-name="Ellipse 2" cx="26" cy="26" r="26" transform="translate(37.5 27.5)" fill="#29abe2"/>
    </g>
    <path id="phone-solid" d="M19.263.951,15.2.013a.944.944,0,0,0-1.074.543L12.251,4.931a.935.935,0,0,0,.27,1.094l2.367,1.937a14.477,14.477,0,0,1-6.922,6.922L6.029,12.517a.936.936,0,0,0-1.094-.27L.56,14.122A.949.949,0,0,0,.013,15.2l.937,4.062a.937.937,0,0,0,.914.727A18.123,18.123,0,0,0,19.99,1.865.936.936,0,0,0,19.263.951Z" transform="translate(1123.01 56.011)" fill="#fff"/>
  </g>
</svg>
