<svg xmlns="http://www.w3.org/2000/svg" width="180.516" height="52.398" viewBox="0 0 180.516 52.398">
  <g id="corfo" transform="translate(0)">
    <g id="Group_227" data-name="Group 227">
      <path id="Path_439" data-name="Path 439" d="M3143.629,95.559a1.194,1.194,0,0,1,1.6.379,33.582,33.582,0,0,1,6.469,25.667,29.038,29.038,0,0,1-27.95,25.289c-.534,0-1.125-.687-.685-1.162a18.1,18.1,0,0,0,2.75-4.1,25.814,25.814,0,0,0,3.019-12.185,23.439,23.439,0,0,0-5.449-14.331c-.34-.4-.753-.889-.519-1.45.223-.6,1.118-.528,1.454-.065a16.545,16.545,0,0,0,8.969,5.438,9.377,9.377,0,0,0,7.891-1.927,12.343,12.343,0,0,0,3.912-8.09,30.154,30.154,0,0,0-1.562-12.492C3143.44,96.231,3143.3,95.754,3143.629,95.559Z" transform="translate(-2971.589 -95.39)" fill="gray"/>
      <path id="Path_440" data-name="Path 440" d="M2213.03,128.532q29.605,0,59.207,0,0,3.4,0,6.8h-59.2Q2213.029,131.931,2213.03,128.532Z" transform="translate(-2212.256 -123.052)" fill="gray"/>
      <path id="Path_441" data-name="Path 441" d="M3168.667,151.029a6.113,6.113,0,1,1-4.633,6.773A6.15,6.15,0,0,1,3168.667,151.029Z" transform="translate(-3005.952 -141.688)" fill="gray"/>
      <path id="Path_442" data-name="Path 442" d="M2218.988,201.34a21.109,21.109,0,0,1,17.108,1.083c-.01,2.535.01,5.07-.01,7.605-.42-.078-.935-.023-1.213-.414a10.455,10.455,0,0,0-8.278-3.641,11.466,11.466,0,0,0-7.546,2.871,10.814,10.814,0,0,0-3.538,6.985,12.975,12.975,0,0,0,1.768,8.763,10.445,10.445,0,0,0,7,4.288,12.491,12.491,0,0,0,11.311-3.857l.593-.034c.006,2.5,0,5,0,7.5a18.666,18.666,0,0,1-9.211,2.594,18.087,18.087,0,0,1-10.676-2.68,17.18,17.18,0,0,1-7.4-10.079,19.285,19.285,0,0,1,1.118-12.4A17.142,17.142,0,0,1,2218.988,201.34Z" transform="translate(-2208.348 -182.716)" fill="gray"/>
      <g id="Group_224" data-name="Group 224" transform="translate(30.122 17.307)">
        <path id="Path_443" data-name="Path 443" d="M2406,200.156a20.605,20.605,0,0,1,13.384,3.166,16.247,16.247,0,0,1,7.256,10.026,18.593,18.593,0,0,1-1.944,12.633,18.367,18.367,0,0,1-8.591,7.882,17.51,17.51,0,0,1-6.18,1.284,20.734,20.734,0,0,1-11.546-3.176,16.612,16.612,0,0,1-7.3-9.347,18.545,18.545,0,0,1,.7-11.2,18.921,18.921,0,0,1,7.649-9.093A15.989,15.989,0,0,1,2406,200.156Zm.384,6.277a11.639,11.639,0,0,0-9.119,9.785,11.2,11.2,0,0,0,1.964,8.225,12.122,12.122,0,0,0,6.245,4.486,11.488,11.488,0,0,0,14.491-7.964,12.447,12.447,0,0,0-.05-6.56,11.707,11.707,0,0,0-5.215-6.565A11.95,11.95,0,0,0,2406.379,206.434Z" transform="translate(-2390.516 -200.056)" fill="gray"/>
      </g>
      <g id="Group_225" data-name="Group 225" transform="translate(115.974 17.304)">
        <path id="Path_444" data-name="Path 444" d="M2927.046,200.038a20.5,20.5,0,0,1,10.588,2.678,17.414,17.414,0,0,1,7.469,8.217,17.1,17.1,0,0,1,.881,8.9,18.018,18.018,0,0,1-3.811,8.673,17.043,17.043,0,0,1-8.471,5.917,19.791,19.791,0,0,1-9.724.185,19.587,19.587,0,0,1-10.687-6.369,14.691,14.691,0,0,1-3.466-8.007,18.893,18.893,0,0,1,1.66-10,19.422,19.422,0,0,1,5.885-7.09A16.3,16.3,0,0,1,2927.046,200.038Zm-1.461,6.38a11.635,11.635,0,0,0-7.62,17.325,12.187,12.187,0,0,0,6.693,5.169,11.761,11.761,0,0,0,9.335-1.12,11.741,11.741,0,0,0,5.293-12.747,11.616,11.616,0,0,0-5.284-7.159A11.957,11.957,0,0,0,2925.585,206.418Z" transform="translate(-2909.726 -200.037)" fill="gray"/>
      </g>
      <g id="Group_226" data-name="Group 226" transform="translate(69.824 18.095)">
        <path id="Path_445" data-name="Path 445" d="M2630.624,204.822c3.216,0,6.432-.006,9.65,0a18.648,18.648,0,0,1,5.074.631,6.256,6.256,0,0,1,3.511,3.107,12.387,12.387,0,0,1,1.11,7.845,9.213,9.213,0,0,1-2.821,5.341,6.32,6.32,0,0,1-2.869,1.263c2.432.935,3.887,3.275,5.076,5.463,1.6,3.086,3.117,6.216,4.637,9.345q-3.147.006-6.295,0c-1.179-2.281-2.378-4.551-3.561-6.831a21.236,21.236,0,0,0-3.308-5.234,5.577,5.577,0,0,0-3.329-1.661c-.534-.057-1.07-.065-1.6-.08-.027,4.6,0,9.188-.011,13.781-1.751.017-3.5-.059-5.253.044Q2630.6,221.329,2630.624,204.822Zm5.259,5.591c.006,2.817-.006,5.637.008,8.454,1.083.036,2.167-.019,3.25-.05.421-.034.881.113,1.276-.086A3.406,3.406,0,0,0,2643,217.22a5.738,5.738,0,0,0,.482-4.227,3.2,3.2,0,0,0-2.794-2.491A39.164,39.164,0,0,0,2635.883,210.412Z" transform="translate(-2630.622 -204.82)" fill="gray"/>
      </g>
      <path id="Path_446" data-name="Path 446" d="M2784.611,204.264c6.312.067,12.629-.072,18.941.059,0,1.921-.008,3.842,0,5.764-1.934-.135-3.874-.032-5.81-.065-2.129.036-4.263-.076-6.39.067.006,2.592,0,5.184,0,7.777h12.192c0,1.85,0,3.7,0,5.551q-6.1,0-12.19,0c-.013,4.847.017,9.694-.015,14.539a25.758,25.758,0,0,0-3.325-.078,27.1,27.1,0,0,0-3.411.076c-.1-3.531-.019-7.063-.048-10.594q0-10.1,0-20.2C2784.563,206.193,2784.535,205.227,2784.611,204.264Z" transform="translate(-2689.277 -186.261)" fill="gray"/>
    </g>
    <g id="Group_228" data-name="Group 228" transform="translate(61.231 5.48)">
      <path id="Path_447" data-name="Path 447" d="M2578.657,128.532l87.6,0v6.794h-87.605Q2578.658,131.931,2578.657,128.532Z" transform="translate(-2578.655 -128.532)" fill="gray"/>
    </g>
    <g id="Group_229" data-name="Group 229" transform="translate(95.142 51.6)">
      <path id="Path_448" data-name="Path 448" d="M2783.926,407.544a27.1,27.1,0,0,1,3.41-.076,25.756,25.756,0,0,1,3.325.078l.168.021c-1.349.158-2.708.044-4.063.076a24.706,24.706,0,0,1-3.029-.076Z" transform="translate(-2783.737 -407.452)" fill="gray"/>
    </g>
  </g>
</svg>
