<svg xmlns="http://www.w3.org/2000/svg" width="50.663" height="49.665" viewBox="0 0 50.663 49.665">
  <g id="costura" transform="translate(0 0)">
    <path id="Path_297" data-name="Path 297" d="M-6933.8,5456.6h1.81v10.643h-1.81Z" transform="translate(6941.94 -5429.991)" fill="#29abe2"/>
    <path id="Path_298" data-name="Path 298" d="M-6793.786,5376.171a3.584,3.584,0,0,1-3.619,3.547,3.583,3.583,0,0,1-3.619-3.547,3.584,3.584,0,0,1,3.619-3.548A3.584,3.584,0,0,1-6793.786,5376.171Z" transform="translate(6837.212 -5363.754)" fill="#29abe2"/>
    <path id="Path_299" data-name="Path 299" d="M-6739.252,5373.51a.9.9,0,0,0-.9-.887h-.905v7.095h.905a.9.9,0,0,0,.9-.887Z" transform="translate(6789.916 -5363.754)" fill="#29abe2"/>
    <path id="Path_300" data-name="Path 300" d="M-6971.44,5380.3h45.234a.9.9,0,0,0,.905-.887v-42.57a.9.9,0,0,0-.905-.887h-25.568a.9.9,0,0,1-.876-.665,6.3,6.3,0,0,0-6.125-4.656h-7.237a6.278,6.278,0,0,0-6.333,6.208v17.738a.9.9,0,0,0,.905.887h18.094a.9.9,0,0,0,.9-.887v-3.548a.892.892,0,0,1,.685-.86l3.652-.9a15.758,15.758,0,0,1,7.5,0l3.653.9a.945.945,0,0,1,.8.869v21.285a.9.9,0,0,1-.905.887h-34.378a.9.9,0,0,0-.905.887v5.321A.9.9,0,0,0-6971.44,5380.3Zm1.81-32.814a.9.9,0,0,1-.905.887.9.9,0,0,1-.9-.887v-1.774a.9.9,0,0,1,.9-.887.9.9,0,0,1,.905.887Zm0-4.435a.9.9,0,0,1-.905.887.9.9,0,0,1-.9-.887v-5.321a.9.9,0,0,1,.9-.887.9.9,0,0,1,.905.887Zm31.664,0a5.376,5.376,0,0,1,5.428-5.321,5.376,5.376,0,0,1,5.429,5.321,5.376,5.376,0,0,1-5.429,5.321A5.381,5.381,0,0,1-6937.967,5343.053Z" transform="translate(6972.346 -5330.637)" fill="#29abe2"/>
  </g>
</svg>
