<svg xmlns="http://www.w3.org/2000/svg" width="260.001" height="44.459" viewBox="0 0 260.001 44.459">
  <g id="Group_198" data-name="Group 198" transform="translate(7350.652 1872.434)">
    <g id="Group_194" data-name="Group 194" transform="translate(-7300.9 -1867.998)">
      <g id="Group_193" data-name="Group 193" transform="translate(0)">
        <g id="Group_190" data-name="Group 190">
          <g id="Group_188" data-name="Group 188" transform="translate(86.021)">
            <path id="Path_326" data-name="Path 326" d="M-5512.031-1809.332h-9.243v-3.336h22.493v3.336h-9.282v27.043h-3.968v-27.043Z" transform="translate(5521.273 1812.668)" fill="#fff"/>
            <path id="Path_327" data-name="Path 327" d="M-5156.878-1796.533h-11.81v10.957h13.161v3.287h-17.084v-30.379h16.409v3.292h-12.485v9.6h11.81v3.243Z" transform="translate(5198.488 1812.668)" fill="#fff"/>
            <path id="Path_328" data-name="Path 328" d="M-4885.858-1782.289l-3.879-6.716c-1.577-2.571-2.567-4.237-3.517-6h-.088c-.857,1.758-1.714,3.38-3.292,6.039l-3.649,6.671h-4.506l9.287-15.371-8.929-15.008h4.55l4.012,7.122c1.126,1.984,1.983,3.517,2.8,5.138h.137c.857-1.8,1.622-3.2,2.748-5.138l4.149-7.122h4.506l-9.243,14.787,9.463,15.6h-4.546Z" transform="translate(4950.544 1812.668)" fill="#fff"/>
            <path id="Path_329" data-name="Path 329" d="M-4559.687-1809.332h-9.238v-3.336h22.493v3.336h-9.287v27.043h-3.968v-27.043Z" transform="translate(4639.607 1812.668)" fill="#fff"/>
            <path id="Path_330" data-name="Path 330" d="M-4216.4-1812.668v30.379h-3.923v-30.379Z" transform="translate(4316.877 1812.668)" fill="#fff"/>
            <path id="Path_331" data-name="Path 331" d="M-4075.192-1812.668h3.923v27.092h12.98v3.287h-16.9v-30.379Z" transform="translate(4182.517 1812.668)" fill="#fff"/>
          </g>
          <g id="Group_189" data-name="Group 189">
            <path id="Path_332" data-name="Path 332" d="M-6680.3-1812.668h16.364v3.292h-12.441v10.1h11.5v3.243h-11.5v13.749h-3.923Z" transform="translate(6680.304 1812.668)" fill="#fff"/>
            <path id="Path_333" data-name="Path 333" d="M-6381.192-1812.668v17.986c0,6.808,3.018,9.689,7.078,9.689,4.506,0,7.392-2.974,7.392-9.689v-17.986h3.967v17.717c0,9.331-4.913,13.161-11.5,13.161-6.22,0-10.908-3.561-10.908-12.98v-17.9Z" transform="translate(6407.064 1812.668)" fill="#fff"/>
            <path id="Path_334" data-name="Path 334" d="M-5991.612-1812.668h3.923v27.092h12.98v3.287h-16.9Z" transform="translate(6042.725 1812.668)" fill="#fff"/>
            <path id="Path_335" data-name="Path 335" d="M-5704.92-1812.668H-5701v27.092h12.98v3.287h-16.9v-30.379Z" transform="translate(5777.311 1812.668)" fill="#fff"/>
          </g>
        </g>
        <g id="Group_192" data-name="Group 192" transform="translate(0.376 34.324)">
          <g id="Group_191" data-name="Group 191">
            <path id="Path_336" data-name="Path 336" d="M-6675.041-1345.446a3.045,3.045,0,0,0,1.414.358c.808,0,1.276-.384,1.276-.941,0-.512-.327-.808-1.153-1.1-1-.318-1.613-.786-1.613-1.564,0-.857.791-1.5,1.975-1.5a3.061,3.061,0,0,1,1.352.27l-.216.579a2.669,2.669,0,0,0-1.162-.261c-.835,0-1.153.451-1.153.826,0,.512.371.769,1.215,1.065,1.034.358,1.56.808,1.56,1.621,0,.853-.7,1.586-2.139,1.586a3.408,3.408,0,0,1-1.56-.353Z" transform="translate(6675.244 1350.187)" fill="#fff"/>
            <path id="Path_337" data-name="Path 337" d="M-6549.41-1347.394a2.7,2.7,0,0,1-2.837,2.9,2.643,2.643,0,0,1-2.748-2.8,2.742,2.742,0,0,1,2.836-2.9A2.63,2.63,0,0,1-6549.41-1347.394Zm-4.741.093a2.032,2.032,0,0,0,1.949,2.231,2.045,2.045,0,0,0,1.957-2.293,2.039,2.039,0,0,0-1.948-2.24A2.043,2.043,0,0,0-6554.151-1347.3Z" transform="translate(6563.919 1350.186)" fill="#fff"/>
            <path id="Path_338" data-name="Path 338" d="M-6405.22-1348.936h.791v4.917h2.607v.6h-3.4Z" transform="translate(6425.261 1349.029)" fill="#fff"/>
            <path id="Path_339" data-name="Path 339" d="M-6290.6-1348.936v3.265c0,1.237.605,1.758,1.422,1.758.906,0,1.489-.539,1.489-1.758v-3.265h.795v3.216a2.126,2.126,0,0,1-2.311,2.39c-1.25,0-2.191-.645-2.191-2.355v-3.252Z" transform="translate(6319.887 1349.029)" fill="#fff"/>
            <path id="Path_340" data-name="Path 340" d="M-6151.818-1344.7a4.35,4.35,0,0,1-1.612.261,2.721,2.721,0,0,1-3.018-2.788,2.9,2.9,0,0,1,3.19-2.9,3.5,3.5,0,0,1,1.449.247l-.19.579a3.108,3.108,0,0,0-1.232-.23,2.161,2.161,0,0,0-2.386,2.275,2.109,2.109,0,0,0,2.346,2.218,3.512,3.512,0,0,0,1.291-.23Z" transform="translate(6194.952 1350.131)" fill="#fff"/>
            <path id="Path_341" data-name="Path 341" d="M-6019.276-1348.936v5.514h-.791v-5.514Z" transform="translate(6068.693 1349.029)" fill="#fff"/>
            <path id="Path_342" data-name="Path 342" d="M-5929.42-1347.394a2.7,2.7,0,0,1-2.836,2.9,2.64,2.64,0,0,1-2.744-2.8,2.742,2.742,0,0,1,2.836-2.9A2.629,2.629,0,0,1-5929.42-1347.394Zm-4.74.093a2.032,2.032,0,0,0,1.948,2.231,2.045,2.045,0,0,0,1.957-2.293,2.036,2.036,0,0,0-1.948-2.24A2.045,2.045,0,0,0-5934.16-1347.3Z" transform="translate(5989.939 1350.186)" fill="#fff"/>
            <path id="Path_343" data-name="Path 343" d="M-5785.284-1343.422v-5.514h.862l1.957,2.792a14.8,14.8,0,0,1,1.1,1.789l.017-.009a21.617,21.617,0,0,1-.088-2.266v-2.306h.742v5.514h-.8l-1.939-2.8a17.165,17.165,0,0,1-1.145-1.842l-.026.009c.044.694.062,1.356.062,2.275v2.355Z" transform="translate(5851.335 1349.029)" fill="#fff"/>
            <path id="Path_344" data-name="Path 344" d="M-5641.092-1346.007h-2.377v1.988h2.646v.6h-3.437v-5.514h3.3v.6h-2.509v1.745h2.377v.588Z" transform="translate(5720.777 1349.029)" fill="#fff"/>
            <path id="Path_345" data-name="Path 345" d="M-5527.439-1345.446a3.046,3.046,0,0,0,1.414.358c.809,0,1.276-.384,1.276-.941,0-.512-.327-.808-1.153-1.1-.994-.318-1.613-.786-1.613-1.564,0-.857.787-1.5,1.975-1.5a3.06,3.06,0,0,1,1.352.27l-.216.579a2.648,2.648,0,0,0-1.162-.261c-.835,0-1.153.451-1.153.826,0,.512.371.769,1.215,1.065,1.034.358,1.56.808,1.56,1.621,0,.853-.7,1.586-2.139,1.586a3.39,3.39,0,0,1-1.559-.353Z" transform="translate(5612.814 1350.187)" fill="#fff"/>
            <path id="Path_346" data-name="Path 346" d="M-5315.9-1349.366a10.068,10.068,0,0,1,1.516-.106,2.688,2.688,0,0,1,1.714.459,1.416,1.416,0,0,1,.535,1.153,1.538,1.538,0,0,1-.473,1.18,2.694,2.694,0,0,1-1.869.605,3.107,3.107,0,0,1-.636-.049v2.209h-.787Zm.787,2.66a2.985,2.985,0,0,0,.654.057c.955,0,1.533-.42,1.533-1.18,0-.729-.57-1.078-1.44-1.078a3.786,3.786,0,0,0-.742.057v2.143Z" transform="translate(5416.784 1349.525)" fill="#fff"/>
            <path id="Path_347" data-name="Path 347" d="M-5189.551-1348.936v3.265c0,1.237.609,1.758,1.422,1.758.906,0,1.484-.539,1.484-1.758v-3.265h.8v3.216a2.125,2.125,0,0,1-2.311,2.39c-1.25,0-2.191-.645-2.191-2.355v-3.252Z" transform="translate(5300.556 1349.029)" fill="#fff"/>
            <path id="Path_348" data-name="Path 348" d="M-5050.517-1349.357a8.348,8.348,0,0,1,1.44-.115,2.739,2.739,0,0,1,1.679.4,1.116,1.116,0,0,1,.508.972,1.341,1.341,0,0,1-1.034,1.211v.018a1.476,1.476,0,0,1,1.259,1.383,1.421,1.421,0,0,1-.517,1.1,3.293,3.293,0,0,1-2.112.517,10.568,10.568,0,0,1-1.224-.066v-5.426Zm.791,2.258h.716c.835,0,1.326-.393,1.326-.923,0-.645-.543-.9-1.343-.9a4.022,4.022,0,0,0-.7.049Zm0,2.642a4.426,4.426,0,0,0,.663.031c.817,0,1.568-.27,1.568-1.074,0-.751-.716-1.065-1.578-1.065h-.649v2.107Z" transform="translate(5171.101 1349.525)" fill="#fff"/>
            <path id="Path_349" data-name="Path 349" d="M-4923.6-1348.936h.791v4.917h2.611v.6h-3.4Z" transform="translate(5053.604 1349.029)" fill="#fff"/>
            <path id="Path_350" data-name="Path 350" d="M-4804.466-1348.936v5.514h-.791v-5.514Z" transform="translate(4944.043 1349.029)" fill="#fff"/>
            <path id="Path_351" data-name="Path 351" d="M-4715.619-1344.7a4.333,4.333,0,0,1-1.613.261,2.721,2.721,0,0,1-3.018-2.788,2.9,2.9,0,0,1,3.19-2.9,3.5,3.5,0,0,1,1.449.247l-.19.579a3.1,3.1,0,0,0-1.232-.23,2.157,2.157,0,0,0-2.381,2.275,2.109,2.109,0,0,0,2.346,2.218,3.47,3.47,0,0,0,1.286-.23Z" transform="translate(4865.344 1350.131)" fill="#fff"/>
            <path id="Path_352" data-name="Path 352" d="M-4583.019-1348.936v5.514h-.791v-5.514Z" transform="translate(4739.031 1349.029)" fill="#fff"/>
            <path id="Path_353" data-name="Path 353" d="M-4501.465-1348.331h-1.86v-.605h4.524v.605h-1.869v4.909h-.8v-4.909Z" transform="translate(4664.52 1349.029)" fill="#fff"/>
            <path id="Path_354" data-name="Path 354" d="M-4386.5-1345.154l-.636,1.732h-.818l2.077-5.514h.95l2.085,5.514h-.844l-.654-1.732Zm2.006-.557-.6-1.586c-.137-.358-.226-.685-.318-1.007h-.018c-.093.327-.19.663-.309,1l-.6,1.595Z" transform="translate(4557.715 1349.029)" fill="#fff"/>
            <path id="Path_355" data-name="Path 355" d="M-4246.219-1349.357a8.956,8.956,0,0,1,1.516-.115,2.671,2.671,0,0,1,1.768.451,1.308,1.308,0,0,1,.481,1.047,1.48,1.48,0,0,1-1.153,1.409v.027a1.4,1.4,0,0,1,.9,1.113,8.108,8.108,0,0,0,.473,1.515h-.817a6.555,6.555,0,0,1-.407-1.317c-.181-.76-.508-1.047-1.224-1.073h-.742v2.39h-.787v-5.448Zm.787,2.51h.809c.844,0,1.378-.415,1.378-1.047,0-.711-.57-1.021-1.4-1.03a3.451,3.451,0,0,0-.782.066Z" transform="translate(4426.496 1349.525)" fill="#fff"/>
            <path id="Path_356" data-name="Path 356" d="M-4118.992-1348.936v5.514h-.787v-5.514Z" transform="translate(4309.439 1349.029)" fill="#fff"/>
            <path id="Path_357" data-name="Path 357" d="M-4034.746-1345.154l-.636,1.732h-.817l2.076-5.514h.95l2.085,5.514h-.844l-.654-1.732Zm2.006-.557-.6-1.586a10.412,10.412,0,0,1-.318-1.007h-.018c-.088.327-.19.663-.309,1l-.6,1.595Z" transform="translate(4232.064 1349.029)" fill="#fff"/>
            <path id="Path_358" data-name="Path 358" d="M-3898.485-1345.446a3.044,3.044,0,0,0,1.414.358c.8,0,1.277-.384,1.277-.941,0-.512-.327-.808-1.153-1.1-1-.318-1.613-.786-1.613-1.564,0-.857.791-1.5,1.975-1.5a3.062,3.062,0,0,1,1.352.27l-.217.579a2.667,2.667,0,0,0-1.162-.261c-.835,0-1.153.451-1.153.826,0,.512.371.769,1.215,1.065,1.034.358,1.56.808,1.56,1.621,0,.853-.7,1.586-2.138,1.586a3.406,3.406,0,0,1-1.56-.353Z" transform="translate(4104.757 1350.187)" fill="#fff"/>
          </g>
        </g>
      </g>
    </g>
    <g id="Group_197" data-name="Group 197" transform="translate(-7350.652 -1872.434)">
      <g id="Group_195" data-name="Group 195" transform="translate(0)">
        <path id="Path_359" data-name="Path 359" d="M-7330.8-1829.29l-19.851-10.74v-21.664l19.851-10.74,19.851,10.74v21.664Zm-16.511-12.73,16.511,8.933,16.512-8.933V-1859.7l-16.512-8.933-16.511,8.933Z" transform="translate(7350.651 1872.434)" fill="#29abe2"/>
      </g>
      <g id="Group_196" data-name="Group 196" transform="translate(9.993 10.904)">
        <path id="Path_360" data-name="Path 360" d="M-7196.3-1709.508v-10.667l-9.858-5.334-9.858,5.334v10.667l9.858,5.334Z" transform="translate(7216.013 1725.509)" fill="#fff"/>
      </g>
    </g>
  </g>
</svg>
