<svg xmlns="http://www.w3.org/2000/svg" width="628" height="154.389" viewBox="0 0 628 154.389">
  <g id="fulltextil-carpas-iglu-medidas" transform="translate(-2473.712 -3401.756)">
    <g id="Group_412" data-name="Group 412" transform="translate(2473.712 3428.11)">
      <g id="Group_407" data-name="Group 407">
        <g id="Group_406" data-name="Group 406" transform="translate(2.646)">
          <g id="Group_405" data-name="Group 405">
            <g id="Group_404" data-name="Group 404">
              <g id="Group_403" data-name="Group 403">
                <path id="Path_933" data-name="Path 933" d="M2744.3,3559.835s-6.138-30.168-17.343-40.306c0,0,5.162-6.119,9.684-4.3,0,0,3.063.967,4.519,6.177Z" transform="translate(-2573.837 -3471.19)" fill="#fff"/>
                <path id="Path_934" data-name="Path 934" d="M2594.3,3526.608s-10.7,20.014-8.864,28.2l-1.53.921h-.995s-3.379-28.876-7.583-31.814C2575.331,3523.917,2586.831,3523.644,2594.3,3526.608Z" transform="translate(-2515.473 -3474.661)" fill="#fff"/>
                <path id="Path_935" data-name="Path 935" d="M2591.342,3572.084c0,2.01-2.693,3.64-6.015,3.64s-6.015-1.631-6.015-3.64,2.693-3.643,6.015-3.643S2591.342,3570.071,2591.342,3572.084Z" transform="translate(-2517.005 -3491.803)" fill="#fff"/>
                <path id="Path_936" data-name="Path 936" d="M2753.3,3583.742" transform="translate(-2583.975 -3497.692)" fill="#fff"/>
                <path id="Path_937" data-name="Path 937" d="M2669.473,3652" transform="translate(-2551.71 -3523.966)" fill="#fff"/>
                <path id="Path_938" data-name="Path 938" d="M2606.175,3572.414" transform="translate(-2527.345 -3493.332)" fill="#fff"/>
                <path id="Path_939" data-name="Path 939" d="M2488.349,3618.369" transform="translate(-2481.992 -3511.021)" fill="#fff"/>
                <path id="Path_940" data-name="Path 940" d="M2485.722,3548.722s-7.195-52.636,10.715-67.477c0,0,35.974-24.023,71.335-36.111,0,0,4.44-2.908,14.083,0,0,0,48.986,20.809,53.425,24.788,0,0,16.226,7.956,17.6,30.295v.613l-.918,31.673H2650.9l-3.215-39.324s-5.511-18.667-23.881,12.545c0,0-13.471,43.609-10.562,59.828l-2.45,2.143H2608.8s-1.377-35.5-19.747-51.412c0,0-27.4-36.876-73.172-17.6,0,0-28.78,12.393-28.014,47.89Z" transform="translate(-2480.431 -3443.842)" fill="#fff" stroke="#cecece" stroke-miterlimit="10" stroke-width="1"/>
                <path id="Path_941" data-name="Path 941" d="M2670.586,3564.349V3499.79s-3.714-13.54-8.82-19.195l-18.256-27.974s-4.95-4.787-6.652-5.667" transform="translate(-2539.156 -3445.041)" fill="none" stroke="#cecece" stroke-miterlimit="10" stroke-width="3"/>
                <path id="Path_942" data-name="Path 942" d="M2633.223,3445.182c0,.525-2.669.952-5.96.952s-5.959-.427-5.959-.952,2.668-.952,5.959-.952S2633.223,3444.656,2633.223,3445.182Z" transform="translate(-2533.169 -3443.991)" fill="none" stroke="#cecece" stroke-miterlimit="10" stroke-width="3"/>
                <path id="Path_943" data-name="Path 943" d="M2490.043,3608.77c0,2.355-2.693,4.262-6.014,4.262s-6.015-1.908-6.015-4.262,2.692-4.266,6.015-4.266S2490.043,3606.414,2490.043,3608.77Z" transform="translate(-2478.014 -3505.684)" fill="#fff"/>
                <path id="Path_944" data-name="Path 944" d="M2691.3,3641.4c0,2.01-2.692,3.64-6.014,3.64s-6.015-1.631-6.015-3.64,2.693-3.642,6.015-3.642S2691.3,3639.385,2691.3,3641.4Z" transform="translate(-2555.482 -3518.483)" fill="#fff"/>
                <path id="Path_945" data-name="Path 945" d="M2757.4,3584.149c0,2.012-2.693,3.643-6.015,3.643s-6.015-1.63-6.015-3.643,2.693-3.64,6.015-3.64S2757.4,3582.138,2757.4,3584.149Z" transform="translate(-2580.926 -3496.448)" fill="#fff"/>
              </g>
            </g>
          </g>
        </g>
        <line id="Line_4" data-name="Line 4" x2="103.316" y2="17.057" transform="translate(17.057 105.814)" fill="#fff"/>
        <line id="Line_5" data-name="Line 5" y1="26.126" x2="25.694" transform="translate(141.425 91.348)" fill="#fff"/>
        <line id="Line_6" data-name="Line 6" y1="102.884" transform="translate(0 0.232)" fill="#fff"/>
      </g>
      <g id="Group_409" data-name="Group 409" transform="translate(47.196 29.766)">
        <g id="Group_408" data-name="Group 408">
          <path id="Path_946" data-name="Path 946" d="M2597.681,3496.7l-2.854-.212.077-1.04,6.95.517-.077,1.04-2.869-.213-.629,8.451-1.227-.091Z" transform="translate(-2567.527 -3493.473)" fill="#237598"/>
          <path id="Path_947" data-name="Path 947" d="M2611.99,3501.844l-3.648-.272-.254,3.423,4.067.3-.076,1.025-5.28-.393.707-9.487,5.052.376-.076,1.025-3.839-.286-.223,3,3.648.271-.076,1.015Z" transform="translate(-2572.135 -3493.855)" fill="#237598"/>
          <path id="Path_948" data-name="Path 948" d="M2622.636,3507.095l-1.042-2.188c-.427-.839-.7-1.383-.943-1.952l-.029,0c-.3.528-.609,1.016-1.158,1.811l-1.281,2-1.393-.1,3.245-4.587-2.43-4.9,1.4.1,1.076,2.318c.314.648.532,1.141.743,1.67l.043,0c.306-.545.576-.962.967-1.542l1.447-2.13,1.393.1-3.2,4.408,2.56,5.089Z" transform="translate(-2575.981 -3494.137)" fill="#237598"/>
          <path id="Path_949" data-name="Path 949" d="M2633.182,3499.347l-2.854-.212.077-1.04,6.95.517-.077,1.04-2.887-.215-.63,8.451-1.227-.092.629-8.451Z" transform="translate(-2581.192 -3494.491)" fill="#237598"/>
          <path id="Path_950" data-name="Path 950" d="M2644.226,3499.153l-.706,9.488-1.2-.089.707-9.488Z" transform="translate(-2585.807 -3494.864)" fill="#237598"/>
          <path id="Path_951" data-name="Path 951" d="M2648.416,3499.465l1.213.09-.631,8.466,4.009.3-.076,1.025-5.222-.389.706-9.488Z" transform="translate(-2587.883 -3495.018)" fill="#237598"/>
          <path id="Path_952" data-name="Path 952" d="M2551.3,3492.235l5.052.376-.077,1.04-3.847-.286-.235,3.153,3.551.264-.075,1.015-3.551-.264-.319,4.284-1.205-.09Z" transform="translate(-2550.501 -3492.235)" fill="#237598"/>
          <path id="Path_953" data-name="Path 953" d="M2563.7,3493.145l-.418,5.62c-.158,2.128.709,3.094,1.961,3.188,1.393.1,2.353-.757,2.509-2.855l.419-5.619,1.226.091-.412,5.536c-.217,2.919-1.825,4-3.857,3.848-1.924-.143-3.288-1.364-3.068-4.309l.417-5.591Z" transform="translate(-2554.905 -3492.55)" fill="#237598"/>
          <path id="Path_954" data-name="Path 954" d="M2576.975,3494.146l1.212.091-.63,8.466,4.013.3-.076,1.025-5.225-.389Z" transform="translate(-2560.384 -3492.97)" fill="#237598"/>
          <path id="Path_955" data-name="Path 955" d="M2587.664,3494.942l1.213.09-.631,8.466,4.009.3-.076,1.025-5.221-.389.706-9.488Z" transform="translate(-2564.498 -3493.277)" fill="#237598"/>
          <path id="Path_956" data-name="Path 956" d="M2550.514,3511.2a.955.955,0,0,0,.429.141c.249.019.4-.091.415-.262s-.082-.262-.336-.37c-.3-.121-.48-.281-.461-.526s.277-.449.645-.422a.9.9,0,0,1,.409.115l-.079.174a.824.824,0,0,0-.355-.107c-.256-.019-.372.115-.38.232s.094.25.336.359c.309.137.461.288.442.543s-.254.48-.7.447a1.039,1.039,0,0,1-.439-.146Z" transform="translate(-2550.443 -3498.98)" fill="#237598"/>
          <path id="Path_957" data-name="Path 957" d="M2556.734,3511.053a.846.846,0,0,1-.844.846.8.8,0,0,1-.094-.006.821.821,0,0,1-.8-.845.919.919,0,0,1,.008-.1.853.853,0,0,1,.86-.845.765.765,0,0,1,.082,0,.818.818,0,0,1,.795.841A.788.788,0,0,1,2556.734,3511.053Zm-1.467-.084a2.527,2.527,0,1,0,0,.022Z" transform="translate(-2552.197 -3499.114)" fill="#237598"/>
          <path id="Path_958" data-name="Path 958" d="M2560.617,3510.482l.245.019-.114,1.536.8.061-.013.186-1.051-.078Z" transform="translate(-2554.31 -3499.259)" fill="#237598"/>
          <path id="Path_959" data-name="Path 959" d="M2565.126,3510.816l-.076,1.018c-.028.387.143.565.4.584s.474-.133.5-.517l.075-1.018.246.018-.074,1a.66.66,0,0,1-.778.695.635.635,0,0,1-.64-.633.668.668,0,0,1,.015-.148l.076-1.021Z" transform="translate(-2555.961 -3499.38)" fill="#237598"/>
          <path id="Path_960" data-name="Path 960" d="M2571.245,3512.962a1.319,1.319,0,0,1-.5.043.846.846,0,0,1-.853-.841.807.807,0,0,1,.006-.106.9.9,0,0,1,.958-.843.774.774,0,0,1,.094.011,1.14,1.14,0,0,1,.442.109l-.071.178a1,1,0,0,0-.377-.1.672.672,0,0,0-.767.562.777.777,0,0,0-.009.114.66.66,0,0,0,.565.742.609.609,0,0,0,.106.005,1.049,1.049,0,0,0,.4-.044Z" transform="translate(-2557.928 -3499.54)" fill="#237598"/>
          <path id="Path_961" data-name="Path 961" d="M2575.22,3511.569l-.128,1.722-.241-.018.128-1.723Z" transform="translate(-2559.838 -3499.67)" fill="#237598"/>
          <path id="Path_962" data-name="Path 962" d="M2579.839,3512.772a.846.846,0,0,1-.844.846.87.87,0,0,1-.1-.006.821.821,0,0,1-.8-.845c0-.033,0-.065.008-.1a.854.854,0,0,1,.859-.846l.085.005a.819.819,0,0,1,.8.838A.838.838,0,0,1,2579.839,3512.772Zm-1.467-.083a.6.6,0,1,0,.009-.167.636.636,0,0,0-.01.188Z" transform="translate(-2561.087 -3499.775)" fill="#237598"/>
          <path id="Path_963" data-name="Path 963" d="M2583.6,3513.925l.128-1.723.267.02.56.915a4.35,4.35,0,0,1,.294.583h0c0-.231,0-.44.024-.71l.054-.729.231.017-.128,1.722-.246-.019-.534-.92a4.761,4.761,0,0,1-.318-.6h0l-.055.73-.054.73Z" transform="translate(-2563.205 -3499.921)" fill="#237598"/>
          <path id="Path_964" data-name="Path 964" d="M2589.895,3513.579l-.721-.053-.047.624.819.061-.014.186-1.082-.081.128-1.722,1.021.076-.014.186-.776-.058-.041.544.722.053-.013.183Z" transform="translate(-2565.226 -3500.072)" fill="#237598"/>
          <path id="Path_965" data-name="Path 965" d="M2593.278,3514.385a.972.972,0,0,0,.428.142c.249.018.4-.092.415-.263s-.082-.263-.335-.37-.48-.282-.461-.526a.546.546,0,0,1,.645-.422.921.921,0,0,1,.412.115l-.078.174a.835.835,0,0,0-.355-.107c-.257-.019-.372.115-.38.233s.1.249.336.358c.313.137.465.288.446.543s-.253.481-.7.447a1.037,1.037,0,0,1-.475-.149Z" transform="translate(-2566.892 -3500.206)" fill="#237598"/>
          <path id="Path_966" data-name="Path 966" d="M2601.225,3513.53a3.063,3.063,0,0,1,.471,0,.8.8,0,0,1,.516.185.436.436,0,0,1,.139.377.486.486,0,0,1-.172.354.821.821,0,0,1-.592.147,1.168,1.168,0,0,1-.2-.015l-.052.69-.242-.019Zm.167.867a1.007,1.007,0,0,0,.2.015c.3.022.482-.1.5-.33s-.148-.348-.419-.369a1.071,1.071,0,0,0-.227-.017l-.052.7Z" transform="translate(-2569.941 -3500.428)" fill="#237598"/>
          <path id="Path_967" data-name="Path 967" d="M2606.169,3513.871l-.076,1.018c-.029.387.147.565.4.584s.471-.134.5-.517l.076-1.018.246.018-.075,1a.665.665,0,0,1-.619.7.687.687,0,0,1-.158-.01.634.634,0,0,1-.621-.78l.076-1.022Z" transform="translate(-2571.765 -3500.556)" fill="#237598"/>
          <path id="Path_968" data-name="Path 968" d="M2611.118,3514.27a2.457,2.457,0,0,1,.447,0,.834.834,0,0,1,.51.167.366.366,0,0,1,.137.314.429.429,0,0,1-.349.341h0a.459.459,0,0,1,.172.816,1.025,1.025,0,0,1-.665.112,2.115,2.115,0,0,1-.377-.047Zm.193.722.219.017c.26.019.421-.09.433-.258s-.149-.293-.394-.312a1.236,1.236,0,0,0-.216-.016Zm-.062.829a1.519,1.519,0,0,0,.2.015c.252.019.493-.047.512-.3s-.2-.349-.462-.368l-.2-.016-.049.661Z" transform="translate(-2573.749 -3500.712)" fill="#237598"/>
          <path id="Path_969" data-name="Path 969" d="M2615.857,3514.594l.26.019-.115,1.537.808.061-.014.186-1.054-.079Z" transform="translate(-2575.578 -3500.841)" fill="#237598"/>
          <path id="Path_970" data-name="Path 970" d="M2620.505,3514.94l-.128,1.722-.245-.018.128-1.723Z" transform="translate(-2577.268 -3500.968)" fill="#237598"/>
          <path id="Path_971" data-name="Path 971" d="M2624.775,3516.947a1.339,1.339,0,0,1-.5.043.845.845,0,0,1-.87-.822.78.78,0,0,1,0-.126.9.9,0,0,1,.958-.843.777.777,0,0,1,.094.011,1.132,1.132,0,0,1,.442.109l-.074.179a.976.976,0,0,0-.355-.1.672.672,0,0,0-.768.562.768.768,0,0,0,.555.856.675.675,0,0,0,.107.005,1.051,1.051,0,0,0,.4-.044Z" transform="translate(-2578.525 -3501.073)" fill="#237598"/>
          <path id="Path_972" data-name="Path 972" d="M2628.762,3515.555l-.129,1.723-.241-.018.128-1.723Z" transform="translate(-2580.447 -3501.205)" fill="#237598"/>
          <path id="Path_973" data-name="Path 973" d="M2632.152,3515.993l-.57-.042.014-.19,1.4.1-.014.19-.577-.043-.114,1.533-.245-.019.114-1.533Z" transform="translate(-2581.675 -3501.29)" fill="#237598"/>
          <path id="Path_974" data-name="Path 974" d="M2636.174,3517.322l-.242.529-.253-.019.771-1.674.292.022.518,1.771-.245-.018-.162-.559Zm.634-.125-.147-.517c-.035-.117-.052-.221-.074-.321h0c-.036.1-.073.2-.117.3l-.221.486Z" transform="translate(-2583.251 -3501.444)" fill="#237598"/>
          <path id="Path_975" data-name="Path 975" d="M2641.1,3516.5a2.829,2.829,0,0,1,.468,0,.818.818,0,0,1,.538.183.414.414,0,0,1,.124.339.463.463,0,0,1-.393.411h0a.447.447,0,0,1,.251.386,2.663,2.663,0,0,0,.109.485l-.26-.02a2.314,2.314,0,0,1-.092-.421c-.04-.242-.134-.34-.354-.364l-.22-.016-.055.748-.241-.018Zm.183.8.25.019c.26.019.435-.1.45-.3s-.153-.331-.409-.354a1.078,1.078,0,0,0-.243,0Z" transform="translate(-2585.291 -3501.572)" fill="#237598"/>
          <path id="Path_976" data-name="Path 976" d="M2646.04,3516.842l-.129,1.722-.242-.018.128-1.723Z" transform="translate(-2587.097 -3501.699)" fill="#237598"/>
          <path id="Path_977" data-name="Path 977" d="M2649.291,3518.3l-.235.529-.253-.019.771-1.674.292.021.518,1.771-.263-.02-.162-.559Zm.634-.125-.147-.517a2.782,2.782,0,0,1-.074-.321h0c-.033.1-.073.2-.117.3l-.221.486Z" transform="translate(-2588.303 -3501.82)" fill="#237598"/>
          <path id="Path_978" data-name="Path 978" d="M2654,3518.906a.967.967,0,0,0,.428.142c.249.019.4-.091.415-.262s-.079-.262-.335-.37c-.3-.122-.48-.282-.462-.526s.277-.449.645-.422a.939.939,0,0,1,.413.115l-.082.174a.835.835,0,0,0-.355-.108c-.26-.019-.372.116-.38.233s.1.25.336.359c.309.137.461.288.442.542s-.25.48-.7.447a1.044,1.044,0,0,1-.471-.149Z" transform="translate(-2590.263 -3501.947)" fill="#237598"/>
        </g>
      </g>
      <g id="Group_411" data-name="Group 411" transform="translate(134.459 33.721)">
        <g id="Group_410" data-name="Group 410">
          <path id="Path_979" data-name="Path 979" d="M2711.85,3506.826l-1.2.453-.165-.437,2.922-1.1.165.437-1.206.455,1.341,3.553-.516.195Z" transform="translate(-2699.309 -3501.388)" fill="#237598"/>
          <path id="Path_980" data-name="Path 980" d="M2718.8,3506.326l-1.534.579.543,1.439,1.71-.645.162.431-2.22.838-1.506-3.99,2.125-.8.163.431-1.615.61.476,1.261,1.534-.579.161.427Z" transform="translate(-2701.414 -3500.786)" fill="#237598"/>
          <path id="Path_981" data-name="Path 981" d="M2724.143,3506.234l-.836-.692c-.333-.26-.544-.431-.752-.615l-.013,0c-.024.272-.056.528-.128.954l-.143,1.055-.586.221.452-2.477-1.912-1.531.59-.223.875.74c.25.2.432.363.618.538l.019-.008c.021-.279.052-.5.1-.81l.186-1.139.586-.221-.467,2.4,2,1.584Z" transform="translate(-2703.058 -3499.96)" fill="#237598"/>
          <path id="Path_982" data-name="Path 982" d="M2726.777,3501.192l-1.2.453-.165-.437,2.922-1.1.165.437-1.214.458,1.341,3.553-.516.195-1.341-3.554Z" transform="translate(-2705.055 -3499.219)" fill="#237598"/>
          <path id="Path_983" data-name="Path 983" d="M2731.389,3499.523l1.506,3.99-.506.19-1.506-3.99Z" transform="translate(-2707.161 -3498.995)" fill="#237598"/>
          <path id="Path_984" data-name="Path 984" d="M2733.15,3498.857l.51-.192,1.343,3.559,1.686-.636.163.431-2.2.829-1.506-3.99Z" transform="translate(-2708.034 -3498.665)" fill="#237598"/>
          <path id="Path_985" data-name="Path 985" d="M2692.316,3513.888l2.124-.8.165.438-1.618.61.5,1.326,1.493-.563.161.426-1.493.563.68,1.8-.507.192Z" transform="translate(-2692.316 -3504.216)" fill="#237598"/>
          <path id="Path_986" data-name="Path 986" d="M2697.458,3511.761l.892,2.363c.338.894.874,1.124,1.4.925.585-.222.813-.752.48-1.635l-.892-2.363.516-.195.879,2.327c.463,1.228.013,1.971-.841,2.293-.809.305-1.594.067-2.062-1.172l-.887-2.35Z" transform="translate(-2694.097 -3503.358)" fill="#237598"/>
          <path id="Path_987" data-name="Path 987" d="M2703.111,3510.195l.51-.193,1.344,3.56,1.687-.637.163.431-2.2.829Z" transform="translate(-2696.471 -3503.029)" fill="#237598"/>
          <path id="Path_988" data-name="Path 988" d="M2707.606,3508.5l.51-.192,1.343,3.56,1.686-.636.162.431-2.2.829-1.506-3.989Z" transform="translate(-2698.201 -3502.376)" fill="#237598"/>
          <path id="Path_989" data-name="Path 989" d="M2695.474,3522.219a.415.415,0,0,0,.2-.023c.105-.04.146-.113.119-.185s-.083-.091-.206-.086c-.146.008-.248-.024-.287-.127a.245.245,0,0,1,.183-.294.407.407,0,0,1,.188-.03v.085a.369.369,0,0,0-.165.023c-.108.041-.129.117-.111.166s.085.084.2.082c.152,0,.242.03.282.137s-.012.243-.2.313a.473.473,0,0,1-.206.023Z" transform="translate(-2693.46 -3507.444)" fill="#237598"/>
          <path id="Path_990" data-name="Path 990" d="M2697.98,3520.964a.38.38,0,0,1-.183.5.331.331,0,0,1-.039.015.367.367,0,0,1-.484-.192c-.006-.013-.011-.028-.015-.041a.383.383,0,0,1,.19-.506.279.279,0,0,1,.034-.012.366.366,0,0,1,.482.191A.287.287,0,0,1,2697.98,3520.964Zm-.612.243a.277.277,0,0,0,.326.216.274.274,0,0,0,.211-.327.262.262,0,0,0-.03-.079.274.274,0,1,0-.534.121.285.285,0,0,0,.031.078Z" transform="translate(-2694.206 -3507.146)" fill="#237598"/>
          <path id="Path_991" data-name="Path 991" d="M2699.4,3520.089l.1-.039.244.646.338-.127.029.078-.442.167Z" transform="translate(-2695.044 -3506.896)" fill="#237598"/>
          <path id="Path_992" data-name="Path 992" d="M2701.289,3519.263l.161.428c.062.162.165.2.271.162s.167-.144.106-.305l-.161-.428.1-.039.159.422a.3.3,0,0,1-.119.4.287.287,0,0,1-.066.025.284.284,0,0,1-.379-.136.3.3,0,0,1-.022-.063l-.162-.43Z" transform="translate(-2695.728 -3506.523)" fill="#237598"/>
          <path id="Path_993" data-name="Path 993" d="M2704.242,3518.983a.594.594,0,0,1-.2.113.379.379,0,0,1-.506-.181.32.32,0,0,1-.018-.044.4.4,0,0,1,.23-.523l.041-.013a.492.492,0,0,1,.2-.039l.005.085a.455.455,0,0,0-.173.03.3.3,0,0,0-.205.374.281.281,0,0,0,.018.048.3.3,0,0,0,.37.2l.043-.018a.479.479,0,0,0,.156-.094Z" transform="translate(-2696.619 -3506.221)" fill="#237598"/>
          <path id="Path_994" data-name="Path 994" d="M2705.543,3517.772l.273.724-.1.039-.273-.724Z" transform="translate(-2697.368 -3506.02)" fill="#237598"/>
          <path id="Path_995" data-name="Path 995" d="M2707.7,3517.3a.379.379,0,0,1-.182.5.338.338,0,0,1-.042.016.367.367,0,0,1-.483-.193.358.358,0,0,1-.015-.041.382.382,0,0,1,.189-.506.332.332,0,0,1,.035-.014.367.367,0,0,1,.483.189A.429.429,0,0,1,2707.7,3517.3Zm-.612.243a.277.277,0,0,0,.326.215.274.274,0,0,0,.211-.327.255.255,0,0,0-.03-.079.274.274,0,1,0-.534.122.3.3,0,0,0,.031.079Z" transform="translate(-2697.944 -3505.734)" fill="#237598"/>
          <path id="Path_996" data-name="Path 996" d="M2709.393,3517.025l-.273-.724.112-.042.4.267a1.9,1.9,0,0,1,.23.181h0c-.045-.094-.082-.179-.125-.293l-.116-.307.1-.036.273.724-.1.039-.39-.273a2.08,2.08,0,0,1-.242-.183h0l.115.307.116.307Z" transform="translate(-2698.784 -3505.364)" fill="#237598"/>
          <path id="Path_997" data-name="Path 997" d="M2711.886,3515.738l-.3.115.1.263.344-.13.03.078-.455.172-.273-.724.429-.162.03.078-.327.123.087.229.3-.115.029.077Z" transform="translate(-2699.634 -3505.087)" fill="#237598"/>
          <path id="Path_998" data-name="Path 998" d="M2713.462,3515.43a.419.419,0,0,0,.2-.023c.1-.039.146-.113.119-.185s-.082-.092-.206-.087-.248-.024-.287-.127a.245.245,0,0,1,.182-.293.408.408,0,0,1,.189-.031v.085a.368.368,0,0,0-.165.024c-.108.041-.129.117-.111.166s.086.083.2.083c.153,0,.243.029.284.136s-.012.243-.2.313a.469.469,0,0,1-.221.03Z" transform="translate(-2700.385 -3504.831)" fill="#237598"/>
          <path id="Path_999" data-name="Path 999" d="M2716.483,3513.6a1.272,1.272,0,0,1,.192-.088.358.358,0,0,1,.245-.023.2.2,0,0,1,.128.127.217.217,0,0,1,0,.177.363.363,0,0,1-.212.171.453.453,0,0,1-.084.032l.11.29-.1.038Zm.232.321a.529.529,0,0,0,.085-.032c.124-.047.178-.13.141-.229s-.126-.114-.24-.071a.483.483,0,0,0-.1.036l.112.295Z" transform="translate(-2701.618 -3504.368)" fill="#237598"/>
          <path id="Path_1000" data-name="Path 1000" d="M2718.543,3512.75l.161.428c.061.163.166.2.273.162s.166-.143.105-.3l-.162-.428.1-.039.159.422a.294.294,0,0,1-.185.429.283.283,0,0,1-.4-.2l-.162-.43Z" transform="translate(-2702.37 -3504.017)" fill="#237598"/>
          <path id="Path_1001" data-name="Path 1001" d="M2720.643,3512.037a1.083,1.083,0,0,1,.181-.086.372.372,0,0,1,.239-.029.164.164,0,0,1,.115.1.19.19,0,0,1-.077.2h0a.206.206,0,0,1,.224.3.458.458,0,0,1-.249.171.881.881,0,0,1-.162.052Zm.215.257.093-.035c.109-.041.154-.115.127-.186s-.116-.091-.219-.052a.526.526,0,0,0-.091.035Zm.131.348a.724.724,0,0,0,.086-.032c.105-.04.191-.113.151-.218s-.147-.1-.258-.062l-.085.032.105.277Z" transform="translate(-2703.219 -3503.765)" fill="#237598"/>
          <path id="Path_1002" data-name="Path 1002" d="M2722.626,3511.322l.109-.041.244.646.339-.128.03.078-.443.167Z" transform="translate(-2703.983 -3503.521)" fill="#237598"/>
          <path id="Path_1003" data-name="Path 1003" d="M2724.584,3510.585l.273.724-.1.039-.273-.725Z" transform="translate(-2704.697 -3503.253)" fill="#237598"/>
          <path id="Path_1004" data-name="Path 1004" d="M2726.75,3510.487a.6.6,0,0,1-.2.113.379.379,0,0,1-.509-.17.316.316,0,0,1-.021-.052.4.4,0,0,1,.23-.523.375.375,0,0,1,.041-.013.506.506,0,0,1,.2-.039l0,.087a.436.436,0,0,0-.163.027.3.3,0,0,0-.206.373.316.316,0,0,0,.019.048.3.3,0,0,0,.369.195.32.32,0,0,0,.044-.018.481.481,0,0,0,.156-.094Z" transform="translate(-2705.28 -3502.952)" fill="#237598"/>
          <path id="Path_1005" data-name="Path 1005" d="M2728.056,3509.275l.273.724-.1.039-.274-.725Z" transform="translate(-2706.033 -3502.749)" fill="#237598"/>
          <path id="Path_1006" data-name="Path 1006" d="M2729.487,3508.711l-.24.09-.03-.079.587-.222.03.08-.243.092.244.644-.1.039-.243-.645Z" transform="translate(-2706.52 -3502.451)" fill="#237598"/>
          <path id="Path_1007" data-name="Path 1007" d="M2731.565,3508.511v.26l-.106.04,0-.826.123-.046.545.621-.1.039-.171-.2Zm.234-.17-.157-.183c-.036-.041-.063-.079-.09-.116h0c0,.047.008.1.01.145l0,.239Z" transform="translate(-2707.382 -3502.235)" fill="#237598"/>
          <path id="Path_1008" data-name="Path 1008" d="M2733.251,3507.275a1.292,1.292,0,0,1,.19-.089.371.371,0,0,1,.253-.027.188.188,0,0,1,.115.115.208.208,0,0,1-.083.242h0a.2.2,0,0,1,.175.109,1.2,1.2,0,0,0,.136.177l-.109.041a1.062,1.062,0,0,1-.118-.154.161.161,0,0,0-.212-.081l-.092.035.118.315-.1.038Zm.227.291.1-.04c.109-.041.159-.123.127-.206s-.125-.105-.233-.066a.491.491,0,0,0-.1.047Z" transform="translate(-2708.073 -3501.93)" fill="#237598"/>
          <path id="Path_1009" data-name="Path 1009" d="M2735.321,3506.533l.273.724-.1.039-.274-.725Z" transform="translate(-2708.83 -3501.694)" fill="#237598"/>
          <path id="Path_1010" data-name="Path 1010" d="M2737.081,3506.43l0,.259-.106.04,0-.826.123-.046.545.622-.111.042-.171-.2Zm.234-.17-.157-.183a1.31,1.31,0,0,1-.091-.116h0a1.352,1.352,0,0,1,.01.145l0,.239Z" transform="translate(-2709.506 -3501.433)" fill="#237598"/>
          <path id="Path_1011" data-name="Path 1011" d="M2738.994,3505.794a.421.421,0,0,0,.2-.024c.1-.039.146-.112.119-.185s-.082-.092-.207-.087c-.146.008-.248-.024-.287-.126a.244.244,0,0,1,.182-.293.421.421,0,0,1,.189-.032v.086a.366.366,0,0,0-.164.024c-.11.041-.129.117-.111.166s.087.083.2.082c.152,0,.242.03.282.137s-.01.242-.2.314a.454.454,0,0,1-.219.028Z" transform="translate(-2710.212 -3501.121)" fill="#237598"/>
        </g>
      </g>
    </g>
    <g id="Group_422" data-name="Group 422" transform="translate(2678.053 3415.603)">
      <g id="Group_417" data-name="Group 417">
        <g id="Group_416" data-name="Group 416" transform="translate(2.904)">
          <g id="Group_415" data-name="Group 415">
            <g id="Group_414" data-name="Group 414">
              <g id="Group_413" data-name="Group 413">
                <path id="Path_1012" data-name="Path 1012" d="M3102.952,3550.832s-6.738-33.116-19.038-44.243c0,0,5.666-6.717,10.63-4.721,0,0,3.362,1.061,4.96,6.779Z" transform="translate(-2915.834 -3453.527)" fill="#fff"/>
                <path id="Path_1013" data-name="Path 1013" d="M2938.3,3514.358s-11.744,21.97-9.729,30.958l-1.68,1.011H2925.8s-3.71-31.7-8.324-34.922C2917.475,3511.4,2930.1,3511.1,2938.3,3514.358Z" transform="translate(-2851.769 -3457.338)" fill="#fff"/>
                <path id="Path_1014" data-name="Path 1014" d="M2935.049,3564.277c0,2.206-2.956,4-6.6,4s-6.6-1.79-6.6-4,2.956-4,6.6-4S2935.049,3562.067,2935.049,3564.277Z" transform="translate(-2853.451 -3476.153)" fill="#fff"/>
                <path id="Path_1015" data-name="Path 1015" d="M3112.828,3577.074" transform="translate(-2926.964 -3482.618)" fill="#fff"/>
                <path id="Path_1016" data-name="Path 1016" d="M3020.813,3652" transform="translate(-2891.546 -3511.458)" fill="#fff"/>
                <path id="Path_1017" data-name="Path 1017" d="M2951.332,3564.639" transform="translate(-2864.802 -3477.832)" fill="#fff"/>
                <path id="Path_1018" data-name="Path 1018" d="M2822,3615.084" transform="translate(-2815.018 -3497.249)" fill="#fff"/>
                <path id="Path_1019" data-name="Path 1019" d="M2819.112,3538.633s-7.9-57.779,11.762-74.069c0,0,39.488-26.37,78.3-39.638,0,0,4.874-3.192,15.459,0,0,0,53.771,22.842,58.645,27.21,0,0,17.811,8.733,19.323,33.254v.673l-1.007,34.768h-1.177l-3.528-43.165s-6.05-20.491-26.214,13.771c0,0-14.787,47.869-11.594,65.673l-2.688,2.352h-2.185s-1.512-38.966-21.676-56.434c0,0-30.078-40.479-80.32-19.315,0,0-31.591,13.6-30.75,52.568Z" transform="translate(-2813.304 -3423.508)" fill="#fff" stroke="#cecece" stroke-miterlimit="10" stroke-width="1"/>
                <path id="Path_1020" data-name="Path 1020" d="M3022.035,3555.787v-70.866s-4.076-14.863-9.681-21.07l-20.04-30.706s-5.433-5.254-7.3-6.22" transform="translate(-2877.766 -3424.823)" fill="none" stroke="#cecece" stroke-miterlimit="10" stroke-width="3"/>
                <path id="Path_1021" data-name="Path 1021" d="M2981.022,3424.978c0,.577-2.93,1.046-6.543,1.046s-6.541-.469-6.541-1.046,2.928-1.045,6.541-1.045S2981.022,3424.4,2981.022,3424.978Z" transform="translate(-2871.194 -3423.672)" fill="none" stroke="#cecece" stroke-miterlimit="10" stroke-width="3"/>
                <path id="Path_1022" data-name="Path 1022" d="M2823.855,3604.546c0,2.585-2.956,4.679-6.6,4.679s-6.6-2.094-6.6-4.679,2.956-4.682,6.6-4.682S2823.855,3601.961,2823.855,3604.546Z" transform="translate(-2810.651 -3491.39)" fill="#fff"/>
                <path id="Path_1023" data-name="Path 1023" d="M3044.776,3640.363c0,2.206-2.955,4-6.6,4s-6.6-1.79-6.6-4,2.956-4,6.6-4S3044.776,3638.152,3044.776,3640.363Z" transform="translate(-2895.687 -3505.44)" fill="#fff"/>
                <path id="Path_1024" data-name="Path 1024" d="M3117.335,3577.521c0,2.209-2.956,4-6.6,4s-6.6-1.79-6.6-4,2.957-4,6.6-4S3117.335,3575.314,3117.335,3577.521Z" transform="translate(-2923.616 -3481.252)" fill="#fff"/>
              </g>
            </g>
          </g>
        </g>
        <line id="Line_7" data-name="Line 7" x2="113.408" y2="18.724" transform="translate(18.724 116.151)" fill="#fff"/>
        <line id="Line_8" data-name="Line 8" y1="28.678" x2="28.204" transform="translate(155.24 100.271)" fill="#fff"/>
        <line id="Line_9" data-name="Line 9" y1="112.934" transform="translate(0 0.254)" fill="#fff"/>
      </g>
      <g id="Group_419" data-name="Group 419" transform="translate(51.806 32.673)">
        <g id="Group_418" data-name="Group 418">
          <path id="Path_1025" data-name="Path 1025" d="M2942.009,3481.534l-3.133-.233.085-1.142,7.63.568-.085,1.141-3.149-.234-.69,9.277-1.347-.1Z" transform="translate(-2908.909 -3477.987)" fill="#237598"/>
          <path id="Path_1026" data-name="Path 1026" d="M2957.716,3487.176l-4.005-.3-.28,3.758,4.464.332-.083,1.125-5.8-.431.776-10.415,5.545.413-.084,1.126-4.214-.314-.245,3.293,4,.3-.083,1.114Z" transform="translate(-2913.967 -3478.406)" fill="#237598"/>
          <path id="Path_1027" data-name="Path 1027" d="M2969.4,3492.94l-1.143-2.4c-.469-.921-.764-1.519-1.036-2.144l-.031,0c-.334.579-.668,1.115-1.271,1.988l-1.406,2.2-1.529-.114,3.561-5.036-2.667-5.374,1.542.115,1.18,2.545c.346.71.584,1.251.816,1.833l.048,0c.336-.6.632-1.056,1.062-1.693l1.588-2.339,1.529.115-3.511,4.837,2.81,5.586Z" transform="translate(-2918.189 -3478.716)" fill="#237598"/>
          <path id="Path_1028" data-name="Path 1028" d="M2980.978,3484.435l-3.133-.233.085-1.142,7.629.568-.085,1.142-3.169-.236-.691,9.276-1.346-.1.691-9.277Z" transform="translate(-2923.909 -3479.104)" fill="#237598"/>
          <path id="Path_1029" data-name="Path 1029" d="M2993.1,3484.222l-.776,10.415-1.319-.1.776-10.414Z" transform="translate(-2928.975 -3479.513)" fill="#237598"/>
          <path id="Path_1030" data-name="Path 1030" d="M2997.7,3484.564l1.331.1-.692,9.293,4.4.327-.084,1.126-5.732-.426.776-10.415Z" transform="translate(-2931.253 -3479.683)" fill="#237598"/>
          <path id="Path_1031" data-name="Path 1031" d="M2891.1,3476.628l5.546.413-.085,1.142-4.222-.314-.258,3.46,3.9.29-.083,1.114-3.9-.29-.35,4.7-1.323-.1Z" transform="translate(-2890.22 -3476.628)" fill="#237598"/>
          <path id="Path_1032" data-name="Path 1032" d="M2904.706,3477.627l-.459,6.169c-.173,2.334.779,3.4,2.153,3.5,1.529.114,2.583-.831,2.755-3.134l.459-6.169,1.347.1-.453,6.077c-.238,3.2-2,4.39-4.233,4.224-2.112-.157-3.609-1.5-3.368-4.729l.457-6.137Z" transform="translate(-2895.054 -3476.974)" fill="#237598"/>
          <path id="Path_1033" data-name="Path 1033" d="M2919.28,3478.726l1.331.1-.692,9.292,4.4.329-.084,1.125-5.736-.427Z" transform="translate(-2901.068 -3477.436)" fill="#237598"/>
          <path id="Path_1034" data-name="Path 1034" d="M2931.014,3479.6l1.331.1-.691,9.293,4.4.328-.084,1.125-5.731-.427.775-10.415Z" transform="translate(-2905.584 -3477.771)" fill="#237598"/>
          <path id="Path_1035" data-name="Path 1035" d="M2890.234,3497.445a1.048,1.048,0,0,0,.471.156c.273.02.442-.1.456-.289s-.09-.288-.368-.406c-.332-.134-.526-.31-.506-.578s.3-.493.708-.463a1.006,1.006,0,0,1,.448.126l-.085.192a.91.91,0,0,0-.39-.118c-.281-.021-.407.127-.417.255s.1.274.369.394c.34.15.506.315.485.6s-.278.526-.765.49a1.142,1.142,0,0,1-.482-.161Z" transform="translate(-2890.156 -3484.032)" fill="#237598"/>
          <path id="Path_1036" data-name="Path 1036" d="M2897.061,3497.284a.927.927,0,0,1-.926.928.843.843,0,0,1-.1-.006.9.9,0,0,1-.876-.928,1.082,1.082,0,0,1,.952-1.035c.03,0,.06,0,.089.005a.9.9,0,0,1,.873.923A1.011,1.011,0,0,1,2897.061,3497.284Zm-1.61-.092a.666.666,0,1,0,.01-.183.71.71,0,0,0-.012.207Z" transform="translate(-2892.081 -3484.178)" fill="#237598"/>
          <path id="Path_1037" data-name="Path 1037" d="M2901.324,3496.657l.268.02-.125,1.687.883.066-.015.2-1.153-.086Z" transform="translate(-2894.4 -3484.337)" fill="#237598"/>
          <path id="Path_1038" data-name="Path 1038" d="M2906.273,3497.024l-.083,1.117c-.032.424.157.62.434.64s.52-.146.552-.567l.084-1.117.27.02-.083,1.1a.73.73,0,0,1-.68.773.746.746,0,0,1-.173-.011.7.7,0,0,1-.685-.856l.083-1.122Z" transform="translate(-2896.213 -3484.471)" fill="#237598"/>
          <path id="Path_1039" data-name="Path 1039" d="M2912.99,3499.379a1.47,1.47,0,0,1-.553.048.929.929,0,0,1-.936-.924.874.874,0,0,1,.005-.116.991.991,0,0,1,1.052-.926,1.037,1.037,0,0,1,.1.013,1.234,1.234,0,0,1,.485.121l-.078.2a1.081,1.081,0,0,0-.414-.111.736.736,0,0,0-.842.616.673.673,0,0,0-.009.125.723.723,0,0,0,.619.814.6.6,0,0,0,.116.006,1.151,1.151,0,0,0,.442-.047Z" transform="translate(-2898.372 -3484.646)" fill="#237598"/>
          <path id="Path_1040" data-name="Path 1040" d="M2917.354,3497.851l-.141,1.891-.265-.02.141-1.891Z" transform="translate(-2900.469 -3484.79)" fill="#237598"/>
          <path id="Path_1041" data-name="Path 1041" d="M2922.424,3499.172a.921.921,0,0,1-1.037.921.9.9,0,0,1-.876-.928.884.884,0,0,1,.009-.107.936.936,0,0,1,.943-.927c.031,0,.063,0,.094.005a.9.9,0,0,1,.876.92A1.035,1.035,0,0,1,2922.424,3499.172Zm-1.61-.092a.672.672,0,1,0,1.308.306.7.7,0,0,0,.015-.207.672.672,0,1,0-1.313-.281.7.7,0,0,0-.012.207Z" transform="translate(-2901.84 -3484.905)" fill="#237598"/>
          <path id="Path_1042" data-name="Path 1042" d="M2926.55,3500.437l.141-1.891.293.021.615,1a4.675,4.675,0,0,1,.323.64h0c-.005-.254,0-.483.026-.779l.06-.8.254.019-.141,1.891-.269-.02-.586-1.011a5.285,5.285,0,0,1-.349-.658h0l-.06.8-.06.8Z" transform="translate(-2904.165 -3485.065)" fill="#237598"/>
          <path id="Path_1043" data-name="Path 1043" d="M2933.461,3500.057l-.792-.059-.051.685.9.068-.015.2-1.188-.089.141-1.891,1.121.084-.015.2-.852-.064-.044.6.792.059-.015.2Z" transform="translate(-2906.383 -3485.23)" fill="#237598"/>
          <path id="Path_1044" data-name="Path 1044" d="M2937.175,3500.942a1.048,1.048,0,0,0,.471.156c.273.021.441-.1.455-.288s-.09-.288-.368-.406-.526-.309-.507-.577a.6.6,0,0,1,.708-.463,1.011,1.011,0,0,1,.453.126l-.086.19a.928.928,0,0,0-.389-.117c-.281-.021-.408.127-.418.255s.107.273.369.393c.343.151.51.316.49.6s-.279.527-.766.491a1.153,1.153,0,0,1-.521-.164Z" transform="translate(-2908.212 -3485.378)" fill="#237598"/>
          <path id="Path_1045" data-name="Path 1045" d="M2945.9,3500a3.217,3.217,0,0,1,.518,0,.878.878,0,0,1,.566.2.479.479,0,0,1,.152.414.533.533,0,0,1-.188.388.9.9,0,0,1-.649.161,1.211,1.211,0,0,1-.219-.016l-.056.757-.266-.02Zm.184.952a1.144,1.144,0,0,0,.222.016c.325.024.53-.105.549-.362s-.163-.383-.459-.405a1.176,1.176,0,0,0-.25-.019l-.057.769Z" transform="translate(-2911.558 -3485.622)" fill="#237598"/>
          <path id="Path_1046" data-name="Path 1046" d="M2951.325,3500.377l-.083,1.117c-.032.425.16.621.438.641s.517-.147.548-.567l.083-1.118.269.02-.082,1.1a.73.73,0,0,1-.68.773.821.821,0,0,1-.854-.867l.083-1.122Z" transform="translate(-2913.561 -3485.762)" fill="#237598"/>
          <path id="Path_1047" data-name="Path 1047" d="M2956.758,3500.815a2.572,2.572,0,0,1,.49,0,.918.918,0,0,1,.56.182.4.4,0,0,1,.15.346.469.469,0,0,1-.383.374h0a.5.5,0,0,1,.391.529.5.5,0,0,1-.2.368,1.123,1.123,0,0,1-.73.122,2.227,2.227,0,0,1-.414-.051Zm.212.793.242.018c.285.021.461-.1.475-.283s-.163-.322-.433-.342a1.336,1.336,0,0,0-.238-.018Zm-.067.909a1.678,1.678,0,0,0,.222.017c.277.021.541-.052.562-.329s-.219-.383-.508-.4l-.221-.017-.054.725Z" transform="translate(-2915.739 -3485.933)" fill="#237598"/>
          <path id="Path_1048" data-name="Path 1048" d="M2961.96,3501.171l.285.021-.125,1.686.887.066-.015.2-1.157-.086Z" transform="translate(-2917.747 -3486.075)" fill="#237598"/>
          <path id="Path_1049" data-name="Path 1049" d="M2967.062,3501.552l-.141,1.891-.269-.02.141-1.89Z" transform="translate(-2919.601 -3486.214)" fill="#237598"/>
          <path id="Path_1050" data-name="Path 1050" d="M2971.749,3503.754a1.491,1.491,0,0,1-.553.047.928.928,0,0,1-.956-.9.88.88,0,0,1,.006-.139.99.99,0,0,1,1.052-.926.932.932,0,0,1,.1.013,1.231,1.231,0,0,1,.485.121l-.082.195a1.079,1.079,0,0,0-.39-.11.738.738,0,0,0-.843.618.664.664,0,0,0-.009.125.724.724,0,0,0,.619.814.682.682,0,0,0,.116.006,1.151,1.151,0,0,0,.442-.048Z" transform="translate(-2920.981 -3486.329)" fill="#237598"/>
          <path id="Path_1051" data-name="Path 1051" d="M2976.126,3502.227l-.141,1.891-.265-.021.141-1.89Z" transform="translate(-2923.091 -3486.474)" fill="#237598"/>
          <path id="Path_1052" data-name="Path 1052" d="M2979.846,3502.707l-.625-.047.016-.208,1.533.115-.016.208-.634-.047-.125,1.682-.269-.02.125-1.682Z" transform="translate(-2924.438 -3486.568)" fill="#237598"/>
          <path id="Path_1053" data-name="Path 1053" d="M2984.262,3504.166l-.267.581-.277-.021.846-1.838.321.023.568,1.944-.269-.02-.177-.614Zm.7-.138-.161-.568c-.038-.127-.058-.242-.081-.353h0c-.04.11-.08.224-.129.333l-.243.534Z" transform="translate(-2926.169 -3486.736)" fill="#237598"/>
          <path id="Path_1054" data-name="Path 1054" d="M2989.672,3503.267a3.162,3.162,0,0,1,.513,0,.9.9,0,0,1,.59.2.456.456,0,0,1,.136.373.508.508,0,0,1-.432.451h0a.488.488,0,0,1,.275.423,2.939,2.939,0,0,0,.12.533l-.285-.022a2.486,2.486,0,0,1-.1-.462c-.044-.265-.147-.373-.388-.4l-.242-.018-.061.821-.266-.021Zm.2.881.273.021c.285.021.479-.109.495-.326s-.168-.363-.449-.388a1.142,1.142,0,0,0-.268,0Z" transform="translate(-2928.407 -3486.877)" fill="#237598"/>
          <path id="Path_1055" data-name="Path 1055" d="M2995.092,3503.639l-.141,1.891-.265-.021.141-1.89Z" transform="translate(-2930.391 -3487.017)" fill="#237598"/>
          <path id="Path_1056" data-name="Path 1056" d="M2998.661,3505.238l-.259.581-.277-.021.846-1.838.321.024.569,1.943-.29-.021-.177-.613Zm.7-.138-.161-.567a3.074,3.074,0,0,1-.082-.353h0a3.407,3.407,0,0,1-.128.333l-.243.534Z" transform="translate(-2931.715 -3487.148)" fill="#237598"/>
          <path id="Path_1057" data-name="Path 1057" d="M3003.828,3505.9a1.073,1.073,0,0,0,.471.156c.273.02.442-.1.455-.289s-.086-.288-.368-.406c-.333-.134-.526-.309-.507-.577s.3-.493.708-.464a1.046,1.046,0,0,1,.452.126l-.09.191a.91.91,0,0,0-.389-.118c-.286-.021-.408.127-.417.255s.107.274.368.394c.34.15.507.315.486.6s-.274.528-.766.491a1.133,1.133,0,0,1-.518-.164Z" transform="translate(-2933.866 -3487.288)" fill="#237598"/>
        </g>
      </g>
      <g id="Group_421" data-name="Group 421" transform="translate(147.595 37.015)">
        <g id="Group_420" data-name="Group 420">
          <path id="Path_1058" data-name="Path 1058" d="M3067.33,3492.644l-1.318.5-.18-.48,3.208-1.211.181.48-1.324.5,1.472,3.9-.566.214Z" transform="translate(-3053.565 -3486.675)" fill="#237598"/>
          <path id="Path_1059" data-name="Path 1059" d="M3074.955,3492.095l-1.684.636.6,1.58,1.877-.709.178.473-2.436.92-1.653-4.379,2.332-.88.178.473-1.772.669.523,1.384,1.683-.635.177.468Z" transform="translate(-3055.875 -3486.015)" fill="#237598"/>
          <path id="Path_1060" data-name="Path 1060" d="M3080.824,3491.995l-.919-.76c-.365-.285-.6-.473-.826-.675l-.013,0c-.026.3-.061.58-.141,1.049l-.156,1.158-.643.242.5-2.719-2.1-1.68.648-.244.961.811c.274.223.474.4.678.591l.02-.008c.023-.307.057-.548.112-.888l.2-1.251.643-.243-.513,2.63,2.2,1.74Z" transform="translate(-3057.68 -3485.108)" fill="#237598"/>
          <path id="Path_1061" data-name="Path 1061" d="M3083.715,3486.46l-1.317.5-.182-.481,3.208-1.21.182.48-1.332.5,1.472,3.9-.567.214-1.472-3.9Z" transform="translate(-3059.871 -3484.294)" fill="#237598"/>
          <path id="Path_1062" data-name="Path 1062" d="M3088.778,3484.628l1.653,4.379-.555.209-1.653-4.379Z" transform="translate(-3062.184 -3484.049)" fill="#237598"/>
          <path id="Path_1063" data-name="Path 1063" d="M3090.712,3483.9l.559-.211,1.475,3.907,1.85-.7.179.473-2.41.909-1.653-4.379Z" transform="translate(-3063.141 -3483.686)" fill="#237598"/>
          <path id="Path_1064" data-name="Path 1064" d="M3045.888,3500.4l2.332-.88.182.479-1.776.671.549,1.455,1.639-.618.177.468-1.639.619.747,1.977-.557.21Z" transform="translate(-3045.888 -3489.779)" fill="#237598"/>
          <path id="Path_1065" data-name="Path 1065" d="M3051.533,3498.062l.979,2.594c.371.982.958,1.233,1.536,1.015.643-.242.893-.826.528-1.794l-.979-2.594.566-.213.964,2.555c.508,1.347.015,2.163-.922,2.517-.887.334-1.75.073-2.262-1.286l-.975-2.58Z" transform="translate(-3047.843 -3488.837)" fill="#237598"/>
          <path id="Path_1066" data-name="Path 1066" d="M3057.738,3496.342l.56-.211,1.474,3.907,1.853-.7.178.473-2.412.91Z" transform="translate(-3050.449 -3488.476)" fill="#237598"/>
          <path id="Path_1067" data-name="Path 1067" d="M3062.672,3494.48l.559-.211,1.475,3.907,1.851-.7.178.473-2.41.91-1.653-4.379Z" transform="translate(-3052.349 -3487.76)" fill="#237598"/>
          <path id="Path_1068" data-name="Path 1068" d="M3049.354,3509.542a.462.462,0,0,0,.221-.026c.115-.043.16-.124.131-.2s-.091-.1-.226-.1c-.161.009-.273-.026-.315-.139s.03-.257.2-.322a.446.446,0,0,1,.206-.034v.094a.414.414,0,0,0-.18.026c-.119.045-.142.128-.122.182s.094.092.225.091c.166,0,.265.033.31.15s-.013.267-.218.344a.506.506,0,0,1-.226.026Z" transform="translate(-3047.145 -3493.323)" fill="#237598"/>
          <path id="Path_1069" data-name="Path 1069" d="M3052.106,3508.164a.416.416,0,0,1-.2.552.292.292,0,0,1-.042.017.4.4,0,0,1-.531-.211c-.006-.015-.012-.03-.017-.046a.42.42,0,0,1,.208-.555l.038-.015a.4.4,0,0,1,.529.21A.342.342,0,0,1,3052.106,3508.164Zm-.672.267a.3.3,0,1,0,.589-.123.316.316,0,0,0-.033-.087.3.3,0,1,0-.586.134.319.319,0,0,0,.034.086Z" transform="translate(-3047.963 -3492.996)" fill="#237598"/>
          <path id="Path_1070" data-name="Path 1070" d="M3053.667,3507.2l.113-.043.268.709.371-.14.033.086-.485.183Z" transform="translate(-3048.882 -3492.721)" fill="#237598"/>
          <path id="Path_1071" data-name="Path 1071" d="M3055.738,3506.3l.177.47c.068.178.181.222.3.178s.184-.158.117-.334l-.177-.47.113-.043.175.464a.327.327,0,0,1-.13.443.322.322,0,0,1-.072.028.313.313,0,0,1-.44-.219l-.178-.471Z" transform="translate(-3049.634 -3492.312)" fill="#237598"/>
          <path id="Path_1072" data-name="Path 1072" d="M3058.979,3505.988a.662.662,0,0,1-.216.124.416.416,0,0,1-.555-.2.449.449,0,0,1-.02-.049.443.443,0,0,1,.252-.574l.045-.015a.566.566,0,0,1,.22-.042l0,.094a.487.487,0,0,0-.189.033.33.33,0,0,0-.226.41.334.334,0,0,0,.02.053.324.324,0,0,0,.405.214.328.328,0,0,0,.049-.02.517.517,0,0,0,.17-.1Z" transform="translate(-3050.611 -3491.98)" fill="#237598"/>
          <path id="Path_1073" data-name="Path 1073" d="M3060.408,3504.659l.3.8-.111.042-.3-.795Z" transform="translate(-3051.434 -3491.759)" fill="#237598"/>
          <path id="Path_1074" data-name="Path 1074" d="M3062.77,3504.138a.415.415,0,0,1-.2.552.458.458,0,0,1-.047.018.4.4,0,0,1-.531-.212.377.377,0,0,1-.016-.045.42.42,0,0,1,.208-.556l.039-.015a.4.4,0,0,1,.53.208A.361.361,0,0,1,3062.77,3504.138Zm-.672.267a.3.3,0,0,0,.358.236.3.3,0,0,0,.231-.359.294.294,0,0,0-.032-.087.3.3,0,1,0-.553.219Z" transform="translate(-3052.066 -3491.446)" fill="#237598"/>
          <path id="Path_1075" data-name="Path 1075" d="M3064.634,3503.84l-.3-.795.123-.047.439.292a2.1,2.1,0,0,1,.252.2h0c-.05-.1-.089-.2-.137-.322l-.127-.337.107-.04.3.795-.114.043-.429-.3a2.324,2.324,0,0,1-.266-.2h0l.127.336.127.337Z" transform="translate(-3052.988 -3491.04)" fill="#237598"/>
          <path id="Path_1076" data-name="Path 1076" d="M3067.371,3502.427l-.333.125.109.288.378-.143.032.086-.5.189-.3-.8.471-.178.033.086-.358.135.095.251.333-.125.032.084Z" transform="translate(-3053.92 -3490.735)" fill="#237598"/>
          <path id="Path_1077" data-name="Path 1077" d="M3069.1,3502.089a.473.473,0,0,0,.221-.025c.115-.043.161-.124.131-.2s-.092-.1-.227-.1-.272-.026-.315-.139a.269.269,0,0,1,.2-.322.45.45,0,0,1,.208-.035v.094a.413.413,0,0,0-.181.026c-.118.044-.142.129-.122.183s.095.091.224.09c.168,0,.268.031.312.15s-.013.267-.218.344a.518.518,0,0,1-.243.032Z" transform="translate(-3054.745 -3490.454)" fill="#237598"/>
          <path id="Path_1078" data-name="Path 1078" d="M3072.416,3500.085a1.526,1.526,0,0,1,.211-.1.394.394,0,0,1,.269-.024.214.214,0,0,1,.14.139.24.24,0,0,1,0,.194.4.4,0,0,1-.234.188.536.536,0,0,1-.092.035l.12.319-.111.042Zm.255.352a.49.49,0,0,0,.094-.035c.136-.052.2-.143.155-.25s-.138-.125-.263-.078a.491.491,0,0,0-.1.04l.122.323Z" transform="translate(-3056.099 -3489.947)" fill="#237598"/>
          <path id="Path_1079" data-name="Path 1079" d="M3074.678,3499.147l.177.47c.067.178.182.221.3.178s.183-.157.116-.334l-.177-.47.113-.043.175.463a.328.328,0,0,1-.131.443.324.324,0,0,1-.072.029.312.312,0,0,1-.439-.22l-.178-.471Z" transform="translate(-3056.925 -3489.561)" fill="#237598"/>
          <path id="Path_1080" data-name="Path 1080" d="M3076.983,3498.364a1.2,1.2,0,0,1,.2-.094.417.417,0,0,1,.262-.031.183.183,0,0,1,.126.112.211.211,0,0,1-.085.225h0a.226.226,0,0,1,.246.328.507.507,0,0,1-.274.188,1,1,0,0,1-.178.057Zm.235.282.1-.038c.119-.045.168-.127.139-.2s-.127-.1-.24-.057a.649.649,0,0,0-.1.038Zm.145.383a.844.844,0,0,0,.094-.035c.116-.044.21-.124.166-.24s-.161-.115-.283-.068l-.093.035.115.3Z" transform="translate(-3057.857 -3489.284)" fill="#237598"/>
          <path id="Path_1081" data-name="Path 1081" d="M3079.159,3497.58l.12-.045.268.708.373-.14.032.085-.486.184Z" transform="translate(-3058.694 -3489.017)" fill="#237598"/>
          <path id="Path_1082" data-name="Path 1082" d="M3081.309,3496.77l.3.8-.113.042-.3-.795Z" transform="translate(-3059.478 -3488.722)" fill="#237598"/>
          <path id="Path_1083" data-name="Path 1083" d="M3083.686,3496.663a.657.657,0,0,1-.216.124.416.416,0,0,1-.559-.186.492.492,0,0,1-.024-.057.444.444,0,0,1,.253-.575l.044-.015a.559.559,0,0,1,.22-.042l0,.095a.462.462,0,0,0-.179.03.33.33,0,0,0-.226.41.314.314,0,0,0,.02.053.324.324,0,0,0,.405.214.287.287,0,0,0,.048-.02.514.514,0,0,0,.17-.1Z" transform="translate(-3060.118 -3488.392)" fill="#237598"/>
          <path id="Path_1084" data-name="Path 1084" d="M3085.12,3495.332l.3.8-.111.042-.3-.795Z" transform="translate(-3060.946 -3488.169)" fill="#237598"/>
          <path id="Path_1085" data-name="Path 1085" d="M3086.691,3494.713l-.263.1-.032-.088.644-.243.033.088-.266.1.267.707-.113.043-.267-.708Z" transform="translate(-3061.48 -3487.842)" fill="#237598"/>
          <path id="Path_1086" data-name="Path 1086" d="M3088.972,3494.494l0,.286-.117.045,0-.907.135-.051.6.682-.113.043-.188-.216Zm.256-.187-.172-.2c-.04-.045-.069-.087-.1-.128h0c0,.052.009.106.01.16l0,.263Z" transform="translate(-3062.426 -3487.604)" fill="#237598"/>
          <path id="Path_1087" data-name="Path 1087" d="M3090.823,3493.137a1.4,1.4,0,0,1,.208-.1.4.4,0,0,1,.278-.03.205.205,0,0,1,.126.125.228.228,0,0,1-.091.265h0a.219.219,0,0,1,.192.12,1.285,1.285,0,0,0,.149.194l-.12.045a1.09,1.09,0,0,1-.129-.169.176.176,0,0,0-.233-.089l-.1.038.131.346-.112.042Zm.248.32.115-.043c.12-.046.174-.135.14-.226s-.137-.116-.256-.073a.529.529,0,0,0-.108.052Z" transform="translate(-3063.184 -3487.27)" fill="#237598"/>
          <path id="Path_1088" data-name="Path 1088" d="M3093.094,3492.322l.3.8-.111.042-.3-.794Z" transform="translate(-3064.016 -3487.01)" fill="#237598"/>
          <path id="Path_1089" data-name="Path 1089" d="M3095.026,3492.209l0,.285-.116.044,0-.907.135-.051.6.683-.122.046-.188-.216Zm.257-.187-.173-.2a1.405,1.405,0,0,1-.1-.128h0c.006.052.009.106.01.159l0,.263Z" transform="translate(-3064.758 -3486.725)" fill="#237598"/>
          <path id="Path_1090" data-name="Path 1090" d="M3097.126,3491.511a.472.472,0,0,0,.22-.025c.115-.044.161-.124.131-.2s-.09-.1-.226-.1c-.161.009-.273-.026-.315-.139a.268.268,0,0,1,.2-.322.475.475,0,0,1,.208-.034v.095a.408.408,0,0,0-.18.026c-.12.045-.142.128-.122.183s.1.091.225.09c.166,0,.266.033.31.15s-.012.266-.219.344a.51.51,0,0,1-.241.031Z" transform="translate(-3065.533 -3486.382)" fill="#237598"/>
        </g>
      </g>
    </g>
    <g id="Group_432" data-name="Group 432" transform="translate(2887.416 3402.971)">
      <g id="Group_427" data-name="Group 427" transform="translate(0)">
        <g id="Group_426" data-name="Group 426" transform="translate(3.165)">
          <g id="Group_425" data-name="Group 425">
            <g id="Group_424" data-name="Group 424">
              <g id="Group_423" data-name="Group 423">
                <path id="Path_1091" data-name="Path 1091" d="M3470.029,3541.738s-7.343-36.093-20.748-48.219c0,0,6.175-7.321,11.584-5.146,0,0,3.665,1.157,5.407,7.39Z" transform="translate(-3266.094 -3435.688)" fill="#fff"/>
                <path id="Path_1092" data-name="Path 1092" d="M3290.578,3501.987s-12.8,23.944-10.6,33.74l-1.831,1.1h-1.19s-4.043-34.547-9.073-38.061C3267.882,3498.768,3281.64,3498.441,3290.578,3501.987Z" transform="translate(-3196.27 -3439.841)" fill="#fff"/>
                <path id="Path_1093" data-name="Path 1093" d="M3287.036,3556.393c0,2.4-3.222,4.355-7.2,4.355s-7.2-1.951-7.2-4.355,3.222-4.358,7.2-4.358S3287.036,3553.984,3287.036,3556.393Z" transform="translate(-3198.104 -3460.348)" fill="#fff"/>
                <path id="Path_1094" data-name="Path 1094" d="M3480.793,3570.339" transform="translate(-3278.223 -3467.394)" fill="#fff"/>
                <path id="Path_1095" data-name="Path 1095" d="M3380.508,3652" transform="translate(-3239.622 -3498.826)" fill="#fff"/>
                <path id="Path_1096" data-name="Path 1096" d="M3304.781,3556.787" transform="translate(-3210.473 -3462.177)" fill="#fff"/>
                <path id="Path_1097" data-name="Path 1097" d="M3163.821,3611.766" transform="translate(-3156.215 -3483.34)" fill="#fff"/>
                <path id="Path_1098" data-name="Path 1098" d="M3160.678,3528.443s-8.607-62.972,12.82-80.725c0,0,43.038-28.74,85.342-43.2,0,0,5.312-3.478,16.849,0,0,0,58.6,24.9,63.915,29.656,0,0,19.412,9.519,21.061,36.243v.734l-1.1,37.892h-1.282L3354.438,3462s-6.593-22.333-28.57,15.009c0,0-16.115,52.171-12.635,71.575l-2.93,2.563h-2.382s-1.648-42.468-23.625-61.506c0,0-32.782-44.117-87.539-21.051,0,0-34.431,14.825-33.514,57.293Z" transform="translate(-3154.348 -3402.97)" fill="#fff" stroke="#cecece" stroke-miterlimit="10" stroke-width="1"/>
                <path id="Path_1099" data-name="Path 1099" d="M3381.84,3547.139V3469.9s-4.443-16.2-10.552-22.964l-21.84-33.466s-5.921-5.726-7.958-6.779" transform="translate(-3224.603 -3404.404)" fill="none" stroke="#cecece" stroke-miterlimit="10" stroke-width="3"/>
                <path id="Path_1100" data-name="Path 1100" d="M3337.141,3404.573c0,.629-3.193,1.14-7.131,1.14s-7.128-.511-7.128-1.14,3.191-1.139,7.128-1.139S3337.141,3403.945,3337.141,3404.573Z" transform="translate(-3217.441 -3403.149)" fill="none" stroke="#cecece" stroke-miterlimit="10" stroke-width="3"/>
                <path id="Path_1101" data-name="Path 1101" d="M3165.848,3600.282c0,2.817-3.222,5.1-7.2,5.1s-7.2-2.283-7.2-5.1,3.221-5.1,7.2-5.1S3165.848,3597.464,3165.848,3600.282Z" transform="translate(-3151.456 -3476.955)" fill="#fff"/>
                <path id="Path_1102" data-name="Path 1102" d="M3406.625,3639.317c0,2.4-3.22,4.355-7.194,4.355s-7.2-1.95-7.2-4.355,3.222-4.358,7.2-4.358S3406.625,3636.907,3406.625,3639.317Z" transform="translate(-3244.135 -3492.267)" fill="#fff"/>
                <path id="Path_1103" data-name="Path 1103" d="M3485.705,3570.827c0,2.407-3.222,4.358-7.2,4.358s-7.2-1.95-7.2-4.358,3.222-4.355,7.2-4.355S3485.705,3568.421,3485.705,3570.827Z" transform="translate(-3274.574 -3465.905)" fill="#fff"/>
              </g>
            </g>
          </g>
        </g>
        <line id="Line_10" data-name="Line 10" x2="123.601" y2="20.407" transform="translate(20.406 126.591)" fill="#fff"/>
        <line id="Line_11" data-name="Line 11" y1="31.256" x2="30.739" transform="translate(169.193 109.284)" fill="#fff"/>
        <line id="Line_12" data-name="Line 12" y1="123.085" transform="translate(0 0.277)" fill="#fff"/>
      </g>
      <g id="Group_429" data-name="Group 429" transform="translate(56.463 35.61)">
        <g id="Group_428" data-name="Group 428">
          <path id="Path_1104" data-name="Path 1104" d="M3294.621,3466.212l-3.415-.254.093-1.244,8.315.619-.092,1.244-3.432-.255-.753,10.111-1.468-.11Z" transform="translate(-3258.546 -3462.346)" fill="#237598"/>
          <path id="Path_1105" data-name="Path 1105" d="M3311.739,3472.362l-4.365-.325-.305,4.095,4.866.362-.092,1.227-6.315-.47.845-11.35,6.044.45-.092,1.227-4.594-.342-.267,3.588,4.365.325-.091,1.214Z" transform="translate(-3264.059 -3462.803)" fill="#237598"/>
          <path id="Path_1106" data-name="Path 1106" d="M3324.476,3478.643l-1.247-2.616c-.511-1-.832-1.655-1.128-2.336l-.034,0c-.364.631-.729,1.214-1.386,2.166l-1.532,2.393-1.667-.124,3.882-5.488-2.907-5.858,1.68.125,1.287,2.773c.376.774.637,1.364.889,2l.052,0c.365-.653.689-1.151,1.158-1.845l1.731-2.549,1.666.124-3.826,5.273,3.063,6.088Z" transform="translate(-3268.66 -3463.141)" fill="#237598"/>
          <path id="Path_1107" data-name="Path 1107" d="M3337.092,3469.374l-3.415-.254.093-1.244,8.315.619-.092,1.244-3.454-.257-.753,10.111-1.468-.109.752-10.111Z" transform="translate(-3274.893 -3463.563)" fill="#237598"/>
          <path id="Path_1108" data-name="Path 1108" d="M3350.3,3469.142l-.845,11.351-1.437-.108.845-11.35Z" transform="translate(-3280.415 -3464.01)" fill="#237598"/>
          <path id="Path_1109" data-name="Path 1109" d="M3355.317,3469.515l1.451.108-.754,10.128,4.8.357-.092,1.227-6.247-.465.845-11.351Z" transform="translate(-3282.898 -3464.194)" fill="#237598"/>
          <path id="Path_1110" data-name="Path 1110" d="M3239.134,3460.865l6.044.45-.093,1.245-4.6-.343-.281,3.772,4.248.316-.09,1.214-4.248-.316-.381,5.126-1.443-.108Z" transform="translate(-3238.177 -3460.865)" fill="#237598"/>
          <path id="Path_1111" data-name="Path 1111" d="M3253.964,3461.955l-.5,6.723c-.189,2.545.849,3.7,2.346,3.813,1.667.124,2.816-.906,3-3.416l.5-6.723,1.468.109-.493,6.623c-.26,3.492-2.184,4.785-4.614,4.6-2.3-.172-3.933-1.632-3.671-5.155l.5-6.688Z" transform="translate(-3243.446 -3461.242)" fill="#237598"/>
          <path id="Path_1112" data-name="Path 1112" d="M3269.848,3463.152l1.451.107-.754,10.129,4.8.357-.092,1.227-6.251-.465Z" transform="translate(-3249.999 -3461.745)" fill="#237598"/>
          <path id="Path_1113" data-name="Path 1113" d="M3282.637,3464.1l1.45.108-.754,10.128,4.8.357-.091,1.227-6.247-.465.845-11.351Z" transform="translate(-3254.922 -3462.112)" fill="#237598"/>
          <path id="Path_1114" data-name="Path 1114" d="M3238.193,3483.554a1.148,1.148,0,0,0,.512.17c.3.022.482-.109.5-.314s-.1-.314-.4-.442c-.363-.146-.574-.337-.552-.63s.331-.537.771-.5a1.094,1.094,0,0,1,.489.138l-.094.208a1,1,0,0,0-.424-.128c-.306-.023-.444.138-.455.277s.112.3.4.429c.37.164.552.344.529.649s-.3.574-.835.535a1.241,1.241,0,0,1-.525-.175Z" transform="translate(-3238.107 -3468.935)" fill="#237598"/>
          <path id="Path_1115" data-name="Path 1115" d="M3245.633,3483.378a1.011,1.011,0,0,1-1.01,1.012c-.038,0-.074,0-.111-.006a.982.982,0,0,1-.954-1.011.9.9,0,0,1,.01-.118,1.02,1.02,0,0,1,1.027-1.011c.033,0,.066,0,.1.006a.983.983,0,0,1,.94,1.128Zm-1.755-.1a.728.728,0,1,0,.011-.2.729.729,0,0,0-.013.225Z" transform="translate(-3240.205 -3469.094)" fill="#237598"/>
          <path id="Path_1116" data-name="Path 1116" d="M3250.278,3482.7l.294.022-.137,1.838.962.071-.016.223-1.256-.094Z" transform="translate(-3242.733 -3469.268)" fill="#237598"/>
          <path id="Path_1117" data-name="Path 1117" d="M3255.673,3483.094l-.091,1.218c-.034.463.171.676.473.7s.568-.159.6-.618l.09-1.218.294.022-.089,1.2a.794.794,0,0,1-.741.842.75.75,0,0,1-.189-.012.766.766,0,0,1-.747-.933l.091-1.222Z" transform="translate(-3244.708 -3469.413)" fill="#237598"/>
          <path id="Path_1118" data-name="Path 1118" d="M3262.993,3485.662a1.591,1.591,0,0,1-.6.052,1.017,1.017,0,0,1-1.014-1.134,1.079,1.079,0,0,1,1.146-1.009.934.934,0,0,1,.113.014,1.347,1.347,0,0,1,.529.131l-.086.213a1.18,1.18,0,0,0-.451-.121.8.8,0,0,0-.918.672.833.833,0,0,0-.01.137.79.79,0,0,0,.675.888.81.81,0,0,0,.126.006,1.245,1.245,0,0,0,.481-.052Z" transform="translate(-3247.061 -3469.604)" fill="#237598"/>
          <path id="Path_1119" data-name="Path 1119" d="M3267.75,3484l-.153,2.061-.29-.021.154-2.061Z" transform="translate(-3249.346 -3469.76)" fill="#237598"/>
          <path id="Path_1120" data-name="Path 1120" d="M3273.276,3485.436a1.013,1.013,0,0,1-1.01,1.012,1.1,1.1,0,0,1-.121-.008.983.983,0,0,1-.954-1.011,1.176,1.176,0,0,1,1.038-1.128,1.018,1.018,0,0,1,.1.007.978.978,0,0,1,.955,1A1.043,1.043,0,0,1,3273.276,3485.436Zm-1.756-.1a.732.732,0,1,0,1.425.334.75.75,0,0,0,.017-.226.732.732,0,1,0-1.431-.307.758.758,0,0,0-.013.225Z" transform="translate(-3250.842 -3469.886)" fill="#237598"/>
          <path id="Path_1121" data-name="Path 1121" d="M3277.772,3486.814l.154-2.061.319.023.67,1.095a5.156,5.156,0,0,1,.352.7h0c-.006-.277,0-.526.028-.849l.065-.873.276.02-.154,2.061-.293-.022-.638-1.1a5.7,5.7,0,0,1-.381-.718h0l-.065.873-.064.874Z" transform="translate(-3253.375 -3470.06)" fill="#237598"/>
          <path id="Path_1122" data-name="Path 1122" d="M3285.3,3486.4l-.864-.064-.055.746.98.073-.017.222-1.3-.1.154-2.061,1.221.091-.017.223-.928-.069-.048.65.864.065-.016.218Z" transform="translate(-3255.792 -3470.24)" fill="#237598"/>
          <path id="Path_1123" data-name="Path 1123" d="M3289.353,3487.365a1.137,1.137,0,0,0,.512.17c.3.022.482-.109.5-.314s-.1-.314-.4-.442-.574-.337-.552-.629a.652.652,0,0,1,.771-.5,1.089,1.089,0,0,1,.493.138l-.093.208a1.007,1.007,0,0,0-.425-.128c-.306-.024-.444.138-.454.277s.116.3.4.429c.375.164.556.344.533.65s-.3.574-.834.535a1.251,1.251,0,0,1-.568-.178Z" transform="translate(-3257.786 -3470.402)" fill="#237598"/>
          <path id="Path_1124" data-name="Path 1124" d="M3298.861,3486.342a3.568,3.568,0,0,1,.564,0,.952.952,0,0,1,.617.221.52.52,0,0,1,.166.451.582.582,0,0,1-.2.424.977.977,0,0,1-.708.175,1.269,1.269,0,0,1-.237-.018l-.062.825-.289-.021Zm.2,1.037a1.159,1.159,0,0,0,.242.018c.354.027.577-.115.6-.394s-.177-.417-.5-.441a1.178,1.178,0,0,0-.272-.021l-.062.838Z" transform="translate(-3261.433 -3470.668)" fill="#237598"/>
          <path id="Path_1125" data-name="Path 1125" d="M3304.775,3486.75l-.091,1.218c-.034.462.175.676.478.7s.563-.16.6-.618l.09-1.218.294.021-.09,1.2a.8.8,0,0,1-.741.842.777.777,0,0,1-.189-.011.758.758,0,0,1-.742-.933l.091-1.223Z" transform="translate(-3263.615 -3470.82)" fill="#237598"/>
          <path id="Path_1126" data-name="Path 1126" d="M3310.7,3487.227a2.909,2.909,0,0,1,.534,0,1,1,0,0,1,.611.2.438.438,0,0,1,.163.376.51.51,0,0,1-.417.408h0a.549.549,0,0,1,.206.977,1.234,1.234,0,0,1-.8.134,2.513,2.513,0,0,1-.451-.056Zm.231.864.263.02c.311.023.5-.108.518-.308s-.178-.351-.471-.374a1.459,1.459,0,0,0-.259-.019Zm-.074.991a1.743,1.743,0,0,0,.242.018c.3.022.59-.057.612-.358s-.238-.417-.553-.44l-.242-.018-.059.79Z" transform="translate(-3265.989 -3471.006)" fill="#237598"/>
          <path id="Path_1127" data-name="Path 1127" d="M3316.365,3487.614l.311.023-.137,1.838.967.072-.017.222-1.26-.093Z" transform="translate(-3268.177 -3471.161)" fill="#237598"/>
          <path id="Path_1128" data-name="Path 1128" d="M3321.926,3488.029l-.154,2.061-.294-.022.153-2.061Z" transform="translate(-3270.198 -3471.313)" fill="#237598"/>
          <path id="Path_1129" data-name="Path 1129" d="M3327.034,3490.43a1.62,1.62,0,0,1-.6.052,1.012,1.012,0,0,1-1.042-.984,1.132,1.132,0,0,1,1.152-1.16,1.032,1.032,0,0,1,.113.014,1.349,1.349,0,0,1,.528.132l-.089.213a1.153,1.153,0,0,0-.426-.12.8.8,0,0,0-.918.672.885.885,0,0,0-.01.136.785.785,0,0,0,.8.895,1.257,1.257,0,0,0,.482-.052Z" transform="translate(-3271.703 -3471.438)" fill="#237598"/>
          <path id="Path_1130" data-name="Path 1130" d="M3331.8,3488.765l-.153,2.061-.289-.021.153-2.061Z" transform="translate(-3274.002 -3471.595)" fill="#237598"/>
          <path id="Path_1131" data-name="Path 1131" d="M3335.859,3489.288l-.682-.051.017-.227,1.671.124-.016.227-.691-.052-.136,1.833-.294-.021.136-1.834Z" transform="translate(-3275.471 -3471.699)" fill="#237598"/>
          <path id="Path_1132" data-name="Path 1132" d="M3340.671,3490.879l-.29.632-.3-.023.922-2,.349.027.619,2.118-.293-.021-.193-.668Zm.758-.15-.175-.619c-.042-.14-.063-.264-.089-.384h0c-.044.12-.087.243-.139.363l-.265.582Z" transform="translate(-3277.358 -3471.881)" fill="#237598"/>
          <path id="Path_1133" data-name="Path 1133" d="M3346.568,3489.9a3.491,3.491,0,0,1,.56,0,.982.982,0,0,1,.644.219.5.5,0,0,1,.148.406.555.555,0,0,1-.471.492h0a.534.534,0,0,1,.3.461,3.192,3.192,0,0,0,.13.581l-.311-.023a2.667,2.667,0,0,1-.11-.5c-.048-.289-.161-.407-.424-.436l-.263-.02-.067.9-.289-.021Zm.22.96.3.022c.311.023.521-.119.539-.354s-.183-.4-.49-.424a1.248,1.248,0,0,0-.291.005Z" transform="translate(-3279.797 -3472.036)" fill="#237598"/>
          <path id="Path_1134" data-name="Path 1134" d="M3352.475,3490.3l-.153,2.061-.29-.021.154-2.061Z" transform="translate(-3281.958 -3472.188)" fill="#237598"/>
          <path id="Path_1135" data-name="Path 1135" d="M3356.364,3492.047l-.281.634-.3-.023.922-2,.35.026.619,2.118-.315-.023-.193-.669Zm.758-.15-.175-.619a3.327,3.327,0,0,1-.089-.385h0c-.039.12-.087.244-.139.363l-.264.582Z" transform="translate(-3283.401 -3472.331)" fill="#237598"/>
          <path id="Path_1136" data-name="Path 1136" d="M3362,3492.773a1.167,1.167,0,0,0,.513.169c.3.022.481-.109.5-.314s-.094-.314-.4-.443c-.362-.145-.574-.336-.552-.629s.331-.537.771-.5a1.129,1.129,0,0,1,.493.138l-.1.208a.992.992,0,0,0-.425-.128c-.311-.023-.444.138-.455.278s.117.3.4.429c.37.163.552.344.529.65s-.3.575-.834.535a1.246,1.246,0,0,1-.564-.178Z" transform="translate(-3285.746 -3472.483)" fill="#237598"/>
        </g>
      </g>
      <g id="Group_431" data-name="Group 431" transform="translate(160.861 40.342)">
        <g id="Group_430" data-name="Group 430">
          <path id="Path_1137" data-name="Path 1137" d="M3431.206,3478.322l-1.436.542-.2-.524,3.5-1.319.2.523-1.443.545,1.6,4.251-.617.232Z" transform="translate(-3416.203 -3471.816)" fill="#237598"/>
          <path id="Path_1138" data-name="Path 1138" d="M3439.516,3477.722l-1.835.693.65,1.722,2.046-.772.194.515-2.655,1-1.8-4.772,2.542-.959.195.516-1.932.729.57,1.509,1.836-.692.192.51Z" transform="translate(-3418.721 -3471.096)" fill="#237598"/>
          <path id="Path_1139" data-name="Path 1139" d="M3445.912,3477.613l-1-.828c-.4-.312-.651-.516-.9-.736l-.015.005c-.029.325-.067.632-.154,1.142l-.17,1.261-.7.264.541-2.963-2.288-1.831.706-.267,1.048.884c.3.243.516.434.739.644l.022-.008c.025-.335.063-.6.122-.969l.222-1.363.7-.264-.559,2.866,2.4,1.895Z" transform="translate(-3420.688 -3470.108)" fill="#237598"/>
          <path id="Path_1140" data-name="Path 1140" d="M3449.064,3471.581l-1.436.542-.2-.523,3.5-1.319.2.523-1.452.548,1.6,4.251-.617.233-1.6-4.251Z" transform="translate(-3423.077 -3469.221)" fill="#237598"/>
          <path id="Path_1141" data-name="Path 1141" d="M3454.581,3469.585l1.8,4.772-.6.229-1.8-4.773Z" transform="translate(-3425.597 -3468.953)" fill="#237598"/>
          <path id="Path_1142" data-name="Path 1142" d="M3456.689,3468.788l.61-.23,1.608,4.258,2.016-.761.2.516-2.627.991-1.8-4.772Z" transform="translate(-3426.641 -3468.558)" fill="#237598"/>
          <path id="Path_1143" data-name="Path 1143" d="M3407.837,3486.77l2.542-.959.2.523-1.935.73.6,1.586,1.787-.674.192.51-1.786.674.813,2.155-.606.229Z" transform="translate(-3407.837 -3475.199)" fill="#237598"/>
          <path id="Path_1144" data-name="Path 1144" d="M3413.989,3484.226l1.067,2.826c.4,1.07,1.045,1.344,1.675,1.106.7-.265.973-.9.575-1.956l-1.067-2.827.617-.232,1.051,2.784c.554,1.468.016,2.357-1.006,2.743-.967.365-1.906.081-2.466-1.4l-1.061-2.812Z" transform="translate(-3409.968 -3474.172)" fill="#237598"/>
          <path id="Path_1145" data-name="Path 1145" d="M3420.751,3482.351l.61-.23,1.607,4.259,2.019-.762.195.516-2.629.993Z" transform="translate(-3412.808 -3473.779)" fill="#237598"/>
          <path id="Path_1146" data-name="Path 1146" d="M3426.129,3480.322l.61-.23,1.607,4.258,2.017-.761.195.516-2.627.992-1.8-4.772Z" transform="translate(-3414.878 -3472.997)" fill="#237598"/>
          <path id="Path_1147" data-name="Path 1147" d="M3411.614,3496.738a.508.508,0,0,0,.241-.028c.125-.046.175-.135.143-.221s-.1-.109-.247-.1c-.176.009-.3-.028-.344-.151a.292.292,0,0,1,.218-.351.49.49,0,0,1,.224-.037v.1a.448.448,0,0,0-.2.028c-.128.049-.154.14-.132.2s.1.1.245.1c.181,0,.289.036.338.164s-.015.291-.238.375a.559.559,0,0,1-.247.029Z" transform="translate(-3409.206 -3479.061)" fill="#237598"/>
          <path id="Path_1148" data-name="Path 1148" d="M3414.613,3495.235a.453.453,0,0,1-.219.6.447.447,0,0,1-.047.018.44.44,0,0,1-.579-.231c-.007-.016-.013-.033-.019-.049a.458.458,0,0,1,.227-.605l.041-.016a.439.439,0,0,1,.577.229A.33.33,0,0,1,3414.613,3495.235Zm-.732.291a.328.328,0,1,0,.642-.133.339.339,0,0,0-.036-.1.332.332,0,0,0-.4-.25.329.329,0,0,0-.245.4.339.339,0,0,0,.037.094Z" transform="translate(-3410.098 -3478.704)" fill="#237598"/>
          <path id="Path_1149" data-name="Path 1149" d="M3416.315,3494.188l.124-.046.292.772.4-.153.035.094-.528.2Z" transform="translate(-3411.1 -3478.406)" fill="#237598"/>
          <path id="Path_1150" data-name="Path 1150" d="M3418.572,3493.2l.194.512c.073.194.2.242.324.194s.2-.172.127-.365l-.193-.512.124-.047.191.5a.357.357,0,0,1-.142.482.37.37,0,0,1-.079.031.341.341,0,0,1-.454-.164.374.374,0,0,1-.026-.075l-.194-.514Z" transform="translate(-3411.919 -3477.959)" fill="#237598"/>
          <path id="Path_1151" data-name="Path 1151" d="M3422.1,3492.864a.713.713,0,0,1-.235.135.454.454,0,0,1-.6-.217.383.383,0,0,1-.022-.053.483.483,0,0,1,.275-.626c.016-.006.032-.011.049-.016a.6.6,0,0,1,.24-.046l.005.1a.52.52,0,0,0-.207.036.36.36,0,0,0-.246.447.4.4,0,0,0,.021.058.355.355,0,0,0,.442.233.311.311,0,0,0,.053-.022.568.568,0,0,0,.186-.112Z" transform="translate(-3412.985 -3477.597)" fill="#237598"/>
          <path id="Path_1152" data-name="Path 1152" d="M3423.661,3491.416l.327.866-.122.045-.327-.866Z" transform="translate(-3413.881 -3477.356)" fill="#237598"/>
          <path id="Path_1153" data-name="Path 1153" d="M3426.237,3490.847a.454.454,0,0,1-.219.6.377.377,0,0,1-.05.02.44.44,0,0,1-.579-.23c-.007-.016-.013-.033-.019-.049a.458.458,0,0,1,.227-.605l.042-.017a.438.438,0,0,1,.578.227A.5.5,0,0,1,3426.237,3490.847Zm-.732.291a.328.328,0,1,0,.642-.133.356.356,0,0,0-.036-.1.328.328,0,1,0-.6.24Z" transform="translate(-3414.57 -3477.015)" fill="#237598"/>
          <path id="Path_1154" data-name="Path 1154" d="M3428.267,3490.523l-.327-.866.134-.051.479.318a2.3,2.3,0,0,1,.275.217h0a3.671,3.671,0,0,1-.149-.35l-.139-.367.116-.044.327.866-.124.047-.467-.327a2.566,2.566,0,0,1-.29-.22h0l.138.367.139.367Z" transform="translate(-3415.575 -3476.573)" fill="#237598"/>
          <path id="Path_1155" data-name="Path 1155" d="M3431.25,3488.983l-.364.138.119.313.412-.156.035.094-.544.205-.327-.867.513-.193.036.093-.39.148.1.273.363-.137.035.092Z" transform="translate(-3416.592 -3476.241)" fill="#237598"/>
          <path id="Path_1156" data-name="Path 1156" d="M3433.135,3488.615a.5.5,0,0,0,.24-.027c.125-.048.175-.135.142-.221s-.1-.109-.247-.1-.3-.029-.343-.152a.293.293,0,0,1,.218-.351.5.5,0,0,1,.227-.037v.1a.443.443,0,0,0-.2.028c-.129.048-.155.14-.132.2s.1.1.244.1c.183,0,.291.035.34.164s-.015.291-.238.375a.561.561,0,0,1-.265.034Z" transform="translate(-3417.49 -3475.934)" fill="#237598"/>
          <path id="Path_1157" data-name="Path 1157" d="M3436.749,3486.43a1.555,1.555,0,0,1,.23-.105.429.429,0,0,1,.293-.027.234.234,0,0,1,.152.153.258.258,0,0,1,0,.21.443.443,0,0,1-.255.206.565.565,0,0,1-.1.037l.131.347-.122.046Zm.277.384a.549.549,0,0,0,.1-.038c.149-.056.213-.156.168-.273s-.151-.136-.287-.085a.558.558,0,0,0-.115.043l.133.353Z" transform="translate(-3418.966 -3475.381)" fill="#237598"/>
          <path id="Path_1158" data-name="Path 1158" d="M3439.214,3485.409l.194.512c.073.195.2.241.326.193s.2-.171.125-.364l-.193-.512.124-.047.191.5a.357.357,0,0,1-.142.482.324.324,0,0,1-.079.031.34.34,0,0,1-.478-.239l-.194-.514Z" transform="translate(-3419.865 -3474.961)" fill="#237598"/>
          <path id="Path_1159" data-name="Path 1159" d="M3441.726,3484.555a1.318,1.318,0,0,1,.216-.1.45.45,0,0,1,.286-.034.2.2,0,0,1,.138.122.231.231,0,0,1-.092.245h0a.246.246,0,0,1,.268.358.549.549,0,0,1-.3.205,1.174,1.174,0,0,1-.194.063Zm.257.308.111-.041c.131-.05.184-.139.153-.223s-.139-.109-.263-.063a.692.692,0,0,0-.109.041Zm.157.417a.81.81,0,0,0,.1-.038c.127-.048.229-.135.182-.261s-.176-.125-.308-.075l-.1.039.125.332Z" transform="translate(-3420.881 -3474.659)" fill="#237598"/>
          <path id="Path_1160" data-name="Path 1160" d="M3444.1,3483.7l.13-.05.292.773.407-.154.035.094-.53.2Z" transform="translate(-3421.794 -3474.367)" fill="#237598"/>
          <path id="Path_1161" data-name="Path 1161" d="M3446.441,3482.818l.327.867-.124.046-.327-.866Z" transform="translate(-3422.649 -3474.047)" fill="#237598"/>
          <path id="Path_1162" data-name="Path 1162" d="M3449.032,3482.7a.7.7,0,0,1-.235.135.453.453,0,0,1-.609-.2.462.462,0,0,1-.026-.062.484.484,0,0,1,.275-.627.469.469,0,0,1,.049-.016.6.6,0,0,1,.24-.046l0,.1a.508.508,0,0,0-.195.032.36.36,0,0,0-.247.447.317.317,0,0,0,.022.057.354.354,0,0,0,.442.234.462.462,0,0,0,.053-.021.569.569,0,0,0,.186-.113Z" transform="translate(-3423.346 -3473.687)" fill="#237598"/>
          <path id="Path_1163" data-name="Path 1163" d="M3450.594,3481.251l.327.866-.122.045-.327-.866Z" transform="translate(-3424.248 -3473.444)" fill="#237598"/>
          <path id="Path_1164" data-name="Path 1164" d="M3452.307,3480.576l-.287.108-.036-.1.7-.265.036.1-.29.11.291.771-.123.047-.291-.771Z" transform="translate(-3424.83 -3473.087)" fill="#237598"/>
          <path id="Path_1165" data-name="Path 1165" d="M3454.793,3480.338v.312l-.126.048,0-.989.148-.055.651.744-.123.046-.2-.235Zm.279-.2-.187-.219a1.764,1.764,0,0,1-.109-.14h0c0,.057.01.116.011.174l0,.287Z" transform="translate(-3425.861 -3472.829)" fill="#237598"/>
          <path id="Path_1166" data-name="Path 1166" d="M3456.81,3478.859a1.484,1.484,0,0,1,.227-.107.441.441,0,0,1,.3-.032.221.221,0,0,1,.137.137.248.248,0,0,1-.1.289h0a.24.24,0,0,1,.209.131,1.383,1.383,0,0,0,.163.211l-.131.049a1.223,1.223,0,0,1-.14-.184.193.193,0,0,0-.255-.1l-.111.042.142.376-.122.046Zm.27.349.125-.047c.131-.049.189-.147.152-.246s-.149-.126-.279-.079a.578.578,0,0,0-.117.057Z" transform="translate(-3426.688 -3472.464)" fill="#237598"/>
          <path id="Path_1167" data-name="Path 1167" d="M3459.286,3477.971l.327.866-.122.046-.327-.867Z" transform="translate(-3427.594 -3472.181)" fill="#237598"/>
          <path id="Path_1168" data-name="Path 1168" d="M3461.391,3477.847l.005.311-.126.048,0-.988.147-.055.652.744-.132.05-.205-.235Zm.28-.2-.188-.218a1.569,1.569,0,0,1-.109-.139h0a1.684,1.684,0,0,1,.012.173l0,.287Z" transform="translate(-3428.402 -3471.87)" fill="#237598"/>
          <path id="Path_1169" data-name="Path 1169" d="M3463.68,3477.086a.517.517,0,0,0,.24-.028c.125-.047.175-.135.142-.222s-.1-.11-.247-.1c-.175.009-.3-.028-.343-.151a.292.292,0,0,1,.218-.351.509.509,0,0,1,.226-.037v.1a.453.453,0,0,0-.2.028c-.13.049-.155.14-.132.2s.1.1.245.1c.181,0,.289.035.338.164s-.013.29-.238.375a.559.559,0,0,1-.263.034Z" transform="translate(-3429.247 -3471.497)" fill="#237598"/>
        </g>
      </g>
    </g>
  </g>
</svg>
