<svg xmlns="http://www.w3.org/2000/svg" width="35.971" height="49.552" viewBox="0 0 35.971 49.552">
  <g id="impermeable" transform="translate(0)">
    <g id="Group_147" data-name="Group 147" transform="translate(14.358 0)">
      <path id="Path_302" data-name="Path 302" d="M-6043.233,5366.97a10.8,10.8,0,0,1-10.807,10.806,10.8,10.8,0,0,1-10.806-10.806c0-6,10.806-19.527,10.806-19.527S-6043.233,5361.029-6043.233,5366.97Z" transform="translate(6064.846 -5347.443)" fill="#29abe2"/>
      <path id="Path_303" data-name="Path 303" d="M-6043.39,5444.511a7.969,7.969,0,0,1-7.962-7.962.972.972,0,0,1,.948-.948.972.972,0,0,1,.948.948,6.068,6.068,0,0,0,6.066,6.067.972.972,0,0,1,.948.948A.972.972,0,0,1-6043.39,5444.511Z" transform="translate(6054.196 -5417.022)" fill="#29abe2"/>
    </g>
    <g id="Group_148" data-name="Group 148" transform="translate(0 17.233)">
      <path id="Path_304" data-name="Path 304" d="M-6118.362,5442.418a7.3,7.3,0,0,1-7.308,7.308,7.3,7.3,0,0,1-7.308-7.308c0-4.06,7.308-13.205,7.308-13.205S-6118.362,5438.4-6118.362,5442.418Z" transform="translate(6132.978 -5429.213)" fill="#29abe2"/>
      <path id="Path_305" data-name="Path 305" d="M-6118.466,5494.857a5.389,5.389,0,0,1-5.385-5.384.657.657,0,0,1,.641-.641.657.657,0,0,1,.641.641,4.1,4.1,0,0,0,4.1,4.1.657.657,0,0,1,.641.641A.657.657,0,0,1-6118.466,5494.857Z" transform="translate(6125.774 -5476.268)" fill="#29abe2"/>
    </g>
    <g id="Group_149" data-name="Group 149" transform="translate(12.662 32.271)">
      <path id="Path_306" data-name="Path 306" d="M-6060.584,5511.7a6.154,6.154,0,0,1-6.156,6.156,6.153,6.153,0,0,1-6.156-6.156c0-3.42,6.156-11.124,6.156-11.124S-6060.584,5508.312-6060.584,5511.7Z" transform="translate(6072.896 -5500.572)" fill="#29abe2"/>
      <path id="Path_307" data-name="Path 307" d="M-6060.673,5555.871a4.54,4.54,0,0,1-4.536-4.536.554.554,0,0,1,.54-.54.554.554,0,0,1,.54.54,3.457,3.457,0,0,0,3.456,3.456.554.554,0,0,1,.54.54A.554.554,0,0,1-6060.673,5555.871Z" transform="translate(6066.829 -5540.21)" fill="#29abe2"/>
    </g>
  </g>
</svg>
