<svg id="impresion" xmlns="http://www.w3.org/2000/svg" width="48.097" height="49.551" viewBox="0 0 48.097 49.551">
  <g id="Group_152" data-name="Group 152" transform="translate(0 0)">
    <g id="Group_151" data-name="Group 151" transform="translate(0)">
      <path id="Path_308" data-name="Path 308" d="M-5733.875,5343.917H-5747.2a1.719,1.719,0,0,0-1.717,1.717v28.259c0,.406.273,4.759.679,4.759s.793-4.353.793-4.759v-28.259a.249.249,0,0,1,.245-.246h13.323a.249.249,0,0,1,.245.246v40.211a6.158,6.158,0,0,1-6.151,6.151h-1.511a6.158,6.158,0,0,1-6.151-6.151v-8.876c0-.407-.152-7.429-.559-7.429s-.913,7.022-.913,7.429v8.876a7.632,7.632,0,0,0,7.623,7.623h1.512a7.631,7.631,0,0,0,7.622-7.623v-40.211A1.719,1.719,0,0,0-5733.875,5343.917Z" transform="translate(5748.915 -5343.917)" fill="#29abe2"/>
    </g>
  </g>
  <g id="Group_154" data-name="Group 154" transform="translate(5.85 39.258)">
    <g id="Group_153" data-name="Group 153" transform="translate(0 0)">
      <path id="Path_309" data-name="Path 309" d="M-5718.146,5530.245a2.531,2.531,0,0,0-2.962,2,2.53,2.53,0,0,0,2,2.962,2.543,2.543,0,0,0,.482.047,2.533,2.533,0,0,0,2.48-2.045h0A2.531,2.531,0,0,0-5718.146,5530.245Zm.553,2.682a1.055,1.055,0,0,1-1.236.834,1.056,1.056,0,0,1-.834-1.236,1.056,1.056,0,0,1,1.035-.854,1.053,1.053,0,0,1,.2.02A1.057,1.057,0,0,1-5717.593,5532.927Z" transform="translate(5721.155 -5530.199)" fill="#29abe2"/>
    </g>
  </g>
  <g id="Group_156" data-name="Group 156" transform="translate(0 8.652)">
    <g id="Group_155" data-name="Group 155" transform="translate(0 0)">
      <path id="Path_310" data-name="Path 310" d="M-5733.15,5384.973h-15.028a.736.736,0,0,0-.736.736.737.737,0,0,0,.736.736h15.028a.736.736,0,0,0,.736-.736A.736.736,0,0,0-5733.15,5384.973Z" transform="translate(5748.915 -5384.973)" fill="#29abe2"/>
    </g>
  </g>
  <g id="Group_158" data-name="Group 158" transform="translate(0 17.305)">
    <g id="Group_157" data-name="Group 157" transform="translate(0)">
      <path id="Path_311" data-name="Path 311" d="M-5733.15,5426.028h-15.028a.736.736,0,0,0-.736.736.736.736,0,0,0,.736.736h15.028a.736.736,0,0,0,.736-.736A.736.736,0,0,0-5733.15,5426.028Z" transform="translate(5748.915 -5426.028)" fill="#29abe2"/>
    </g>
  </g>
  <g id="Group_160" data-name="Group 160" transform="translate(0 25.957)">
    <g id="Group_159" data-name="Group 159" transform="translate(0 0)">
      <path id="Path_312" data-name="Path 312" d="M-5733.15,5467.084h-15.028a.736.736,0,0,0-.736.736.736.736,0,0,0,.736.736h15.028a.736.736,0,0,0,.736-.736A.736.736,0,0,0-5733.15,5467.084Z" transform="translate(5748.915 -5467.084)" fill="#29abe2"/>
    </g>
  </g>
  <g id="Group_162" data-name="Group 162" transform="translate(0 34.609)">
    <g id="Group_161" data-name="Group 161" transform="translate(0 0)">
      <path id="Path_313" data-name="Path 313" d="M-5733.15,5508.14h-15.028a.736.736,0,0,0-.736.736.737.737,0,0,0,.736.736h15.028a.736.736,0,0,0,.736-.736A.736.736,0,0,0-5733.15,5508.14Z" transform="translate(5748.915 -5508.14)" fill="#29abe2"/>
    </g>
  </g>
  <g id="Group_164" data-name="Group 164" transform="translate(14.945 1.88)">
    <g id="Group_163" data-name="Group 163">
      <path id="Path_314" data-name="Path 314" d="M-5657.242,5360.646a1.055,1.055,0,0,0-.5-.644l-12.133-6.939a1.7,1.7,0,0,0-1.3-.166,1.705,1.705,0,0,0-1.04.8l-5.347,9.348a.736.736,0,0,0,.273,1,.736.736,0,0,0,1-.273l5.347-9.348a.243.243,0,0,1,.149-.113.242.242,0,0,1,.186.022l11.778,6.736-19.078,33.574a.735.735,0,0,0,.276,1,.731.731,0,0,0,.363.1.736.736,0,0,0,.641-.373l19.278-33.926A1.053,1.053,0,0,0-5657.242,5360.646Z" transform="translate(5677.999 -5352.837)" fill="#29abe2"/>
    </g>
  </g>
  <g id="Group_166" data-name="Group 166" transform="translate(16.823 9.032)">
    <g id="Group_165" data-name="Group 165" transform="translate(0 0)">
      <path id="Path_315" data-name="Path 315" d="M-5654.686,5394.481l-13.3-7.608a.736.736,0,0,0-1,.274.736.736,0,0,0,.273,1l13.3,7.608a.737.737,0,0,0,.365.1.736.736,0,0,0,.64-.37A.736.736,0,0,0-5654.686,5394.481Z" transform="translate(5669.088 -5386.776)" fill="#29abe2"/>
    </g>
  </g>
  <g id="Group_168" data-name="Group 168" transform="translate(15.285 18.12)">
    <g id="Group_167" data-name="Group 167" transform="translate(0 0)">
      <path id="Path_316" data-name="Path 316" d="M-5664.742,5436.027l-10.543-6.03a.736.736,0,0,0-1,.273.735.735,0,0,0,.273,1l10.543,6.03a.726.726,0,0,0,.365.1.734.734,0,0,0,.639-.371A.735.735,0,0,0-5664.742,5436.027Z" transform="translate(5676.387 -5429.9)" fill="#29abe2"/>
    </g>
  </g>
  <g id="Group_170" data-name="Group 170" transform="translate(15.285 28.088)">
    <g id="Group_169" data-name="Group 169" transform="translate(0 0)">
      <path id="Path_317" data-name="Path 317" d="M-5669.038,5480.867l-6.248-3.573a.736.736,0,0,0-1,.273.735.735,0,0,0,.273,1l6.247,3.574a.734.734,0,0,0,.365.1.736.736,0,0,0,.64-.371A.737.737,0,0,0-5669.038,5480.867Z" transform="translate(5676.387 -5477.197)" fill="#29abe2"/>
    </g>
  </g>
  <g id="Group_172" data-name="Group 172" transform="translate(15.323 38.077)">
    <g id="Group_171" data-name="Group 171" transform="translate(0 0)">
      <path id="Path_318" data-name="Path 318" d="M-5673.192,5525.788l-1.914-1.095a.736.736,0,0,0-1,.273.736.736,0,0,0,.273,1l1.914,1.095a.73.73,0,0,0,.364.1.736.736,0,0,0,.64-.371A.736.736,0,0,0-5673.192,5525.788Z" transform="translate(5676.208 -5524.596)" fill="#29abe2"/>
    </g>
  </g>
  <g id="Group_174" data-name="Group 174" transform="translate(12.948 20.393)">
    <g id="Group_173" data-name="Group 173" transform="translate(0 0)">
      <path id="Path_319" data-name="Path 319" d="M-5652.459,5447.936l-3.791-6.874a.735.735,0,0,0-1-.289.736.736,0,0,0-.289,1l3.594,6.517-33.153,18.443a.736.736,0,0,0-.286,1,.737.737,0,0,0,.644.378.731.731,0,0,0,.357-.093l33.506-18.639A1.064,1.064,0,0,0-5652.459,5447.936Z" transform="translate(5687.476 -5440.681)" fill="#29abe2"/>
    </g>
  </g>
  <g id="Group_176" data-name="Group 176" transform="translate(27.87 14.52)">
    <g id="Group_175" data-name="Group 175" transform="translate(0)">
      <path id="Path_320" data-name="Path 320" d="M-5601.793,5416.481l-1.532-2.777a1.706,1.706,0,0,0-1.027-.819,1.707,1.707,0,0,0-1.306.145l-10.632,5.863a.736.736,0,0,0-.289,1,.735.735,0,0,0,.645.38.732.732,0,0,0,.354-.091l10.632-5.863a.244.244,0,0,1,.186-.02.245.245,0,0,1,.147.117l1.532,2.777a.736.736,0,0,0,1,.289A.737.737,0,0,0-5601.793,5416.481Z" transform="translate(5616.67 -5412.816)" fill="#29abe2"/>
    </g>
  </g>
  <g id="Group_178" data-name="Group 178" transform="translate(31.784 18.346)">
    <g id="Group_177" data-name="Group 177" transform="translate(0 0)">
      <path id="Path_321" data-name="Path 321" d="M-5589.316,5444.769l-7.4-13.417a.737.737,0,0,0-1-.29.737.737,0,0,0-.289,1l7.4,13.417a.736.736,0,0,0,.646.381.736.736,0,0,0,.355-.092A.736.736,0,0,0-5589.316,5444.769Z" transform="translate(5598.096 -5430.971)" fill="#29abe2"/>
    </g>
  </g>
  <g id="Group_180" data-name="Group 180" transform="translate(25.489 24.848)">
    <g id="Group_179" data-name="Group 179" transform="translate(0 0)">
      <path id="Path_322" data-name="Path 322" d="M-5620.471,5473.3l-6.118-11.095a.736.736,0,0,0-1-.289.736.736,0,0,0-.289,1l6.118,11.094a.736.736,0,0,0,.646.381.727.727,0,0,0,.354-.092A.736.736,0,0,0-5620.471,5473.3Z" transform="translate(5627.969 -5461.821)" fill="#29abe2"/>
    </g>
  </g>
  <g id="Group_182" data-name="Group 182" transform="translate(20.408 33.551)">
    <g id="Group_181" data-name="Group 181" transform="translate(0 0)">
      <path id="Path_323" data-name="Path 323" d="M-5647.075,5510.07l-3.623-6.569a.736.736,0,0,0-1-.289.736.736,0,0,0-.289,1l3.623,6.569a.734.734,0,0,0,.645.381.738.738,0,0,0,.355-.092A.737.737,0,0,0-5647.075,5510.07Z" transform="translate(5652.079 -5503.12)" fill="#29abe2"/>
    </g>
  </g>
  <g id="Group_184" data-name="Group 184" transform="translate(15.377 42.346)">
    <g id="Group_183" data-name="Group 183" transform="translate(0 0)">
      <path id="Path_324" data-name="Path 324" d="M-5673.492,5547.186l-1.076-1.952a.736.736,0,0,0-1-.289.735.735,0,0,0-.289,1l1.077,1.953a.735.735,0,0,0,.645.38.732.732,0,0,0,.354-.092A.736.736,0,0,0-5673.492,5547.186Z" transform="translate(5675.949 -5544.854)" fill="#29abe2"/>
    </g>
  </g>
</svg>
