<svg xmlns="http://www.w3.org/2000/svg" xmlns:xlink="http://www.w3.org/1999/xlink" width="553.779" height="505.583" viewBox="0 0 553.779 505.583">
  <defs>
    <filter id="Path_467" x="0" y="114.142" width="146.322" height="367.074" filterUnits="userSpaceOnUse">
      <feOffset dy="10" input="SourceAlpha"/>
      <feGaussianBlur stdDeviation="10" result="blur"/>
      <feFlood flood-opacity="0.161"/>
      <feComposite operator="in" in2="blur"/>
      <feComposite in="SourceGraphic"/>
    </filter>
    <filter id="Path_507" x="100.723" y="71.675" width="159.762" height="409.641" filterUnits="userSpaceOnUse">
      <feOffset dy="10" input="SourceAlpha"/>
      <feGaussianBlur stdDeviation="10" result="blur-2"/>
      <feFlood flood-opacity="0.161"/>
      <feComposite operator="in" in2="blur-2"/>
      <feComposite in="SourceGraphic"/>
    </filter>
    <filter id="Path_547" x="215.155" y="46.782" width="181.648" height="434.434" filterUnits="userSpaceOnUse">
      <feOffset dy="10" input="SourceAlpha"/>
      <feGaussianBlur stdDeviation="10" result="blur-3"/>
      <feFlood flood-opacity="0.161"/>
      <feComposite operator="in" in2="blur-3"/>
      <feComposite in="SourceGraphic"/>
    </filter>
    <filter id="Path_587" x="352.172" y="0" width="201.607" height="480.218" filterUnits="userSpaceOnUse">
      <feOffset dy="10" input="SourceAlpha"/>
      <feGaussianBlur stdDeviation="10" result="blur-4"/>
      <feFlood flood-opacity="0.161"/>
      <feComposite operator="in" in2="blur-4"/>
      <feComposite in="SourceGraphic"/>
    </filter>
  </defs>
  <g id="Group_284" data-name="Group 284" transform="translate(30 19.987)">
    <g id="Group_266" data-name="Group 266">
      <g transform="matrix(1, 0, 0, 1, -30, -19.99)" filter="url(#Path_467)">
        <path id="Path_467-2" data-name="Path 467" d="M86.322,114.164C59.477,113.865,0,120.551,0,185.217L.2,421.229H86.322Z" transform="translate(30 19.99)" fill="#fff"/>
      </g>
      <g id="Group_263" data-name="Group 263">
        <path id="Path_468" data-name="Path 468" d="M25.847,296.188v9.48H22.354V282.616h3.493v9.48H53.889v4.092Z" fill="#237598"/>
        <path id="Path_469" data-name="Path 469" d="M39.119,262.956v12.075H50.5V261.559h3.393v17.564H22.454V262.358h3.393v12.774h9.979V263.056l3.293-.1Z" fill="#237598"/>
        <path id="Path_470" data-name="Path 470" d="M53.889,239.305,46.9,243.3c-2.694,1.6-4.391,2.595-6.187,3.593v.1c1.8.9,3.493,1.8,6.287,3.393l6.886,3.692v4.591l-15.967-9.58-15.568,9.181v-4.69l7.385-4.092c2.1-1.2,3.593-2,5.289-2.894v-.1c-1.9-.9-3.293-1.7-5.289-2.794l-7.385-4.291v-4.591l15.368,9.48,16.167-9.68Z" fill="#237598"/>
        <path id="Path_471" data-name="Path 471" d="M25.847,223.638v9.48H22.354V210.066h3.493v9.58H53.889v4.092l-28.042-.1Z" fill="#237598"/>
        <path id="Path_472" data-name="Path 472" d="M22.354,202.581H53.889v3.992H22.354Z" fill="#237598"/>
        <path id="Path_473" data-name="Path 473" d="M22.354,195.5V191.5H50.5V178.232h3.393V195.6H22.354Z" fill="#237598"/>
        <path id="Path_474" data-name="Path 474" d="M22.354,393.886V377.12h3.493v12.774H36.325V378.118h3.393v11.776H53.889v3.992Z" fill="#237598"/>
        <path id="Path_475" data-name="Path 475" d="M22.354,367.341H41.015c7.085,0,10.079-3.094,10.079-7.285,0-4.591-3.094-7.584-10.079-7.584H22.354V348.38H40.716c9.68,0,13.672,5.089,13.672,11.776,0,6.387-3.692,11.177-13.472,11.177H22.354Z" fill="#237598"/>
        <path id="Path_476" data-name="Path 476" d="M22.354,341.394V337.4H50.5V324.13h3.393v17.364H22.354Z" fill="#237598"/>
        <path id="Path_477" data-name="Path 477" d="M22.354,319.639v-3.992H50.5V302.375h3.393v17.364H22.354Z" fill="#237598"/>
        <path id="Path_478" data-name="Path 478" d="M62.87,393.287a3.306,3.306,0,0,0,.4-1.5c0-.8-.4-1.3-1-1.3s-.8.3-1.1,1.2c-.3,1-.8,1.7-1.6,1.7a1.826,1.826,0,0,1-1.6-2,3.522,3.522,0,0,1,.3-1.4l.6.2a2.657,2.657,0,0,0-.3,1.2c0,.9.5,1.2.9,1.2s.8-.4,1.1-1.2c.4-1.1.8-1.6,1.7-1.6s1.7.7,1.7,2.2a2.816,2.816,0,0,1-.4,1.5Z" fill="#237598"/>
        <path id="Path_479" data-name="Path 479" d="M60.874,378.617a2.737,2.737,0,0,1,2.994,2.595v.3a2.625,2.625,0,0,1-2.595,2.794h-.3a2.8,2.8,0,0,1-2.994-2.595v-.3a2.625,2.625,0,0,1,2.595-2.794C60.675,378.517,60.774,378.617,60.874,378.617Zm.1,4.79a1.966,1.966,0,0,0,2.3-1.7,2.017,2.017,0,0,0-1.7-2.3h-.6a1.966,1.966,0,0,0-2.3,1.7,2.092,2.092,0,0,0,1.8,2.3.446.446,0,0,0,.5,0Z" fill="#237598"/>
        <path id="Path_480" data-name="Path 480" d="M58.08,372.929v-.8h5.089v-2.694h.6v3.493Z" fill="#237598"/>
        <path id="Path_481" data-name="Path 481" d="M58.08,363.449h3.393c1.3,0,1.8-.6,1.8-1.5s-.6-1.5-1.8-1.5H58.08v-.8h3.293a2.229,2.229,0,0,1,2.495,1.9v.5a2.125,2.125,0,0,1-1.9,2.3H58.08v-.9Z" fill="#237598"/>
        <path id="Path_482" data-name="Path 482" d="M63.668,349.178a4.662,4.662,0,0,1,.3,1.7,2.793,2.793,0,0,1-2.595,2.994h-.4a2.94,2.94,0,0,1-2.994-2.994v-.3a4,4,0,0,1,.3-1.5l.6.2a2.739,2.739,0,0,0-.2,1.3,2.225,2.225,0,0,0,2,2.4h.4a2.2,2.2,0,0,0,2.3-2v-.4a5.056,5.056,0,0,0-.2-1.3Z" fill="#237598"/>
        <path id="Path_483" data-name="Path 483" d="M58.08,342.791h5.688v.8H58.08Z" fill="#237598"/>
        <path id="Path_484" data-name="Path 484" d="M60.874,331.415a2.737,2.737,0,0,1,2.994,2.595v.3a2.625,2.625,0,0,1-2.595,2.794h-.3a2.8,2.8,0,0,1-2.994-2.595v-.3a2.625,2.625,0,0,1,2.595-2.794Zm.1,4.79a1.966,1.966,0,0,0,2.3-1.7,2.017,2.017,0,0,0-1.7-2.3h-.6a1.966,1.966,0,0,0-2.3,1.7,2.02,2.02,0,0,0,1.8,2.3.445.445,0,0,0,.5,0Z" fill="#237598"/>
        <path id="Path_485" data-name="Path 485" d="M63.768,325.727H58.08v-.9l2.894-2.1a11.76,11.76,0,0,1,1.9-1.1h0a18.445,18.445,0,0,1-2.4.1h-2.4v-.8h5.688v.8l-2.894,2c-.6.4-1.2.8-1.9,1.2h4.79Z" fill="#237598"/>
        <path id="Path_486" data-name="Path 486" d="M61.074,311.755v2.4h2.1v-2.794h.6v3.593H58.08v-3.393h.6v2.595h1.8v-2.4Z" fill="#237598"/>
        <path id="Path_487" data-name="Path 487" d="M62.87,305.868a3.306,3.306,0,0,0,.4-1.5c0-.8-.4-1.3-1-1.3s-.8.3-1.1,1.2-.8,1.7-1.6,1.7a1.826,1.826,0,0,1-1.6-2,3.187,3.187,0,0,1,.3-1.4l.6.2a2.657,2.657,0,0,0-.3,1.2c0,.9.5,1.2.9,1.2s.8-.4,1.1-1.2c.4-1.1.8-1.6,1.7-1.6s1.7.7,1.7,2.2a2.928,2.928,0,0,1-.4,1.6Z" fill="#237598"/>
        <path id="Path_488" data-name="Path 488" d="M58.18,290a8.066,8.066,0,0,1-.1-1.6,3.079,3.079,0,0,1,.5-1.8,1.423,1.423,0,0,1,1.2-.6,1.653,1.653,0,0,1,1.2.5,2.207,2.207,0,0,1,.6,1.9v.7h2.3v.8Zm2.794-.8v-.7c0-1-.4-1.6-1.2-1.6s-1.1.6-1.1,1.5v.8Z" fill="#237598"/>
        <path id="Path_489" data-name="Path 489" d="M58.08,279.622h3.393c1.3,0,1.8-.6,1.8-1.5,0-.8-.6-1.5-1.8-1.5H58.08v-.8h3.293a2.229,2.229,0,0,1,2.495,1.9v.5c0,1.3-.7,2.2-2.4,2.2H58.08v-.8Z" fill="#237598"/>
        <path id="Path_490" data-name="Path 490" d="M58.18,269.742a7.553,7.553,0,0,1-.1-1.5,2.538,2.538,0,0,1,.4-1.7,1.228,1.228,0,0,1,1-.5,1.38,1.38,0,0,1,1.2,1.1h0a1.511,1.511,0,0,1,1.5-1.3,1.841,1.841,0,0,1,1.2.5,3.28,3.28,0,0,1,.5,2.2,4.5,4.5,0,0,1-.1,1.3H58.18Zm2.3-.8v-.7c0-.9-.4-1.4-1-1.4s-.9.6-.9,1.4v.7Zm2.794,0v-.7c0-.8-.3-1.6-1.1-1.6s-1.1.7-1.1,1.6v.7Z" fill="#237598"/>
        <path id="Path_491" data-name="Path 491" d="M58.08,260.162v-.9h5.089V256.57h.6v3.493Z" fill="#237598"/>
        <path id="Path_492" data-name="Path 492" d="M58.08,250.283h5.688v.8H58.08Z" fill="#237598"/>
        <path id="Path_493" data-name="Path 493" d="M63.668,239.9a4.662,4.662,0,0,1,.3,1.7,2.866,2.866,0,0,1-2.495,3.094h-.4A2.94,2.94,0,0,1,58.08,241.7v-.3a4,4,0,0,1,.3-1.5l.6.2a2.531,2.531,0,0,0-.2,1.2,2.225,2.225,0,0,0,2,2.4h.4a2.2,2.2,0,0,0,2.3-2v-.4a5.056,5.056,0,0,0-.2-1.3Z" fill="#237598"/>
        <path id="Path_494" data-name="Path 494" d="M58.08,233.417h5.688v.8H58.08Z" fill="#237598"/>
        <path id="Path_495" data-name="Path 495" d="M58.679,226.232v1.9h-.6v-4.591h.6v1.9h5.089v.8Z" fill="#237598"/>
        <path id="Path_496" data-name="Path 496" d="M61.972,217.85l1.8.7v.8l-5.688-2.1v-1l5.688-2.1v.8l-1.8.7Zm-.5-2.1-1.7.6c-.4.1-.7.2-1,.3h0c.3.1.7.2,1,.3l1.7.6Z" fill="#237598"/>
        <path id="Path_497" data-name="Path 497" d="M58.18,208.569a7.553,7.553,0,0,1-.1-1.5,2.378,2.378,0,0,1,.5-1.8,1.506,1.506,0,0,1,2.595.7h0a1.4,1.4,0,0,1,1.2-.9,9.809,9.809,0,0,0,1.6-.5v.9a5.72,5.72,0,0,1-1.4.4c-.8.2-1.1.5-1.1,1.3v.7h2.4v.8H58.18Zm2.595-.8v-.8c0-.9-.4-1.4-1.1-1.4s-1.1.6-1.1,1.4a2.2,2.2,0,0,0,.1.8Z" fill="#237598"/>
        <path id="Path_498" data-name="Path 498" d="M58.08,198.19h5.688v.8H58.08Z" fill="#237598"/>
        <path id="Path_499" data-name="Path 499" d="M61.972,191.1l1.8.6v.8l-5.688-2.1v-1l5.688-2.1v.9l-1.8.7Zm-.5-2.1-1.7.6c-.3.1-.7.2-1,.3h0c.3.1.7.2,1,.3l1.7.6Z" fill="#237598"/>
        <path id="Path_500" data-name="Path 500" d="M62.87,181.924a3.306,3.306,0,0,0,.4-1.5c0-.8-.4-1.3-1-1.3s-.8.3-1.1,1.2c-.3,1-.8,1.7-1.6,1.7a1.826,1.826,0,0,1-1.6-2,3.187,3.187,0,0,1,.3-1.4l.6.2a2.657,2.657,0,0,0-.3,1.2c0,.9.5,1.2.9,1.2s.8-.4,1.1-1.2c.4-1.1.8-1.6,1.7-1.6s1.7.7,1.7,2.2a2.928,2.928,0,0,1-.4,1.6Z" fill="#237598"/>
      </g>
      <g id="Group_265" data-name="Group 265">
        <g id="Group_264" data-name="Group 264">
          <path id="Path_501" data-name="Path 501" d="M8.283,450.369v-2a6.49,6.49,0,0,0,3.393,1.1,3.7,3.7,0,0,0,2.794-1,3.46,3.46,0,0,0,1.1-2.595,3.1,3.1,0,0,0-1.1-2.495,4.762,4.762,0,0,0-3.094-.9c-.5,0-1.3,0-2.595.1V434.4h7.884v1.7H10.578v4.79h1.4a5.929,5.929,0,0,1,4.092,1.3,4.527,4.527,0,0,1,1.4,3.593,4.887,4.887,0,0,1-1.5,3.792,5.622,5.622,0,0,1-4.191,1.4A7.842,7.842,0,0,1,8.283,450.369Z" fill="#fff"/>
          <path id="Path_502" data-name="Path 502" d="M25.148,450.968a4.3,4.3,0,0,1-3.792-2.1,11.058,11.058,0,0,1-1.4-5.988,12.278,12.278,0,0,1,1.4-6.487,4.649,4.649,0,0,1,4.092-2.2q5.089,0,5.089,8.383a11.731,11.731,0,0,1-1.4,6.287A4.631,4.631,0,0,1,25.148,450.968Zm.2-15.268c-2.3,0-3.493,2.4-3.493,7.085,0,4.391,1.1,6.586,3.393,6.586s3.393-2.2,3.393-6.686C28.641,438.094,27.543,435.7,25.348,435.7Z" fill="#fff"/>
          <path id="Path_503" data-name="Path 503" d="M41.913,439.092l-3.892,5.888,3.792,5.788h-2.2l-2.3-3.792c-.1-.2-.3-.5-.5-.9h0a4.527,4.527,0,0,1-.5.9l-2.3,3.792h-2.2l3.992-5.688-3.792-5.888h2.2l2.3,3.992c.2.3.3.6.5.9h0l2.894-4.89h2Z" fill="#fff"/>
          <path id="Path_504" data-name="Path 504" d="M50.995,438.693a5.056,5.056,0,0,0-.2-1.3,3.482,3.482,0,0,0-.6-.9,4.364,4.364,0,0,0-1-.6,5.009,5.009,0,0,0-1.2-.2,4.094,4.094,0,0,0-1.1.1,4.171,4.171,0,0,0-1,.4,8.775,8.775,0,0,1-1,.6,6.459,6.459,0,0,0-.9.8v-2a5.663,5.663,0,0,1,1.8-1.2,5.453,5.453,0,0,1,2.4-.4,5.811,5.811,0,0,1,1.9.3,5.289,5.289,0,0,1,1.5.8,5.009,5.009,0,0,1,1,1.4,4.05,4.05,0,0,1,.4,1.9,11,11,0,0,1-.2,1.8,5.055,5.055,0,0,1-.7,1.5,6.871,6.871,0,0,1-1.1,1.3c-.5.4-1,.9-1.6,1.3a18.857,18.857,0,0,0-1.9,1.4,14.211,14.211,0,0,0-1.2,1.1,2.659,2.659,0,0,0-.6,1,3.722,3.722,0,0,0-.2,1.2h8.083v1.7H43.41v-.8a8.951,8.951,0,0,1,.2-1.8,5.471,5.471,0,0,1,.8-1.5,4.65,4.65,0,0,1,1.4-1.4c.6-.5,1.3-1,2.1-1.6a9.81,9.81,0,0,0,1.5-1.2,10.567,10.567,0,0,0,1-1.2,6.1,6.1,0,0,0,.5-1.2A5.272,5.272,0,0,0,50.995,438.693Z" fill="#fff"/>
          <path id="Path_505" data-name="Path 505" d="M60.874,450.968a4.3,4.3,0,0,1-3.792-2.1,11.058,11.058,0,0,1-1.4-5.988,12.278,12.278,0,0,1,1.4-6.487,4.649,4.649,0,0,1,4.092-2.2q5.089,0,5.089,8.383a11.731,11.731,0,0,1-1.4,6.287A4.514,4.514,0,0,1,60.874,450.968Zm.3-15.268c-2.3,0-3.493,2.4-3.493,7.085,0,4.391,1.1,6.586,3.393,6.586s3.393-2.2,3.393-6.686C64.467,438.094,63.369,435.7,61.174,435.7Z" fill="#fff"/>
          <path id="Path_506" data-name="Path 506" d="M73.448,450.968a4.3,4.3,0,0,1-3.792-2.1,11.058,11.058,0,0,1-1.4-5.988,12.278,12.278,0,0,1,1.4-6.487,4.649,4.649,0,0,1,4.092-2.2q5.089,0,5.089,8.383a11.731,11.731,0,0,1-1.4,6.287A4.514,4.514,0,0,1,73.448,450.968Zm.2-15.268c-2.3,0-3.493,2.4-3.493,7.085,0,4.391,1.1,6.586,3.393,6.586s3.393-2.2,3.393-6.686C77.041,438.094,75.943,435.7,73.648,435.7Z" fill="#fff"/>
        </g>
      </g>
    </g>
    <g id="Group_270" data-name="Group 270">
      <g transform="matrix(1, 0, 0, 1, -30, -19.99)" filter="url(#Path_507)">
        <path id="Path_507-2" data-name="Path 507" d="M200.485,421.329H100.792V161.566S95.2,76.043,185.117,71.752a82.774,82.774,0,0,1,15.268.8V421.329Z" transform="translate(30 19.99)" fill="#fff"/>
      </g>
      <g id="Group_267" data-name="Group 267">
        <path id="Path_508" data-name="Path 508" d="M130.73,281.718V292.6h-3.992V266.15h3.992v10.977h32.233v4.69C162.963,281.718,130.73,281.718,130.73,281.718Z" fill="#237598"/>
        <path id="Path_509" data-name="Path 509" d="M146,243.6v13.871h13.073V242h3.892v20.158H126.838V242.9h3.892v14.67h11.476V243.7l3.792-.1Z" fill="#237598"/>
        <path id="Path_510" data-name="Path 510" d="M162.963,216.452l-7.983,4.591c-3.094,1.9-5.089,2.994-7.085,4.092v.1c2.1,1,3.992,2,7.185,3.892l7.983,4.291v5.289L144.8,227.729l-18.063,10.578v-5.389l8.482-4.69c2.4-1.4,4.191-2.3,6.087-3.293v-.2c-2.2-1-3.792-1.9-6.087-3.193l-8.482-4.89v-5.289L144.3,222.241l18.562-11.177v5.389Z" fill="#237598"/>
        <path id="Path_511" data-name="Path 511" d="M130.73,198.589v10.878h-3.992V183.022h3.992V194h32.233v4.69l-32.233-.1Z" fill="#237598"/>
        <path id="Path_512" data-name="Path 512" d="M126.738,174.34h36.125v4.591H126.738Z" fill="#237598"/>
        <path id="Path_513" data-name="Path 513" d="M126.738,166.256v-4.591h32.233V146.4h3.892v19.859H126.738Z" fill="#237598"/>
        <path id="Path_514" data-name="Path 514" d="M126.738,393.886v-19.26h3.992V389.3H142.7V375.723H146.6V389.3h16.366v4.591H126.738Z" fill="#237598"/>
        <path id="Path_515" data-name="Path 515" d="M126.738,363.449h21.456c8.083,0,11.476-3.593,11.476-8.283,0-5.289-3.493-8.682-11.476-8.682H126.738v-4.69h21.056c11.077,0,15.668,5.788,15.668,13.572,0,7.285-4.191,12.873-15.468,12.873H126.738Z" fill="#237598"/>
        <path id="Path_516" data-name="Path 516" d="M126.738,333.71V329.12h32.233V313.851h3.892V333.71Z" fill="#237598"/>
        <path id="Path_517" data-name="Path 517" d="M126.738,308.662v-4.591h32.233V288.8h3.892v19.859Z" fill="#237598"/>
        <path id="Path_518" data-name="Path 518" d="M173.242,393.187a3.28,3.28,0,0,0,.4-1.7c0-1-.5-1.5-1.1-1.5-.7,0-1,.4-1.3,1.4-.4,1.2-.9,1.9-1.9,1.9s-1.8-.9-1.8-2.3a4.52,4.52,0,0,1,.3-1.6l.7.2a3.187,3.187,0,0,0-.3,1.4c0,1,.5,1.4,1,1.4.4,0,.9-.4,1.3-1.4.4-1.2,1-1.8,1.9-1.8,1,0,1.9.8,1.9,2.495a4.7,4.7,0,0,1-.4,1.7Z" fill="#237598"/>
        <path id="Path_519" data-name="Path 519" d="M170.947,376.322a3.16,3.16,0,0,1,3.393,2.994v.4a3.129,3.129,0,0,1-2.994,3.293h-.4a3.311,3.311,0,0,1-3.493-2.994v-.3a3.129,3.129,0,0,1,2.994-3.293A1.335,1.335,0,0,1,170.947,376.322Zm.1,5.588a2.322,2.322,0,1,0,.7-4.591h-.7a2.223,2.223,0,0,0-2.595,2,2.273,2.273,0,0,0,2,2.595Z" fill="#237598"/>
        <path id="Path_520" data-name="Path 520" d="M167.753,369.835v-.9h5.888v-3.094h.7v3.992Z" fill="#237598"/>
        <path id="Path_521" data-name="Path 521" d="M167.753,358.958h3.892c1.5,0,2.1-.7,2.1-1.7s-.6-1.8-2.1-1.8h-3.892v-.9h3.792a2.432,2.432,0,0,1,2.794,2.2v.6a2.438,2.438,0,0,1-2.2,2.595h-4.491v-1Z" fill="#237598"/>
        <path id="Path_522" data-name="Path 522" d="M174.14,342.691a6.266,6.266,0,0,1,.3,1.9,3.24,3.24,0,0,1-2.994,3.493h-.4a3.451,3.451,0,0,1-3.493-3.393v-.4a4.662,4.662,0,0,1,.3-1.7l.7.2a4,4,0,0,0-.3,1.5,2.633,2.633,0,0,0,2.3,2.794h.4a2.558,2.558,0,0,0,2.694-2.4v-.4a4,4,0,0,0-.3-1.5Z" fill="#237598"/>
        <path id="Path_523" data-name="Path 523" d="M167.753,335.207h6.586v.9h-6.586Z" fill="#237598"/>
        <path id="Path_524" data-name="Path 524" d="M170.947,322.134a3.311,3.311,0,0,1,3.493,2.994v.4a3.129,3.129,0,0,1-2.994,3.293h-.4a3.311,3.311,0,0,1-3.493-2.994v-.3a3.129,3.129,0,0,1,2.994-3.293A.6.6,0,0,1,170.947,322.134Zm.1,5.588a2.322,2.322,0,1,0,.7-4.591h-.7a2.223,2.223,0,0,0-2.595,2,2.273,2.273,0,0,0,2,2.595.628.628,0,0,0,.6,0Z" fill="#237598"/>
        <path id="Path_525" data-name="Path 525" d="M174.34,315.647h-6.586v-1l3.293-2.4a23.86,23.86,0,0,1,2.1-1.3h0a23.435,23.435,0,0,1-2.694.1h-2.794v-.9h6.586v.9l-3.293,2.3a16.41,16.41,0,0,1-2.2,1.4h5.588v.9Z" fill="#237598"/>
        <path id="Path_526" data-name="Path 526" d="M171.246,299.581v2.794h2.4v-3.094h.7v4.092h-6.586v-3.892h.7v2.994h2.1V299.68l.7-.1Z" fill="#237598"/>
        <path id="Path_527" data-name="Path 527" d="M173.242,292.894a3.28,3.28,0,0,0,.4-1.7c0-1-.5-1.5-1.1-1.5-.7,0-1,.4-1.3,1.4s-.9,1.9-1.9,1.9-1.8-.9-1.8-2.3a4.137,4.137,0,0,1,.3-1.6l.7.2a3.187,3.187,0,0,0-.3,1.4c0,1,.5,1.4,1,1.4.4,0,.9-.4,1.3-1.4.4-1.2,1-1.8,1.9-1.8,1,0,1.9.8,1.9,2.495a3.654,3.654,0,0,1-.4,1.8Z" fill="#237598"/>
        <path id="Path_528" data-name="Path 528" d="M167.853,274.632a10.845,10.845,0,0,1-.1-1.8,2.515,2.515,0,0,1,.6-2,1.534,1.534,0,0,1,1.4-.6,1.97,1.97,0,0,1,1.4.6,2.922,2.922,0,0,1,.7,2.2v.8h2.595v.9Zm3.193-.8v-.8c0-1.1-.5-1.8-1.4-1.8s-1.3.7-1.3,1.7v.9Z" fill="#237598"/>
        <path id="Path_529" data-name="Path 529" d="M167.753,262.757h3.892c1.5,0,2.1-.7,2.1-1.7s-.6-1.7-2.1-1.7h-3.892v-.9h3.792a2.432,2.432,0,0,1,2.794,2.2v.6c0,1.5-.8,2.595-2.794,2.595h-3.892v-1.1Z" fill="#237598"/>
        <path id="Path_530" data-name="Path 530" d="M167.853,251.48a9.681,9.681,0,0,1-.1-1.7,2.871,2.871,0,0,1,.5-2,1.423,1.423,0,0,1,1.2-.6,1.735,1.735,0,0,1,1.4,1.2h0a1.715,1.715,0,0,1,1.7-1.5,1.609,1.609,0,0,1,1.3.6,3.607,3.607,0,0,1,.6,2.495,5.3,5.3,0,0,1-.1,1.4h-6.487Zm2.694-.9v-.8c0-1-.5-1.6-1.1-1.6s-1.1.6-1.1,1.6v.8Zm3.094,0v-.8c0-1-.3-1.9-1.3-1.9s-1.3.9-1.3,1.9v.8Z" fill="#237598"/>
        <path id="Path_531" data-name="Path 531" d="M167.753,240.4v-1h5.888v-3.094h.7V240.3Z" fill="#237598"/>
        <path id="Path_532" data-name="Path 532" d="M167.753,229.126h6.586v.9h-6.586Z" fill="#237598"/>
        <path id="Path_533" data-name="Path 533" d="M174.14,217.151a6.266,6.266,0,0,1,.3,1.9,3.163,3.163,0,0,1-2.894,3.493h-.5a3.451,3.451,0,0,1-3.493-3.393v-.4a4.662,4.662,0,0,1,.3-1.7l.7.2a3.187,3.187,0,0,0-.3,1.4,2.633,2.633,0,0,0,2.3,2.794h.4a2.558,2.558,0,0,0,2.694-2.4v-.4a4,4,0,0,0-.3-1.5Z" fill="#237598"/>
        <path id="Path_534" data-name="Path 534" d="M167.753,209.766h6.586v.9h-6.586Z" fill="#237598"/>
        <path id="Path_535" data-name="Path 535" d="M168.452,201.483v2.2h-.7V198.39h.7v2.2h5.888v.9Z" fill="#237598"/>
        <path id="Path_536" data-name="Path 536" d="M172.244,191.9l2.1.8v1l-6.586-2.495v-1.1l6.586-2.495v.9l-2.1.8Zm-.7-2.4-1.9.7a5.626,5.626,0,0,1-1.2.4h0a5.626,5.626,0,0,1,1.2.4l1.9.7Z" fill="#237598"/>
        <path id="Path_537" data-name="Path 537" d="M167.853,181.225a10.845,10.845,0,0,1-.1-1.8,3.137,3.137,0,0,1,.5-2.1,1.609,1.609,0,0,1,1.3-.6,1.8,1.8,0,0,1,1.7,1.4h0a1.767,1.767,0,0,1,1.4-1.1,6.343,6.343,0,0,0,1.8-.6v1a7.478,7.478,0,0,1-1.6.5c-.9.2-1.3.6-1.3,1.4v.8h2.894v.9h-6.586Zm2.994-.9v-1c0-1-.5-1.6-1.3-1.6s-1.2.7-1.2,1.7a2.762,2.762,0,0,0,.1.9h2.4Z" fill="#237598"/>
        <path id="Path_538" data-name="Path 538" d="M167.753,169.35h6.586v.9h-6.586Z" fill="#237598"/>
        <path id="Path_539" data-name="Path 539" d="M172.244,161.167l2.1.7v1l-6.586-2.495v-1.1l6.586-2.495v1l-2.1.8Zm-.7-2.3-1.9.7c-.4.1-.8.3-1.2.4h0a5.627,5.627,0,0,1,1.2.4l1.9.7Z" fill="#237598"/>
        <path id="Path_540" data-name="Path 540" d="M173.242,150.688a3.28,3.28,0,0,0,.4-1.7c0-1-.5-1.5-1.1-1.5-.7,0-1,.4-1.3,1.4-.4,1.2-.9,1.9-1.9,1.9s-1.8-.9-1.8-2.3a4.52,4.52,0,0,1,.3-1.6l.7.3a3.187,3.187,0,0,0-.3,1.4c0,1,.5,1.4,1,1.4.4,0,.9-.4,1.3-1.4.4-1.2,1-1.8,1.9-1.8,1,0,1.9.8,1.9,2.495a3.654,3.654,0,0,1-.4,1.8Z" fill="#237598"/>
      </g>
      <g id="Group_269" data-name="Group 269">
        <g id="Group_268" data-name="Group 268">
          <path id="Path_541" data-name="Path 541" d="M125.341,435l-6.487,15.668h-1.9l6.087-14.57h-8.183v-1.7h10.478Z" fill="#fff"/>
          <path id="Path_542" data-name="Path 542" d="M132.526,450.968a4.3,4.3,0,0,1-3.792-2.1,11.058,11.058,0,0,1-1.4-5.988,12.278,12.278,0,0,1,1.4-6.487,4.649,4.649,0,0,1,4.092-2.2q5.089,0,5.089,8.383a11.731,11.731,0,0,1-1.4,6.287A4.4,4.4,0,0,1,132.526,450.968Zm.3-15.268c-2.3,0-3.493,2.4-3.493,7.085,0,4.391,1.1,6.586,3.393,6.586s3.393-2.2,3.393-6.686C136.119,438.094,135.021,435.7,132.825,435.7Z" fill="#fff"/>
          <path id="Path_543" data-name="Path 543" d="M149.391,439.092,145.5,444.98l3.792,5.788h-2.2l-2.3-3.792c-.1-.2-.3-.5-.5-.9h0a4.527,4.527,0,0,1-.5.9l-2.3,3.792h-2.2l3.992-5.688-3.792-5.888h2.2l2.3,3.992c.2.3.3.6.5.9h0l2.894-4.89h2Z" fill="#fff"/>
          <path id="Path_544" data-name="Path 544" d="M158.472,438.693a5.057,5.057,0,0,0-.2-1.3,3.482,3.482,0,0,0-.6-.9,4.364,4.364,0,0,0-1-.6,5.009,5.009,0,0,0-1.2-.2,4.094,4.094,0,0,0-1.1.1,4.171,4.171,0,0,0-1,.4,8.776,8.776,0,0,1-1,.6,6.458,6.458,0,0,0-.9.8v-2a5.664,5.664,0,0,1,1.8-1.2,5.453,5.453,0,0,1,2.4-.4,5.811,5.811,0,0,1,1.9.3,5.289,5.289,0,0,1,1.5.8,5.009,5.009,0,0,1,1,1.4,4.05,4.05,0,0,1,.4,1.9,11,11,0,0,1-.2,1.8,5.055,5.055,0,0,1-.7,1.5,6.871,6.871,0,0,1-1.1,1.3c-.5.4-1,.9-1.6,1.3a18.857,18.857,0,0,0-1.9,1.4,14.213,14.213,0,0,0-1.2,1.1,2.659,2.659,0,0,0-.6,1,3.721,3.721,0,0,0-.2,1.2h8.083v1.7H150.988v-.8a8.951,8.951,0,0,1,.2-1.8,5.471,5.471,0,0,1,.8-1.5,4.65,4.65,0,0,1,1.4-1.4c.6-.5,1.3-1,2.1-1.6a9.81,9.81,0,0,0,1.5-1.2,10.567,10.567,0,0,0,1-1.2,6.1,6.1,0,0,0,.5-1.2A5.621,5.621,0,0,0,158.472,438.693Z" fill="#fff"/>
          <path id="Path_545" data-name="Path 545" d="M163.761,450.169v-2a5.834,5.834,0,0,0,3.792,1.3,3.994,3.994,0,0,0,2.694-.9,2.759,2.759,0,0,0,1-2.3c0-2.1-1.5-3.193-4.491-3.193h-1.4v-1.6h1.3c2.694,0,3.992-1,3.992-2.994,0-1.9-1-2.794-3.094-2.794a5.093,5.093,0,0,0-3.193,1.2v-1.8a7.23,7.23,0,0,1,3.692-.9,4.849,4.849,0,0,1,3.293,1.1,3.624,3.624,0,0,1,1.2,2.794,3.966,3.966,0,0,1-3.293,4.092h0a4.253,4.253,0,0,1,2.794,1.2,3.612,3.612,0,0,1,1,2.694,4.174,4.174,0,0,1-1.6,3.493,6.2,6.2,0,0,1-4.191,1.3A6.266,6.266,0,0,1,163.761,450.169Z" fill="#fff"/>
          <path id="Path_546" data-name="Path 546" d="M180.926,450.968a4.3,4.3,0,0,1-3.792-2.1,11.058,11.058,0,0,1-1.4-5.988,12.278,12.278,0,0,1,1.4-6.487,4.649,4.649,0,0,1,4.092-2.2q5.089,0,5.089,8.383a11.731,11.731,0,0,1-1.4,6.287A4.631,4.631,0,0,1,180.926,450.968Zm.2-15.268c-2.3,0-3.493,2.4-3.493,7.085,0,4.391,1.1,6.586,3.393,6.586s3.393-2.2,3.393-6.686C184.419,438.094,183.321,435.7,181.126,435.7Z" fill="#fff"/>
        </g>
      </g>
    </g>
    <g id="Group_274" data-name="Group 274">
      <g transform="matrix(1, 0, 0, 1, -30, -19.99)" filter="url(#Path_547)">
        <path id="Path_547-2" data-name="Path 547" d="M336.8,47.7S215.155,31.934,215.155,131.927l.2,289.3,121.449-.2Z" transform="translate(30 19.99)" fill="#fff"/>
      </g>
      <g id="Group_271" data-name="Group 271">
        <path id="Path_548" data-name="Path 548" d="M254.374,271.938v11.875h-4.291v-28.84h4.291v11.875H289.4v5.089Z" fill="#237598"/>
        <path id="Path_549" data-name="Path 549" d="M271.04,230.523v15.069H285.21V228.727H289.5v21.855H250.183V229.625h4.291v15.867h12.474V230.523Z" fill="#237598"/>
        <path id="Path_550" data-name="Path 550" d="M289.4,200.984l-8.682,4.99c-3.293,2-5.489,3.293-7.784,4.491v.1c2.3,1.1,4.391,2.2,7.784,4.191l8.682,4.69v5.788l-19.859-11.975-19.46,11.476v-5.788l9.181-5.189c2.595-1.5,4.491-2.495,6.686-3.593v-.2c-2.3-1.1-4.191-2.1-6.686-3.493l-9.181-5.289V195.4l19.16,11.875L289.4,195.2v5.788Z" fill="#237598"/>
        <path id="Path_551" data-name="Path 551" d="M254.374,181.425V193.3h-4.291V164.46h4.291v11.975H289.4v5.089l-35.028-.1Z" fill="#237598"/>
        <path id="Path_552" data-name="Path 552" d="M250.083,155.079H289.4v4.99H250.083Z" fill="#237598"/>
        <path id="Path_553" data-name="Path 553" d="M250.083,146.4v-4.99h35.028V124.742H289.4V146.4Z" fill="#237598"/>
        <path id="Path_554" data-name="Path 554" d="M250.083,393.886V372.929h4.291V388.9h13.073v-14.67h4.191V388.9H289.4v4.99Z" fill="#237598"/>
        <path id="Path_555" data-name="Path 555" d="M250.083,360.754h23.252c8.782,0,12.574-3.892,12.574-9.081,0-5.788-3.792-9.48-12.574-9.48H250.083V337.1h22.953c12.075,0,17.065,6.287,17.065,14.67,0,7.984-4.591,13.971-16.765,13.971H250.183v-4.99Z" fill="#237598"/>
        <path id="Path_556" data-name="Path 556" d="M250.083,328.421v-4.99h35.028V306.766H289.4v21.655Z" fill="#237598"/>
        <path id="Path_557" data-name="Path 557" d="M250.083,301.177v-4.99h35.028V279.622H289.4v21.655H250.083Z" fill="#237598"/>
        <path id="Path_558" data-name="Path 558" d="M300.678,393.087a4.066,4.066,0,0,0,.5-1.8c0-1-.5-1.6-1.2-1.6s-1.1.4-1.4,1.5c-.4,1.3-1,2.1-2,2.1s-1.9-1-1.9-2.495a4.662,4.662,0,0,1,.3-1.7l.7.3a4,4,0,0,0-.3,1.5c0,1.1.6,1.5,1.1,1.5s1-.5,1.4-1.5c.5-1.3,1-2,2.1-2s2.1.9,2.1,2.694a4.476,4.476,0,0,1-.5,1.9Z" fill="#237598"/>
        <path id="Path_559" data-name="Path 559" d="M298.084,374.825a3.619,3.619,0,0,1,3.792,3.193v.4a3.439,3.439,0,0,1-3.193,3.593h-.4a3.635,3.635,0,0,1-3.792-3.293v-.3a3.284,3.284,0,0,1,3.193-3.493A.754.754,0,0,1,298.084,374.825Zm.2,5.988a2.527,2.527,0,1,0,.8-4.99h-.8a2.578,2.578,0,0,0-2.894,2.2,2.432,2.432,0,0,0,2.2,2.794.852.852,0,0,0,.7,0Z" fill="#237598"/>
        <path id="Path_560" data-name="Path 560" d="M294.591,367.74v-1h6.387v-3.293h.8v4.391h-7.185Z" fill="#237598"/>
        <path id="Path_561" data-name="Path 561" d="M294.591,355.864h4.191c1.6,0,2.3-.8,2.3-1.8s-.7-1.9-2.3-1.9h-4.191v-1h4.191a2.717,2.717,0,0,1,3.094,2.3v.7a2.651,2.651,0,0,1-2.4,2.794h-4.79v-1.1Z" fill="#237598"/>
        <path id="Path_562" data-name="Path 562" d="M301.577,338.2a5.094,5.094,0,0,1,.3,2.1,3.544,3.544,0,0,1-3.193,3.792h-.4a3.707,3.707,0,0,1-3.792-3.692V340a6.266,6.266,0,0,1,.3-1.9l.8.2a4.136,4.136,0,0,0-.3,1.6,2.793,2.793,0,0,0,2.595,2.994h.5a2.771,2.771,0,0,0,2.894-2.595v-.4a4.138,4.138,0,0,0-.3-1.6Z" fill="#237598"/>
        <path id="Path_563" data-name="Path 563" d="M294.591,330.117h7.185v1h-7.185Z" fill="#237598"/>
        <path id="Path_564" data-name="Path 564" d="M298.084,315.847a3.619,3.619,0,0,1,3.792,3.193v.4a3.439,3.439,0,0,1-3.193,3.593h-.4a3.635,3.635,0,0,1-3.792-3.293v-.4a3.372,3.372,0,0,1,3.193-3.593A.754.754,0,0,0,298.084,315.847Zm.2,6.087a2.527,2.527,0,1,0,.8-4.99h-.8a2.578,2.578,0,0,0-2.894,2.2,2.432,2.432,0,0,0,2.2,2.794.852.852,0,0,0,.7,0Z" fill="#237598"/>
        <path id="Path_565" data-name="Path 565" d="M301.776,308.861h-7.185v-1.1l3.593-2.595a17.573,17.573,0,0,1,2.3-1.4h0a27.085,27.085,0,0,1-2.894.1h-2.994v-1h7.185v1l-3.593,2.495a15.73,15.73,0,0,1-2.4,1.5h5.988Z" fill="#237598"/>
        <path id="Path_566" data-name="Path 566" d="M298.383,291.4v2.994h2.595V291h.8v4.491h-7.185V291.3h.8v3.193h2.3V291.5l.7-.1Z" fill="#237598"/>
        <path id="Path_567" data-name="Path 567" d="M300.678,284.113a4.066,4.066,0,0,0,.5-1.8c0-1-.5-1.6-1.2-1.6s-1.1.4-1.4,1.5-1,2.1-2,2.1-1.9-1-1.9-2.495a4.662,4.662,0,0,1,.3-1.7l.7.3a4,4,0,0,0-.3,1.5c0,1.1.6,1.5,1.1,1.5s1-.5,1.4-1.5c.5-1.3,1-2,2.1-2s2.1.9,2.1,2.694a4.542,4.542,0,0,1-.5,2Z" fill="#237598"/>
        <path id="Path_568" data-name="Path 568" d="M294.691,264.254a12.074,12.074,0,0,1-.1-1.9,3.332,3.332,0,0,1,.6-2.2,1.8,1.8,0,0,1,1.5-.7,2.031,2.031,0,0,1,1.5.6,3.484,3.484,0,0,1,.8,2.4v.8h2.894v1h-7.185Zm3.593-1v-.8c0-1.2-.5-2-1.5-2s-1.4.7-1.4,1.8v.9l2.894.1Z" fill="#237598"/>
        <path id="Path_569" data-name="Path 569" d="M294.591,251.28h4.191c1.6,0,2.3-.8,2.3-1.8s-.7-1.9-2.3-1.9h-4.191v-1h4.191a2.717,2.717,0,0,1,3.094,2.3v.7c0,1.6-.8,2.794-2.994,2.794h-4.191v-1.1Z" fill="#237598"/>
        <path id="Path_570" data-name="Path 570" d="M294.691,239.006a10.993,10.993,0,0,1-.2-1.8,3.417,3.417,0,0,1,.5-2.2,1.706,1.706,0,0,1,1.3-.7,1.824,1.824,0,0,1,1.5,1.3h0a1.854,1.854,0,0,1,1.9-1.6,1.51,1.51,0,0,1,1.4.7,4.384,4.384,0,0,1,.7,2.694,7.1,7.1,0,0,1-.1,1.6Zm2.994-1v-.9c0-1.1-.5-1.7-1.2-1.7s-1.2.7-1.2,1.7v.9Zm3.393,0v-.8c0-1-.3-2-1.4-2s-1.4.9-1.4,2v.8Z" fill="#237598"/>
        <path id="Path_571" data-name="Path 571" d="M294.591,226.931v-1.1h6.387V222.54h.8v4.391Z" fill="#237598"/>
        <path id="Path_572" data-name="Path 572" d="M294.591,214.656h7.185v1h-7.185Z" fill="#237598"/>
        <path id="Path_573" data-name="Path 573" d="M301.577,201.683a5.094,5.094,0,0,1,.3,2.1,3.467,3.467,0,0,1-3.094,3.792h-.5a3.707,3.707,0,0,1-3.792-3.692v-.4a6.266,6.266,0,0,1,.3-1.9l.8.3a4,4,0,0,0-.3,1.5,2.793,2.793,0,0,0,2.595,2.994h.5a2.771,2.771,0,0,0,2.894-2.595v-.4a4.138,4.138,0,0,0-.3-1.6Z" fill="#237598"/>
        <path id="Path_574" data-name="Path 574" d="M294.591,193.7h7.185v1h-7.185Z" fill="#237598"/>
        <path id="Path_575" data-name="Path 575" d="M295.389,184.618v2.4h-.8v-5.788h.8v2.4h6.387v1Z" fill="#237598"/>
        <path id="Path_576" data-name="Path 576" d="M299.481,174.24l2.3.8v1l-7.185-2.694v-1.2l7.185-2.694v1l-2.3.8Zm-.7-2.595-2.1.8a9.269,9.269,0,0,1-1.3.4h0a6.455,6.455,0,0,1,1.3.4l2.1.8Z" fill="#237598"/>
        <path id="Path_577" data-name="Path 577" d="M294.691,162.564a12.224,12.224,0,0,1-.2-1.9,3.215,3.215,0,0,1,.6-2.3,1.675,1.675,0,0,1,1.4-.6,1.816,1.816,0,0,1,1.8,1.5h0a1.877,1.877,0,0,1,1.5-1.2,7.6,7.6,0,0,0,2-.6v1.1a10.906,10.906,0,0,1-1.7.5,1.464,1.464,0,0,0-1.4,1.6v.9h3.094v1Zm3.293-1v-1c0-1.1-.5-1.8-1.4-1.8-.8,0-1.3.7-1.3,1.8a3.4,3.4,0,0,0,.1,1Z" fill="#237598"/>
        <path id="Path_578" data-name="Path 578" d="M294.591,149.591h7.185v1h-7.185Z" fill="#237598"/>
        <path id="Path_579" data-name="Path 579" d="M299.481,140.809l2.3.8v1l-7.185-2.694v-1.2l7.185-2.694v1.1l-2.3.8Zm-.7-2.595-2.1.8a6.454,6.454,0,0,1-1.3.4h0a6.456,6.456,0,0,1,1.3.4l2.1.8Z" fill="#237598"/>
        <path id="Path_580" data-name="Path 580" d="M300.678,129.333a6.058,6.058,0,0,0,.5-1.8c0-1-.5-1.6-1.2-1.6s-1.1.4-1.4,1.5c-.4,1.3-1,2.1-2,2.1s-1.9-1-1.9-2.495a4.662,4.662,0,0,1,.3-1.7l.7.3a4,4,0,0,0-.3,1.5c0,1.1.6,1.5,1.1,1.5s1-.5,1.4-1.5c.5-1.3,1-2,2.1-2s2.1.9,2.1,2.694a4.543,4.543,0,0,1-.5,2Z" fill="#237598"/>
      </g>
      <g id="Group_273" data-name="Group 273">
        <g id="Group_272" data-name="Group 272">
          <path id="Path_581" data-name="Path 581" d="M244,442.186h0c-2-1-2.894-2.3-2.894-3.992a3.6,3.6,0,0,1,1.3-2.894,5.064,5.064,0,0,1,3.493-1.1,4.5,4.5,0,0,1,3.094,1.1,3.417,3.417,0,0,1,1.2,2.694q0,2.694-2.994,4.191h0c2.4.9,3.593,2.3,3.593,4.391a3.8,3.8,0,0,1-1.5,3.193,6.25,6.25,0,0,1-4.092,1.2,5.3,5.3,0,0,1-3.493-1.2,3.942,3.942,0,0,1-1.4-3.094C240.4,444.681,241.6,443.084,244,442.186Zm1.5.9c-2.1.8-3.094,2-3.094,3.593a2.512,2.512,0,0,0,.9,2,3.641,3.641,0,0,0,2.4.8,3.558,3.558,0,0,0,2.3-.8,2.458,2.458,0,0,0,.9-1.9C248.786,445.08,247.688,443.882,245.492,443.084Zm2.794-4.89a2.264,2.264,0,0,0-.7-1.8,2.877,2.877,0,0,0-1.9-.6,2.484,2.484,0,0,0-1.9.7,2.285,2.285,0,0,0-.8,1.7c0,1.4.9,2.495,2.694,3.193C247.389,440.589,248.287,439.491,248.287,438.194Z" fill="#fff"/>
          <path id="Path_582" data-name="Path 582" d="M257.967,450.968a4.3,4.3,0,0,1-3.792-2.1,11.058,11.058,0,0,1-1.4-5.988,12.278,12.278,0,0,1,1.4-6.487,4.649,4.649,0,0,1,4.092-2.2q5.089,0,5.089,8.383a11.731,11.731,0,0,1-1.4,6.287A4.514,4.514,0,0,1,257.967,450.968Zm.2-15.268c-2.3,0-3.493,2.4-3.493,7.085,0,4.391,1.1,6.586,3.393,6.586s3.393-2.2,3.393-6.686C261.559,438.094,260.461,435.7,258.166,435.7Z" fill="#fff"/>
          <path id="Path_583" data-name="Path 583" d="M274.732,439.092l-3.892,5.888,3.792,5.788h-2.2l-2.3-3.792c-.1-.2-.3-.5-.5-.9h0a4.527,4.527,0,0,1-.5.9l-2.3,3.792h-2.2l3.992-5.688-3.792-5.888h2.2l2.3,3.992c.2.3.3.6.5.9h0l2.894-4.89h2Z" fill="#fff"/>
          <path id="Path_584" data-name="Path 584" d="M283.813,438.693a5.056,5.056,0,0,0-.2-1.3,3.483,3.483,0,0,0-.6-.9,4.365,4.365,0,0,0-1-.6,5.009,5.009,0,0,0-1.2-.2,4.093,4.093,0,0,0-1.1.1,4.171,4.171,0,0,0-1,.4,8.773,8.773,0,0,1-1,.6,6.457,6.457,0,0,0-.9.8v-2a5.663,5.663,0,0,1,1.8-1.2,5.453,5.453,0,0,1,2.4-.4,5.811,5.811,0,0,1,1.9.3,5.289,5.289,0,0,1,1.5.8,5.008,5.008,0,0,1,1,1.4,4.05,4.05,0,0,1,.4,1.9,11,11,0,0,1-.2,1.8,5.055,5.055,0,0,1-.7,1.5,6.871,6.871,0,0,1-1.1,1.3c-.5.4-1,.9-1.6,1.3a18.857,18.857,0,0,0-1.9,1.4,14.216,14.216,0,0,0-1.2,1.1,2.659,2.659,0,0,0-.6,1,3.722,3.722,0,0,0-.2,1.2h8.083v1.7H276.329v-.8a8.951,8.951,0,0,1,.2-1.8,5.471,5.471,0,0,1,.8-1.5,4.65,4.65,0,0,1,1.4-1.4c.6-.5,1.3-1,2.1-1.6a9.808,9.808,0,0,0,1.5-1.2,10.564,10.564,0,0,0,1-1.2,6.1,6.1,0,0,0,.5-1.2A5.619,5.619,0,0,0,283.813,438.693Z" fill="#fff"/>
          <path id="Path_585" data-name="Path 585" d="M289.5,450.369v-2a6.49,6.49,0,0,0,3.393,1.1,3.7,3.7,0,0,0,2.794-1,3.46,3.46,0,0,0,1.1-2.595,3.1,3.1,0,0,0-1.1-2.495,4.762,4.762,0,0,0-3.094-.9c-.5,0-1.3,0-2.595.1V434.4h7.884v1.7H291.8v4.79h1.4a5.929,5.929,0,0,1,4.092,1.3,4.527,4.527,0,0,1,1.4,3.593,4.887,4.887,0,0,1-1.5,3.792,5.623,5.623,0,0,1-4.191,1.4A7.28,7.28,0,0,1,289.5,450.369Z" fill="#fff"/>
          <path id="Path_586" data-name="Path 586" d="M306.267,450.968a4.3,4.3,0,0,1-3.792-2.1,11.058,11.058,0,0,1-1.4-5.988,12.278,12.278,0,0,1,1.4-6.487,4.649,4.649,0,0,1,4.092-2.2q5.089,0,5.089,8.383a11.731,11.731,0,0,1-1.4,6.287A4.514,4.514,0,0,1,306.267,450.968Zm.3-15.268c-2.3,0-3.493,2.4-3.493,7.085,0,4.391,1.1,6.586,3.393,6.586s3.393-2.2,3.393-6.686C309.859,438.094,308.762,435.7,306.566,435.7Z" fill="#fff"/>
        </g>
      </g>
    </g>
    <g id="Group_278" data-name="Group 278">
      <g transform="matrix(1, 0, 0, 1, -30, -19.99)" filter="url(#Path_587)">
        <path id="Path_587-2" data-name="Path 587" d="M493.779,1S352.172-16.167,352.172,92.808V420.032l141.607.2Z" transform="translate(30 19.99)" fill="#fff"/>
      </g>
      <g id="Group_275" data-name="Group 275">
        <path id="Path_588" data-name="Path 588" d="M397.678,250.482v13.772h-4.99v-33.63h4.99v13.871h40.816v5.888C438.593,250.482,397.678,250.482,397.678,250.482Z" fill="#237598"/>
        <path id="Path_589" data-name="Path 589" d="M417.138,202.182v17.663H433.7V200.186h4.99v25.547H392.788V201.284h4.99v18.562h14.47V202.182Z" fill="#237598"/>
        <path id="Path_590" data-name="Path 590" d="M438.593,167.653l-10.179,5.788c-3.892,2.4-6.387,3.792-9.081,5.189v.1c2.694,1.3,5.09,2.595,9.081,4.89l10.079,5.489V195.8l-23.252-13.971L392.588,195.3V188.61l10.778-5.988c2.994-1.7,5.289-2.994,7.784-4.191v-.2c-2.694-1.3-4.79-2.4-7.784-4.092l-10.778-6.187v-6.686l22.354,13.772,23.551-14.171v6.786Z" fill="#237598"/>
        <path id="Path_591" data-name="Path 591" d="M397.678,144.9v13.772h-4.99v-33.63h4.99v13.971h40.816V144.9Z" fill="#237598"/>
        <path id="Path_592" data-name="Path 592" d="M392.688,114.164h45.905v5.788H392.688Z" fill="#237598"/>
        <path id="Path_593" data-name="Path 593" d="M392.688,103.985V98.1H433.6V78.737h4.99v25.248Z" fill="#237598"/>
        <path id="Path_594" data-name="Path 594" d="M392.688,392.788V368.338h4.99V386.9h15.268V369.736h4.89V386.9h20.757v5.788H392.688Z" fill="#237598"/>
        <path id="Path_595" data-name="Path 595" d="M392.688,354.168h27.144c10.279,0,14.67-4.491,14.67-10.578,0-6.686-4.491-11.077-14.67-11.077H392.688v-5.888h26.745c14.071,0,19.859,7.385,19.859,17.165,0,9.281-5.389,16.266-19.659,16.266H392.588v-5.888Z" fill="#237598"/>
        <path id="Path_596" data-name="Path 596" d="M392.688,316.446v-5.888H433.6V291.2h4.99v25.248Z" fill="#237598"/>
        <path id="Path_597" data-name="Path 597" d="M392.688,284.612v-5.888H433.6v-19.36h4.99v25.248Z" fill="#237598"/>
        <path id="Path_598" data-name="Path 598" d="M451.666,391.89a5.363,5.363,0,0,0,.5-2.1c0-1.2-.6-1.9-1.4-1.9s-1.2.5-1.7,1.7c-.5,1.5-1.2,2.4-2.4,2.4s-2.3-1.2-2.3-2.994a4.468,4.468,0,0,1,.4-2l.9.3a3.28,3.28,0,0,0-.4,1.7c0,1.2.7,1.7,1.3,1.7s1.2-.5,1.6-1.7c.5-1.5,1.2-2.3,2.495-2.3s2.4,1,2.4,3.193a5.439,5.439,0,0,1-.5,2.2Z" fill="#237598"/>
        <path id="Path_599" data-name="Path 599" d="M448.772,370.534a4.055,4.055,0,0,1,4.391,3.792v.5a3.92,3.92,0,0,1-3.792,4.092h-.5a4.194,4.194,0,0,1-4.391-3.792v-.4a3.92,3.92,0,0,1,3.792-4.092A.748.748,0,0,1,448.772,370.534Zm.1,7.085a2.952,2.952,0,0,0,3.393-2.495,3.005,3.005,0,0,0-2.495-3.393h-.9a3.084,3.084,0,0,0-3.393,2.495,2.93,2.93,0,0,0,2.595,3.293h.8Z" fill="#237598"/>
        <path id="Path_600" data-name="Path 600" d="M444.681,362.251v-1.2h7.385v-3.792h.9v5.089h-8.283Z" fill="#237598"/>
        <path id="Path_601" data-name="Path 601" d="M444.681,348.48h4.89c1.9,0,2.694-.9,2.694-2.1s-.8-2.2-2.694-2.2h-4.89v-1.2h4.89a3.179,3.179,0,0,1,3.593,2.694v.8a3.038,3.038,0,0,1-2.794,3.293h-5.688Z" fill="#237598"/>
        <path id="Path_602" data-name="Path 602" d="M452.764,327.822a6.709,6.709,0,0,1,.4,2.4,4.1,4.1,0,0,1-3.692,4.391h-.5a4.345,4.345,0,0,1-4.391-4.291v-.5a5.689,5.689,0,0,1,.4-2.2l.9.3a5.836,5.836,0,0,0-.4,1.9,3.24,3.24,0,0,0,2.994,3.493h.6a3.16,3.16,0,0,0,3.393-2.994v-.5a4.05,4.05,0,0,0-.4-1.9Z" fill="#237598"/>
        <path id="Path_603" data-name="Path 603" d="M444.681,318.442h8.283v1.2h-8.283Z" fill="#237598"/>
        <path id="Path_604" data-name="Path 604" d="M448.772,301.776a4.055,4.055,0,0,1,4.391,3.792v.5a3.92,3.92,0,0,1-3.792,4.092h-.5a4.194,4.194,0,0,1-4.391-3.792v-.4a3.906,3.906,0,0,1,3.692-4.092A1.265,1.265,0,0,1,448.772,301.776Zm.1,7.085a2.952,2.952,0,0,0,3.393-2.495,3.005,3.005,0,0,0-2.495-3.393h-.9a3.084,3.084,0,0,0-3.393,2.495,2.93,2.93,0,0,0,2.595,3.293h.9Z" fill="#237598"/>
        <path id="Path_605" data-name="Path 605" d="M452.964,293.593h-8.283v-1.3l4.191-2.994a19.058,19.058,0,0,1,2.694-1.6h0c-1.1.1-2.1.1-3.393.1h-3.493v-1.1h8.283v1.2l-4.191,2.894a26,26,0,0,1-2.794,1.7h6.986v1.1Z" fill="#237598"/>
        <path id="Path_606" data-name="Path 606" d="M449.072,273.235v3.493h2.994v-3.992h.9v5.189h-8.283v-4.89h.9v3.792h2.595v-3.493l.9-.1Z" fill="#237598"/>
        <path id="Path_607" data-name="Path 607" d="M451.666,264.653a5.363,5.363,0,0,0,.5-2.1c0-1.2-.6-1.9-1.4-1.9s-1.2.5-1.7,1.7-1.2,2.4-2.4,2.4-2.3-1.2-2.3-2.994a4.468,4.468,0,0,1,.4-2l.9.3a3.28,3.28,0,0,0-.4,1.7c0,1.2.7,1.7,1.3,1.7s1.2-.6,1.6-1.7c.5-1.6,1.2-2.3,2.495-2.3s2.4,1,2.4,3.193a5.92,5.92,0,0,1-.5,2.3Z" fill="#237598"/>
        <path id="Path_608" data-name="Path 608" d="M444.78,241.5a17.816,17.816,0,0,1-.2-2.3,4.1,4.1,0,0,1,.7-2.595,2.337,2.337,0,0,1,1.8-.8,2.4,2.4,0,0,1,1.8.7,3.65,3.65,0,0,1,.9,2.794v1h3.293v1.2Zm4.092-1.1v-1c0-1.4-.6-2.3-1.8-2.3-1.1,0-1.6.8-1.6,2.2v1.1Z" fill="#237598"/>
        <path id="Path_609" data-name="Path 609" d="M444.681,226.432h4.89c1.9,0,2.694-.9,2.694-2.1s-.8-2.2-2.694-2.2h-4.89v-1.2h4.89a3.179,3.179,0,0,1,3.593,2.694v.8c0,1.9-1,3.293-3.493,3.293h-4.99Z" fill="#237598"/>
        <path id="Path_610" data-name="Path 610" d="M444.78,212.062a14.948,14.948,0,0,1-.2-2.2,3.607,3.607,0,0,1,.6-2.495,1.76,1.76,0,0,1,1.5-.8,2.014,2.014,0,0,1,1.8,1.6h0a2.244,2.244,0,0,1,2.2-1.9,2.285,2.285,0,0,1,1.7.8,5.11,5.11,0,0,1,.8,3.193,8.143,8.143,0,0,1-.1,1.8H444.78Zm3.393-1.1v-1.1c0-1.3-.6-2-1.4-2s-1.4.8-1.4,2v1h2.794Zm3.992,0v-1c0-1.2-.4-2.4-1.6-2.4s-1.6,1.1-1.6,2.4v1Z" fill="#237598"/>
        <path id="Path_611" data-name="Path 611" d="M444.681,197.991v-1.3h7.385V192.8h.9v5.089Z" fill="#237598"/>
        <path id="Path_612" data-name="Path 612" d="M444.681,183.72h8.283v1.2h-8.283Z" fill="#237598"/>
        <path id="Path_613" data-name="Path 613" d="M452.764,168.552a6.709,6.709,0,0,1,.4,2.4,4.182,4.182,0,0,1-3.593,4.491h-.6a4.345,4.345,0,0,1-4.391-4.291v-.5a5.688,5.688,0,0,1,.4-2.2l.9.3a10.44,10.44,0,0,0-.4,1.7,3.24,3.24,0,0,0,2.994,3.493h.6a3.16,3.16,0,0,0,3.393-2.994v-.5a4.05,4.05,0,0,0-.4-1.9Z" fill="#237598"/>
        <path id="Path_614" data-name="Path 614" d="M444.681,159.171h8.283v1.2h-8.283Z" fill="#237598"/>
        <path id="Path_615" data-name="Path 615" d="M445.579,148.693v2.794h-.9V144.7h.9V147.5h7.385v1.2Z" fill="#237598"/>
        <path id="Path_616" data-name="Path 616" d="M450.369,136.518l2.595,1v1.2l-8.283-3.094v-1.4l8.283-3.094v1.2l-2.595,1Zm-.8-2.994-2.4.9c-.5.2-1,.3-1.5.5h0a8.782,8.782,0,0,1,1.5.5l2.4.9Z" fill="#237598"/>
        <path id="Path_617" data-name="Path 617" d="M444.78,122.946a16.379,16.379,0,0,1-.2-2.3,4.384,4.384,0,0,1,.7-2.694,1.986,1.986,0,0,1,1.6-.7,2.243,2.243,0,0,1,2.1,1.7h0a2.067,2.067,0,0,1,1.8-1.3,15.424,15.424,0,0,0,2.3-.7v1.3a6.623,6.623,0,0,1-2,.6c-1.1.3-1.6.8-1.6,1.8v1.1h3.593v1.2Zm3.792-1.2v-1.2c0-1.3-.6-2.1-1.6-2.1s-1.5.9-1.6,2.1a4.859,4.859,0,0,0,.1,1.2Z" fill="#237598"/>
        <path id="Path_618" data-name="Path 618" d="M444.681,107.777h8.283v1.2h-8.283Z" fill="#237598"/>
        <path id="Path_619" data-name="Path 619" d="M450.369,97.5l2.595.9v1.2L444.681,96.5V95.1l8.283-3.094v1.3l-2.595,1Zm-.8-2.994-2.4.9c-.5.2-1,.3-1.5.5h0a8.782,8.782,0,0,1,1.5.5l2.4.9Z" fill="#237598"/>
        <path id="Path_620" data-name="Path 620" d="M451.666,84.126a5.363,5.363,0,0,0,.5-2.1c0-1.2-.6-1.9-1.4-1.9s-1.2.5-1.7,1.7c-.5,1.5-1.2,2.4-2.4,2.4s-2.3-1.2-2.3-2.994a4.468,4.468,0,0,1,.4-2l.9.3a3.28,3.28,0,0,0-.4,1.7c0,1.3.7,1.7,1.3,1.7s1.2-.6,1.6-1.7c.5-1.5,1.2-2.3,2.495-2.3s2.4,1,2.4,3.193a5.92,5.92,0,0,1-.5,2.3Z" fill="#237598"/>
      </g>
      <g id="Group_277" data-name="Group 277">
        <g id="Group_276" data-name="Group 276">
          <path id="Path_621" data-name="Path 621" d="M388.2,449.67h-1.9V435.6c-.1.1-.4.3-.6.5l-.9.6a3.689,3.689,0,0,1-1.1.5,7.575,7.575,0,0,1-1.1.4v-1.9a11.193,11.193,0,0,0,1.3-.5c.5-.2.9-.4,1.4-.6a5.659,5.659,0,0,0,1.3-.8,8.724,8.724,0,0,0,1-.8h.7V449.67Z" fill="#fff"/>
          <path id="Path_622" data-name="Path 622" d="M398.576,449.97a4.3,4.3,0,0,1-3.792-2.1,11.058,11.058,0,0,1-1.4-5.988,12.277,12.277,0,0,1,1.4-6.487,4.649,4.649,0,0,1,4.092-2.2q5.089,0,5.09,8.383a11.731,11.731,0,0,1-1.4,6.287A4.742,4.742,0,0,1,398.576,449.97Zm.3-15.268c-2.3,0-3.493,2.4-3.493,7.085,0,4.391,1.1,6.586,3.393,6.586s3.393-2.2,3.393-6.686C402.169,437,401.071,434.7,398.875,434.7Z" fill="#fff"/>
          <path id="Path_623" data-name="Path 623" d="M411.15,449.97a4.3,4.3,0,0,1-3.792-2.1,11.058,11.058,0,0,1-1.4-5.988,12.277,12.277,0,0,1,1.4-6.487,4.649,4.649,0,0,1,4.092-2.2q5.09,0,5.09,8.383a11.731,11.731,0,0,1-1.4,6.287A4.742,4.742,0,0,1,411.15,449.97Zm.2-15.268c-2.3,0-3.493,2.4-3.493,7.085,0,4.391,1.1,6.586,3.393,6.586s3.393-2.2,3.393-6.686C414.743,437,413.645,434.7,411.35,434.7Z" fill="#fff"/>
          <path id="Path_624" data-name="Path 624" d="M427.915,437.994l-3.892,5.888,3.792,5.788h-2.2l-2.3-3.792c-.1-.2-.3-.5-.5-.9h0a4.529,4.529,0,0,1-.5.9l-2.3,3.792h-2.2l3.992-5.688-3.792-5.888h2.2l2.3,3.992c.2.3.3.6.5.9h0l2.894-4.89h2Z" fill="#fff"/>
          <path id="Path_625" data-name="Path 625" d="M429.712,449.072v-2a5.834,5.834,0,0,0,3.792,1.3,3.994,3.994,0,0,0,2.694-.9,2.759,2.759,0,0,0,1-2.3c0-2.1-1.5-3.193-4.491-3.193h-1.4v-1.6h1.3c2.694,0,3.992-1,3.992-2.994,0-1.9-1-2.794-3.094-2.794a5.093,5.093,0,0,0-3.193,1.2V434a7.229,7.229,0,0,1,3.692-.9,4.849,4.849,0,0,1,3.293,1.1,3.624,3.624,0,0,1,1.2,2.794,3.966,3.966,0,0,1-3.293,4.092h0a4.253,4.253,0,0,1,2.794,1.2,3.612,3.612,0,0,1,1,2.694,4.174,4.174,0,0,1-1.6,3.493,6.2,6.2,0,0,1-4.191,1.3A5.179,5.179,0,0,1,429.712,449.072Z" fill="#fff"/>
          <path id="Path_626" data-name="Path 626" d="M446.876,449.97a4.3,4.3,0,0,1-3.792-2.1,11.058,11.058,0,0,1-1.4-5.988,12.278,12.278,0,0,1,1.4-6.487,4.649,4.649,0,0,1,4.092-2.2q5.089,0,5.089,8.383a11.731,11.731,0,0,1-1.4,6.287A4.616,4.616,0,0,1,446.876,449.97Zm.3-15.268c-2.3,0-3.493,2.4-3.493,7.085,0,4.391,1.1,6.586,3.393,6.586s3.393-2.2,3.393-6.686C450.469,437,449.371,434.7,447.175,434.7Z" fill="#fff"/>
          <path id="Path_627" data-name="Path 627" d="M459.45,449.97a4.3,4.3,0,0,1-3.792-2.1,11.058,11.058,0,0,1-1.4-5.988,12.278,12.278,0,0,1,1.4-6.487,4.649,4.649,0,0,1,4.092-2.2q5.089,0,5.089,8.383a11.731,11.731,0,0,1-1.4,6.287A4.742,4.742,0,0,1,459.45,449.97Zm.3-15.268c-2.3,0-3.493,2.4-3.493,7.085,0,4.391,1.1,6.586,3.393,6.586s3.393-2.2,3.393-6.686C463.043,437,461.945,434.7,459.749,434.7Z" fill="#fff"/>
        </g>
      </g>
    </g>
    <g id="Group_280" data-name="Group 280">
      <g id="Group_279" data-name="Group 279">
        <path id="Path_628" data-name="Path 628" d="M7.385,475.217l-2.495.5,1.7,2.2-1,.7-1.4-2.4-1.4,2.4-1-.7,1.7-2.2L1,475.217l.4-1.1,2.4.9-.2-2.794h1.3l-.3,2.794,2.4-.9Z" fill="#fff"/>
        <path id="Path_629" data-name="Path 629" d="M23.152,485.3h-1.5v-8.782c0-.7,0-1.5.1-2.595h0a6.817,6.817,0,0,1-.4,1.3L16.865,485.3h-.8l-4.491-9.979a6.818,6.818,0,0,1-.4-1.3h0c0,.5.1,1.4.1,2.595V485.4H9.78V472.323h2l3.992,9.181a11.592,11.592,0,0,1,.6,1.6h.1c.3-.7.5-1.3.6-1.6l4.092-9.081h1.9V485.3Z" fill="#fff"/>
        <path id="Path_630" data-name="Path 630" d="M33.93,481.006H27.343a3.457,3.457,0,0,0,.8,2.4,2.787,2.787,0,0,0,2.2.9,4.442,4.442,0,0,0,2.894-1v1.4a5.378,5.378,0,0,1-3.293.9,3.732,3.732,0,0,1-3.094-1.3,6.2,6.2,0,0,1,.1-7.185,4.092,4.092,0,0,1,3.094-1.4,3.691,3.691,0,0,1,2.894,1.2,4.816,4.816,0,0,1,1,3.293Zm-1.6-1.3a2.98,2.98,0,0,0-.6-2,2.056,2.056,0,0,0-1.7-.7,2.5,2.5,0,0,0-1.8.8,3.366,3.366,0,0,0-.9,2h4.99Z" fill="#fff"/>
        <path id="Path_631" data-name="Path 631" d="M44.209,485.3h-1.5v-1.6h0a3.488,3.488,0,0,1-3.193,1.8,3.278,3.278,0,0,1-2.794-1.3,5.126,5.126,0,0,1-1.1-3.393,5.3,5.3,0,0,1,1.2-3.692,3.942,3.942,0,0,1,3.094-1.4,2.993,2.993,0,0,1,2.794,1.5h0v-5.788h1.5Zm-1.5-4.191v-1.4a2.726,2.726,0,0,0-2.694-2.694,2.694,2.694,0,0,0-2.2,1,4.645,4.645,0,0,0-.8,2.794,4.229,4.229,0,0,0,.8,2.595,2.667,2.667,0,0,0,3.992,0A3.161,3.161,0,0,0,42.712,481.105Z" fill="#fff"/>
        <path id="Path_632" data-name="Path 632" d="M48,473.621a1.023,1.023,0,1,1,.7-.3A.906.906,0,0,1,48,473.621Zm.7,11.676H47.2v-9.381h1.5Z" fill="#fff"/>
        <path id="Path_633" data-name="Path 633" d="M59.776,485.3h-1.5v-1.6h0a3.488,3.488,0,0,1-3.193,1.8,3.278,3.278,0,0,1-2.794-1.3,5.126,5.126,0,0,1-1.1-3.393,5.3,5.3,0,0,1,1.2-3.692,3.942,3.942,0,0,1,3.094-1.4,2.993,2.993,0,0,1,2.794,1.5h0v-5.788h1.5Zm-1.5-4.191v-1.4a2.726,2.726,0,0,0-2.694-2.694,2.694,2.694,0,0,0-2.2,1,4.645,4.645,0,0,0-.8,2.794,4.228,4.228,0,0,0,.8,2.595,2.667,2.667,0,0,0,3.992,0A3.161,3.161,0,0,0,58.28,481.105Z" fill="#fff"/>
        <path id="Path_634" data-name="Path 634" d="M69.456,485.3h-1.5v-1.5h0a3.235,3.235,0,0,1-2.894,1.7,3.063,3.063,0,0,1-2.2-.7,2.786,2.786,0,0,1-.8-2c0-1.8,1-2.794,3.094-3.094l2.794-.4c0-1.6-.6-2.4-1.9-2.4a4.643,4.643,0,0,0-3.094,1.2v-1.5a5.7,5.7,0,0,1,3.193-.9c2.2,0,3.293,1.2,3.293,3.493Zm-1.5-4.69-2.3.3a5.024,5.024,0,0,0-1.6.5c-.4.2-.5.7-.5,1.3a1.43,1.43,0,0,0,.5,1.1,1.84,1.84,0,0,0,1.3.4,2.337,2.337,0,0,0,1.8-.8,3.214,3.214,0,0,0,.7-2v-.8Z" fill="#fff"/>
        <path id="Path_635" data-name="Path 635" d="M71.752,485v-1.6a4.379,4.379,0,0,0,2.694.9c1.3,0,2-.4,2-1.3a.844.844,0,0,0-.2-.6c-.1-.2-.3-.3-.5-.5a4.341,4.341,0,0,0-.7-.4c-.3-.1-.5-.2-.8-.3a11.713,11.713,0,0,1-1.1-.5,5.536,5.536,0,0,1-.8-.6,3.032,3.032,0,0,1-.5-.7,2.914,2.914,0,0,1-.2-.9,2.657,2.657,0,0,1,.3-1.2,6.458,6.458,0,0,1,.8-.9,2.19,2.19,0,0,1,1.2-.5,5.841,5.841,0,0,1,1.3-.2,5.37,5.37,0,0,1,2.2.4v1.5a3.978,3.978,0,0,0-2.4-.7,2.2,2.2,0,0,0-.8.1l-.6.3c-.2.1-.3.3-.4.4a.9.9,0,0,0-.1.5,1.266,1.266,0,0,0,.1.6.779.779,0,0,0,.4.4l.6.3a6.87,6.87,0,0,0,.8.3,11.706,11.706,0,0,1,1.1.5,5.536,5.536,0,0,1,.8.6,3.032,3.032,0,0,1,.5.7,2.952,2.952,0,0,1,.2,1,2.128,2.128,0,0,1-.3,1.2,6.456,6.456,0,0,1-.8.9,3.33,3.33,0,0,1-1.2.5,5.888,5.888,0,0,1-1.4.2A3.47,3.47,0,0,1,71.752,485Z" fill="#fff"/>
        <path id="Path_636" data-name="Path 636" d="M92.908,481.006H86.322a3.457,3.457,0,0,0,.8,2.4,2.787,2.787,0,0,0,2.2.9,4.442,4.442,0,0,0,2.894-1v1.4a5.378,5.378,0,0,1-3.293.9,3.732,3.732,0,0,1-3.094-1.3,6.2,6.2,0,0,1,.1-7.185,4.092,4.092,0,0,1,3.094-1.4,3.691,3.691,0,0,1,2.894,1.2,4.816,4.816,0,0,1,1,3.293Zm-1.5-1.3a2.98,2.98,0,0,0-.6-2,2.056,2.056,0,0,0-1.7-.7,2.5,2.5,0,0,0-1.8.8,3.366,3.366,0,0,0-.9,2h4.99Z" fill="#fff"/>
        <path id="Path_637" data-name="Path 637" d="M102.987,485.3h-1.5v-5.289c0-2-.7-2.994-2.2-2.994a2.555,2.555,0,0,0-1.9.8,3.132,3.132,0,0,0-.7,2.1V485.3H95.2v-9.381h1.5v1.6h0a3.337,3.337,0,0,1,3.094-1.8,2.958,2.958,0,0,1,2.4,1,4.176,4.176,0,0,1,.8,2.894V485.3Z" fill="#fff"/>
        <path id="Path_638" data-name="Path 638" d="M117.357,484.9a5.268,5.268,0,0,1-2.595.7,4.072,4.072,0,0,1-3.193-1.3,4.861,4.861,0,0,1-1.2-3.393,5.066,5.066,0,0,1,1.3-3.692,4.816,4.816,0,0,1,3.493-1.4,5.08,5.08,0,0,1,2.2.5v1.5a3.592,3.592,0,0,0-2.2-.7,3.1,3.1,0,0,0-2.4,1,4.341,4.341,0,0,0,0,5.289,3.249,3.249,0,0,0,2.3,1,4,4,0,0,0,2.3-.8v1.3Z" fill="#fff"/>
        <path id="Path_639" data-name="Path 639" d="M127.137,481.006h-6.586a3.457,3.457,0,0,0,.8,2.4,2.787,2.787,0,0,0,2.2.9,4.442,4.442,0,0,0,2.894-1v1.4a5.378,5.378,0,0,1-3.293.9,3.732,3.732,0,0,1-3.094-1.3,6.2,6.2,0,0,1,.1-7.185,4.092,4.092,0,0,1,3.094-1.4,3.691,3.691,0,0,1,2.894,1.2,4.816,4.816,0,0,1,1,3.293Zm-1.6-1.3a2.98,2.98,0,0,0-.6-2,2.056,2.056,0,0,0-1.7-.7,2.5,2.5,0,0,0-1.8.8,3.366,3.366,0,0,0-.9,2h4.99Z" fill="#fff"/>
        <path id="Path_640" data-name="Path 640" d="M137.216,485.3h-1.5v-5.289c0-2-.7-2.994-2.2-2.994a2.555,2.555,0,0,0-1.9.8,3.132,3.132,0,0,0-.7,2.1V485.3h-1.5v-9.381h1.5v1.6h0a3.337,3.337,0,0,1,3.094-1.8,2.958,2.958,0,0,1,2.4,1,4.176,4.176,0,0,1,.8,2.894V485.3Z" fill="#fff"/>
        <path id="Path_641" data-name="Path 641" d="M144.3,485.2a2.9,2.9,0,0,1-1.4.3c-1.6,0-2.495-.9-2.495-2.794v-5.588h-1.6v-1.3h1.6v-2.3l1.5-.5v2.794h2.4v1.3h-2.4V482.4a2.058,2.058,0,0,0,.3,1.3,1.6,1.6,0,0,0,1.1.4,1.686,1.686,0,0,0,1-.3v1.4Z" fill="#fff"/>
        <path id="Path_642" data-name="Path 642" d="M147.1,473.621a1.023,1.023,0,1,1,.7-.3A.906.906,0,0,1,147.1,473.621Zm.7,11.676h-1.5v-9.381h1.5Z" fill="#fff"/>
        <path id="Path_643" data-name="Path 643" d="M164.161,485.3h-1.5v-5.389a4.607,4.607,0,0,0-.5-2.3,1.749,1.749,0,0,0-1.6-.7,1.918,1.918,0,0,0-1.6.9,3.763,3.763,0,0,0-.7,2.1V485.3h-1.5v-5.588c0-1.8-.7-2.794-2.1-2.794a1.939,1.939,0,0,0-1.6.8,3.8,3.8,0,0,0-.6,2.2V485.3h-1.5v-9.381h1.5v1.5h0a3.235,3.235,0,0,1,2.894-1.7,3.364,3.364,0,0,1,1.7.5,2.8,2.8,0,0,1,1,1.4,3.258,3.258,0,0,1,3.094-1.9c2.1,0,3.094,1.3,3.094,3.792V485.3Z" fill="#fff"/>
        <path id="Path_644" data-name="Path 644" d="M174.539,481.006h-6.586a3.457,3.457,0,0,0,.8,2.4,2.787,2.787,0,0,0,2.2.9,4.442,4.442,0,0,0,2.894-1v1.4a5.378,5.378,0,0,1-3.293.9,3.732,3.732,0,0,1-3.094-1.3,6.2,6.2,0,0,1,.1-7.185,4.092,4.092,0,0,1,3.094-1.4,3.691,3.691,0,0,1,2.894,1.2,4.816,4.816,0,0,1,1,3.293v.8Zm-1.5-1.3a2.98,2.98,0,0,0-.6-2,2.056,2.056,0,0,0-1.7-.7,2.5,2.5,0,0,0-1.8.8,3.366,3.366,0,0,0-.9,2h4.99Z" fill="#fff"/>
        <path id="Path_645" data-name="Path 645" d="M181.126,485.2a2.9,2.9,0,0,1-1.4.3c-1.6,0-2.495-.9-2.495-2.794v-5.588h-1.6v-1.3h1.6v-2.3l1.5-.5v2.794h2.4v1.3h-2.4V482.4a2.058,2.058,0,0,0,.3,1.3,1.6,1.6,0,0,0,1.1.4,1.686,1.686,0,0,0,1-.3v1.4Z" fill="#fff"/>
        <path id="Path_646" data-name="Path 646" d="M188.011,477.513a1.793,1.793,0,0,0-1.1-.3,1.918,1.918,0,0,0-1.6.9,4.389,4.389,0,0,0-.6,2.495v4.79h-1.5v-9.381h1.5v1.9h0a2.371,2.371,0,0,1,1-1.5,2.031,2.031,0,0,1,1.5-.6,2.215,2.215,0,0,1,.9.1v1.6Z" fill="#fff"/>
        <path id="Path_647" data-name="Path 647" d="M193.6,485.5a4.147,4.147,0,0,1-3.293-1.3,5.8,5.8,0,0,1,.1-7.185,4.592,4.592,0,0,1,3.493-1.3,4.147,4.147,0,0,1,3.293,1.3,5.208,5.208,0,0,1,1.2,3.593,4.826,4.826,0,0,1-1.3,3.593A4.742,4.742,0,0,1,193.6,485.5Zm.1-8.482a2.759,2.759,0,0,0-2.3,1,3.946,3.946,0,0,0-.8,2.694,3.566,3.566,0,0,0,.9,2.595,3.077,3.077,0,0,0,2.3,1,2.651,2.651,0,0,0,2.2-.9,4.946,4.946,0,0,0,0-5.389A2.921,2.921,0,0,0,193.7,477.014Z" fill="#fff"/>
        <path id="Path_648" data-name="Path 648" d="M200.086,485v-1.6a4.379,4.379,0,0,0,2.694.9c1.3,0,2-.4,2-1.3a.844.844,0,0,0-.2-.6c-.1-.2-.3-.3-.5-.5a4.341,4.341,0,0,0-.7-.4c-.3-.1-.5-.2-.8-.3a11.717,11.717,0,0,1-1.1-.5,5.536,5.536,0,0,1-.8-.6,3.032,3.032,0,0,1-.5-.7,2.913,2.913,0,0,1-.2-.9,2.657,2.657,0,0,1,.3-1.2,6.458,6.458,0,0,1,.8-.9,2.191,2.191,0,0,1,1.2-.5,5.84,5.84,0,0,1,1.3-.2,5.37,5.37,0,0,1,2.2.4v1.5a3.978,3.978,0,0,0-2.4-.7,2.2,2.2,0,0,0-.8.1l-.6.3c-.2.1-.3.3-.4.4a.9.9,0,0,0-.1.5,1.266,1.266,0,0,0,.1.6.779.779,0,0,0,.4.4l.6.3a6.871,6.871,0,0,0,.8.3,11.707,11.707,0,0,1,1.1.5,5.535,5.535,0,0,1,.8.6,3.033,3.033,0,0,1,.5.7,2.952,2.952,0,0,1,.2,1,2.128,2.128,0,0,1-.3,1.2,6.456,6.456,0,0,1-.8.9,3.33,3.33,0,0,1-1.2.5,5.888,5.888,0,0,1-1.4.2A3.584,3.584,0,0,1,200.086,485Z" fill="#fff"/>
        <path id="Path_649" data-name="Path 649" d="M214.257,475.217l-2.495.5,1.7,2.2-1,.7-1.4-2.4-1.4,2.4-1-.7,1.7-2.2-2.495-.5.4-1.1,2.4.9-.2-2.794h1.3l-.2,2.794,2.4-.9Z" fill="#fff"/>
      </g>
    </g>
  </g>
</svg>
