<svg xmlns="http://www.w3.org/2000/svg" width="174.751" height="38.516" viewBox="0 0 174.751 38.516">
  <g id="mercado-publico" transform="translate(0)">
    <g id="Group_213" data-name="Group 213" transform="translate(12.346 0)">
      <path id="Path_408" data-name="Path 408" d="M1063.4,149.837h1.376a3.411,3.411,0,0,1,2.767,2.9c.644,4.24,1.305,8.479,1.923,12.722a3.3,3.3,0,0,1-2.22,3.652c-2.143.6-4.275,1.229-6.406,1.867a18.616,18.616,0,0,1-.221-2.523c1.423-.356,2.84-.735,4.257-1.111a2.816,2.816,0,0,0,2-3.125c-.382-3.231-.753-6.465-1.144-9.694a2.169,2.169,0,0,0-2.249-2.023c-4.2.162-8.406.309-12.607.485a2.8,2.8,0,0,0-2.687,3.046c.22,1.426.582,2.826.862,4.243.2.929.391,1.858.579,2.787.344,1.655.682,3.314,1.026,4.969a2.787,2.787,0,0,0,3.331,2.217c1.391-.356,2.776-.741,4.157-1.129a19.791,19.791,0,0,1,.232,2.6c-1.955.515-3.872,1.158-5.825,1.688a3.312,3.312,0,0,1-4.022-2.461c-.512-2.458-.967-4.928-1.467-7.389-.182-.876-.356-1.755-.526-2.634-.388-2.034-.835-4.057-1.191-6.095a3.329,3.329,0,0,1,2.958-3.875C1053.328,150.557,1058.367,150.255,1063.4,149.837Z" transform="translate(-1045.282 -149.837)" fill="gray"/>
      <path id="Path_409" data-name="Path 409" d="M1273.108,149.837h.92c0,.973.006,1.949-.018,2.923,1.014-.823,2.984-1,3.546.423a23.628,23.628,0,0,1,.226,4.951h-1.011a25.847,25.847,0,0,0-.165-4.554c-.523-1.064-1.846-.673-2.578-.077,0,1.544,0,3.087,0,4.631l-.92,0Z" transform="translate(-1235.437 -149.837)" fill="gray"/>
      <path id="Path_410" data-name="Path 410" d="M1327.24,149.837h.92c.032,2.37-.059,4.742.038,7.109.03.582.732.488,1.126.67-.024.156-.068.468-.091.623a5.1,5.1,0,0,1-1.373-.156c-.62-.344-.608-1.15-.626-1.767C1327.237,154.159,1327.243,152,1327.24,149.837Z" transform="translate(-1280.613 -149.837)" fill="gray"/>
      <path id="Path_411" data-name="Path 411" d="M1231.9,151.564c1.17-1.582,3.567-1.461,5.1-.515-.153.432-.47.864-.941.5a2.9,2.9,0,0,0-3.073.223,4.078,4.078,0,0,0-.847,3.217,2.841,2.841,0,0,0,1.438,2.643,3.562,3.562,0,0,0,3.152-.582c.065.209.194.629.259.838a4.771,4.771,0,0,1-2.84.753,3,3,0,0,1-2.867-2.558A5.892,5.892,0,0,1,1231.9,151.564Z" transform="translate(-1200.386 -150.268)" fill="gray"/>
      <path id="Path_412" data-name="Path 412" d="M1311.8,150.762l1.011.009c-.006.218-.015.653-.021.87-.329.038-.662.068-.991.085Z" transform="translate(-1267.731 -150.609)" fill="gray"/>
      <path id="Path_413" data-name="Path 413" d="M1382.887,150.941a4.554,4.554,0,0,1,4.352.029c-.094.3-.194.591-.294.882a3.623,3.623,0,0,0-3.2-.359,3.321,3.321,0,0,0-1.317,3.214,3.128,3.128,0,0,0,1.532,3.019,3.82,3.82,0,0,0,3.064-.638l.247.847a4.4,4.4,0,0,1-4.037.456,3.817,3.817,0,0,1-1.791-3.684A4.2,4.2,0,0,1,1382.887,150.941Z" transform="translate(-1325.851 -150.303)" fill="gray"/>
      <path id="Path_414" data-name="Path 414" d="M1307.746,164.637c.556-.006,1.111-.006,1.667-.006-.012,1.949,0,3.9-.006,5.854h-.92c0-1.7,0-3.408,0-5.11C1307.963,165.448,1307.8,165.087,1307.746,164.637Z" transform="translate(-1264.347 -162.185)" fill="gray"/>
      <g id="Group_209" data-name="Group 209" transform="translate(49.506 2.283)">
        <path id="Path_415" data-name="Path 415" d="M1345.074,164.879a2.449,2.449,0,0,1,3.822-.55,4.014,4.014,0,0,1,.7,2.684c-1.329,0-2.658,0-3.987,0,.112.67.226,1.476.929,1.79.941.512,1.961-.009,2.864-.344.018.188.053.559.071.747-1.247.6-2.987.912-4.04-.215A4.037,4.037,0,0,1,1345.074,164.879Zm.529,1.411c1.032.009,2.067.006,3.1,0-.085-.841-.479-2.023-1.55-1.873C1346.112,164.329,1345.709,165.453,1345.6,166.291Z" transform="translate(-1344.677 -163.646)" fill="gray"/>
      </g>
      <g id="Group_210" data-name="Group 210" transform="translate(61.899 2.276)">
        <path id="Path_416" data-name="Path 416" d="M1421.227,163.765a2.455,2.455,0,0,1,3.193,1.432c.515,1.523.32,3.846-1.461,4.428a2.787,2.787,0,0,1-2.54-.506,3.573,3.573,0,0,1-.779-2.811A2.643,2.643,0,0,1,1421.227,163.765Zm.373.667c-1.247.635-1.147,2.382-.841,3.543a1.447,1.447,0,0,0,2.532.476,4.044,4.044,0,0,0,.223-3.055A1.451,1.451,0,0,0,1421.6,164.432Z" transform="translate(-1419.627 -163.6)" fill="gray"/>
      </g>
      <path id="Path_417" data-name="Path 417" d="M1458,163.778c.468.018.879.121.776.706a2.366,2.366,0,0,1,3.546-.012c.956-1.023,3.037-1.185,3.666.259.429,1.608.112,3.308.209,4.954h-1.011c-.05-1.452.1-2.917-.071-4.36-.309-1.214-1.955-1.023-2.631-.232.188,1.526.056,3.066.094,4.6-.247,0-.741,0-.988-.006-.053-1.494.109-3-.085-4.484-.459-1.147-1.89-.794-2.6-.106.015,1.538,0,3.073.006,4.607-.218-.006-.659-.018-.876-.021C1457.931,167.718,1458.013,165.745,1458,163.778Z" transform="translate(-1389.74 -161.387)" fill="gray"/>
      <g id="Group_211" data-name="Group 211" transform="translate(77.787 2.276)">
        <path id="Path_418" data-name="Path 418" d="M1515.719,163.749c.379.094,1.109-.182.894.6a2.419,2.419,0,0,1,2.555-.576,2.232,2.232,0,0,1,1.329,1.955,4.192,4.192,0,0,1-.747,3.419,2.37,2.37,0,0,1-3.181-.062,11.734,11.734,0,0,1,.168,2.8h-1.02Q1515.729,167.818,1515.719,163.749Zm1.073,1.176c-.138,1.161-.015,2.338-.071,3.5.7.659,2.041.894,2.564-.088a4.485,4.485,0,0,0,.044-3.214C1518.9,164.09,1517.474,164.243,1516.792,164.925Z" transform="translate(-1515.716 -163.602)" fill="gray"/>
      </g>
      <path id="Path_419" data-name="Path 419" d="M1553.039,164.165c.45-.129.717.1.85.538a2.58,2.58,0,0,1,2.241-.594c-.021.2-.059.6-.079.806a2.343,2.343,0,0,0-2.094.544c.026,1.523.006,3.046.012,4.566-.229,0-.691-.006-.92-.009C1553.042,168.066,1553.057,166.117,1553.039,164.165Z" transform="translate(-1469.08 -161.721)" fill="gray"/>
      <g id="Group_212" data-name="Group 212" transform="translate(87.637 2.281)">
        <path id="Path_420" data-name="Path 420" d="M1575.538,164.045a4.915,4.915,0,0,1,3.14-.238,1.669,1.669,0,0,1,1.073,1.685c.015,1.4-.006,2.8,0,4.2-.565.053-.8-.209-.708-.791a2.455,2.455,0,0,1-2.87.617,1.733,1.733,0,0,1-.141-2.931c.853-.506,1.885-.244,2.823-.3-.035-.6.088-1.329-.5-1.711a3.7,3.7,0,0,0-2.59.223C1575.685,164.542,1575.612,164.292,1575.538,164.045Zm1.038,3.09a1.073,1.073,0,0,0,.4,1.849c.67.309,1.3-.235,1.858-.535-.006-.518-.006-1.032-.006-1.55A5.651,5.651,0,0,0,1576.576,167.135Z" transform="translate(-1575.286 -163.629)" fill="gray"/>
      </g>
    </g>
    <g id="Group_221" data-name="Group 221" transform="translate(0 8.58)">
      <path id="Path_421" data-name="Path 421" d="M992.975,202a3.428,3.428,0,0,1,4.757,2.9c.182,2.287.447,4.569.565,6.862a18.616,18.616,0,0,0,.221,2.523c.476,4.416.785,8.853,1.2,13.275a3.352,3.352,0,0,1-2.978,3.713c-6.959.109-13.925.076-20.887.17a3.4,3.4,0,0,1-3.661-3.067c-.52-5.963-1.061-11.928-1.558-17.894a3.314,3.314,0,0,1,2.59-3.51c3.678-.859,7.321-1.849,10.99-2.74.17.879.344,1.758.526,2.634-3.014.615-6.036,1.188-9.056,1.782a2.884,2.884,0,0,0-2.331,3.019c.359,4.607.8,9.212,1.188,13.819a2.989,2.989,0,0,0,1.647,2.535,5.453,5.453,0,0,0,2.614.265c5.1-.188,10.211-.3,15.315-.509a2.909,2.909,0,0,0,2.729-3.169c-.238-3.2-.617-6.38-.791-9.579a19.8,19.8,0,0,0-.232-2.6c-.3-1.879-.259-3.8-.6-5.672A1.924,1.924,0,0,0,992.9,205.3c-1.873.285-3.719.741-5.586,1.067-.188-.929-.379-1.858-.579-2.787C988.812,203.055,990.9,202.561,992.975,202Z" transform="translate(-970.62 -201.726)" fill="gray"/>
      <g id="Group_214" data-name="Group 214" transform="translate(94.442 3.548)">
        <path id="Path_422" data-name="Path 422" d="M1548.492,223.185h1.617q0,7.026,0,14.048c-.4-.062-.9.115-1.232-.115-.059-.229-.173-.691-.232-.923a4.054,4.054,0,0,1-3.728,1.167,3.954,3.954,0,0,1-2.984-3.366c-.318-1.993-.247-4.334,1.229-5.88a4.48,4.48,0,0,1,5.422-.332C1548.413,226.257,1548.518,224.72,1548.492,223.185Zm-4.019,5.678c-1.038,1.029-1.111,2.614-1.044,3.984.079,1.164.382,2.584,1.544,3.137a3.046,3.046,0,0,0,3.466-.938c.132-2.023.006-4.06.062-6.086C1547.3,228.28,1545.628,227.91,1544.473,228.863Z" transform="translate(-1541.779 -223.185)" fill="gray"/>
      </g>
      <path id="Path_423" data-name="Path 423" d="M1741.165,224.4c1.523-.547,3.037-1.117,4.554-1.682.115.415.227.829.341,1.244-1.55.485-3.1.97-4.649,1.438Z" transform="translate(-1613.754 -219.251)" fill="gray"/>
      <path id="Path_424" data-name="Path 424" d="M1859.3,223.185h1.541c.018,3.987-.029,7.977.021,11.964-.062.985,1.1,1.082,1.817,1.085,0,.276,0,.832,0,1.111a3.443,3.443,0,0,1-2.6-.318,2.549,2.549,0,0,1-.788-2.143C1859.3,230.982,1859.3,227.084,1859.3,223.185Z" transform="translate(-1712.354 -219.637)" fill="gray"/>
      <path id="Path_425" data-name="Path 425" d="M1228.579,224.937c.932-.009,1.864-.009,2.8.012,1.176,3.993,2.414,7.968,3.461,12,1.141-4.031,2.426-8.015,3.675-12.014.873,0,1.746,0,2.62-.006q.326,6.876.529,13.754l-1.758-.009c-.132-4.019-.141-8.05-.464-12.058-1.023,4.081-2.514,8.035-3.728,12.067q-1.028,0-2.055,0c-1.217-4.055-2.428-8.112-3.678-12.158-.077,4.054-.212,8.109-.379,12.158h-1.547Q1228.345,231.808,1228.579,224.937Z" transform="translate(-1185.484 -221.092)" fill="gray"/>
      <g id="Group_215" data-name="Group 215" transform="translate(115.927 3.826)">
        <path id="Path_426" data-name="Path 426" d="M1671.721,224.878c2.226.118,4.643-.385,6.689.744,2.6,1.391,2.417,5.689-.094,7.08-1.5.9-3.311.694-4.981.7-.006,1.741,0,3.481,0,5.222h-1.617C1671.715,234.043,1671.707,229.459,1671.721,224.878Zm1.611,1.4c0,1.935,0,3.869,0,5.8a9.415,9.415,0,0,0,3.661-.362,2.91,2.91,0,0,0,.294-4.963C1676.084,226.089,1674.653,226.313,1673.333,226.281Z" transform="translate(-1671.713 -224.865)" fill="gray"/>
      </g>
      <g id="Group_216" data-name="Group 216" transform="translate(136.289 3.548)">
        <path id="Path_427" data-name="Path 427" d="M1794.858,223.185h1.617a38.653,38.653,0,0,1-.147,5.054,4.332,4.332,0,0,1,4.46-.935,4.015,4.015,0,0,1,2.235,3.419c.191,1.882.173,4.022-1.138,5.531a4.14,4.14,0,0,1-5.807.015c-.1.317-.2.638-.291.959-.232,0-.7,0-.929,0Q1794.854,230.2,1794.858,223.185Zm1.614,6.157c0,1.917.009,3.834,0,5.751a3.386,3.386,0,0,0,2.849,1.085,2.382,2.382,0,0,0,1.941-1.935,8.989,8.989,0,0,0,0-4.063,2.348,2.348,0,0,0-1.935-1.873A3.881,3.881,0,0,0,1796.472,229.342Z" transform="translate(-1794.856 -223.185)" fill="gray"/>
      </g>
      <circle id="Ellipse_6" data-name="Ellipse 6" cx="1.195" cy="1.195" r="1.195" transform="translate(152.479 3.345)" fill="gray"/>
      <g id="Group_217" data-name="Group 217" transform="translate(58.582 7.387)">
        <path id="Path_428" data-name="Path 428" d="M1325.614,248.375a4.122,4.122,0,0,1,6.7-.47,6.94,6.94,0,0,1,.92,4.213c-2.243,0-4.49,0-6.733,0a3.4,3.4,0,0,0,1.5,3.055c1.544.811,3.346.182,4.745-.638q.207.6.424,1.191a6.39,6.39,0,0,1-5.836.65,4.488,4.488,0,0,1-2.349-3.616A7.378,7.378,0,0,1,1325.614,248.375Zm1.676.15a4.181,4.181,0,0,0-.791,2.414c1.714,0,3.425.006,5.14,0a3.916,3.916,0,0,0-.741-2.505A2.407,2.407,0,0,0,1327.29,248.525Z" transform="translate(-1324.906 -246.401)" fill="gray"/>
      </g>
      <g id="Group_218" data-name="Group 218" transform="translate(84.509 7.394)">
        <path id="Path_429" data-name="Path 429" d="M1482.107,247.2a7.853,7.853,0,0,1,5.5-.423,3.1,3.1,0,0,1,1.761,2.887c.05,2.323,0,4.649.018,6.971-.382,0-.765,0-1.144,0-.079-.371-.156-.741-.232-1.109a4.16,4.16,0,0,1-4.769.947,3,3,0,0,1-.391-4.969c1.479-.914,3.287-.52,4.928-.6.035-1.055.079-2.434-1.055-2.955a6.274,6.274,0,0,0-4.19.447C1482.389,248,1482.251,247.6,1482.107,247.2Zm2.317,8.315a3.3,3.3,0,0,0,3.343-.988c0-.838,0-1.679,0-2.517a11.521,11.521,0,0,0-3.569.259C1482.83,252.8,1483.054,255.117,1484.424,255.514Z" transform="translate(-1481.705 -246.444)" fill="gray"/>
      </g>
      <g id="Group_219" data-name="Group 219" transform="translate(105.03 7.395)">
        <path id="Path_430" data-name="Path 430" d="M1609.332,246.51a4.165,4.165,0,0,1,3.646,1.056,5.494,5.494,0,0,1,1.443,3.757,6.273,6.273,0,0,1-1.235,4.3c-1.794,1.935-5.636,1.638-6.762-.882a8.082,8.082,0,0,1-.356-5.145A4,4,0,0,1,1609.332,246.51Zm-.538,1.52a3.224,3.224,0,0,0-1.259,2.39,7.285,7.285,0,0,0,.426,3.946,2.471,2.471,0,0,0,4.19.215,6.228,6.228,0,0,0,.6-3.243,4.319,4.319,0,0,0-1.059-3.1A2.551,2.551,0,0,0,1608.794,248.03Z" transform="translate(-1605.812 -246.449)" fill="gray"/>
      </g>
      <path id="Path_431" data-name="Path 431" d="M1921.4,246.966a6.2,6.2,0,0,1,5.507.244c-.179.391-.35.782-.515,1.179-1.261-.57-2.834-1-4.116-.265a3.967,3.967,0,0,0-1.449,3.484c-.012,1.288.2,2.852,1.388,3.6,1.385.773,3.031.209,4.331-.476.135.415.273.832.408,1.25a6.4,6.4,0,0,1-5.613.368c-1.588-.826-2.137-2.764-2.132-4.437C1919.1,250.062,1919.687,247.939,1921.4,246.966Z" transform="translate(-1762.345 -239.034)" fill="gray"/>
      <path id="Path_432" data-name="Path 432" d="M1388.914,246.9c.362,0,.726,0,1.088-.006.091.391.176.782.268,1.173a3.662,3.662,0,0,1,3.875-1.17c-.038.468-.07.935-.1,1.405a3.413,3.413,0,0,0-3.522.885c.026,2.573.006,5.142.012,7.715-.547-.012-1.091-.018-1.635-.032C1388.934,253.551,1388.908,250.228,1388.914,246.9Z" transform="translate(-1319.736 -239.309)" fill="gray"/>
      <path id="Path_433" data-name="Path 433" d="M1427.146,247.392c1.708-1.391,4.2-1.091,6.066-.176-.147.4-.3.8-.447,1.2-1.241-.538-2.752-1.008-4.031-.341-1.329.744-1.617,2.44-1.594,3.831.065,1.22.3,2.693,1.473,3.346,1.379.723,3,.17,4.272-.518.132.429.259.856.388,1.285a6.687,6.687,0,0,1-5.289.491,4.117,4.117,0,0,1-2.34-3.381C1425.329,251.15,1425.555,248.8,1427.146,247.392Z" transform="translate(-1350.303 -239.046)" fill="gray"/>
      <path id="Path_434" data-name="Path 434" d="M1732.166,247.634h1.617c.012,2.17-.021,4.34.012,6.51a2.37,2.37,0,0,0,1.038,2.149,3.166,3.166,0,0,0,2.917-.262c.265-.188.732-.353.662-.762.012-2.546-.006-5.089,0-7.636h1.617v10l-1.159-.009-.165-1a4.454,4.454,0,0,1-4.993.791,3.756,3.756,0,0,1-1.546-3.314C1732.155,251.944,1732.169,249.789,1732.166,247.634Z" transform="translate(-1606.24 -240.043)" fill="gray"/>
      <path id="Path_435" data-name="Path 435" d="M1889.087,247.634c.882,0,1.767,0,2.649,0v9.994c-.517,0-1.032,0-1.547-.006q.009-4.331,0-8.659c-.364-.073-.729-.147-1.091-.218C1889.09,248.378,1889.087,248,1889.087,247.634Z" transform="translate(-1737.217 -240.043)" fill="gray"/>
      <g id="Group_220" data-name="Group 220" transform="translate(166.188 7.395)">
        <path id="Path_436" data-name="Path 436" d="M1978.537,246.659a4.337,4.337,0,0,1,4.322.923,5.418,5.418,0,0,1,1.376,3.76,6.2,6.2,0,0,1-.935,3.928c-1.585,2.27-5.627,2.14-6.936-.341a7.762,7.762,0,0,1-.623-4.425A4.282,4.282,0,0,1,1978.537,246.659Zm.338,1.244c-1.179.532-1.476,1.964-1.556,3.128a5.7,5.7,0,0,0,.85,3.852,2.472,2.472,0,0,0,4.057-.75,7.548,7.548,0,0,0-.041-4.96A2.442,2.442,0,0,0,1978.876,247.9Z" transform="translate(-1975.679 -246.448)" fill="gray"/>
      </g>
      <path id="Path_437" data-name="Path 437" d="M1221.88,353.009q12.128,0,24.254,0v4.922H1221.88Z" transform="translate(-1180.334 -327.992)" fill="gray"/>
    </g>
    <g id="Group_222" data-name="Group 222" transform="translate(67.205 33.592)">
      <path id="Path_438" data-name="Path 438" d="M1377.053,352.992q17.491-.009,34.985,0c.006,1.64,0,3.284,0,4.925h-34.988Z" transform="translate(-1377.053 -352.989)" fill="gray"/>
    </g>
  </g>
</svg>
