<svg xmlns="http://www.w3.org/2000/svg" width="116.741" height="45.696" viewBox="0 0 116.741 45.696">
  <g id="montenbaik" transform="translate(0)">
    <g id="Group_234" data-name="Group 234" transform="translate(11.759)">
      <path id="Path_449" data-name="Path 449" d="M6209.239,129.352c1.046-.62,2.074-1.278,3.148-1.861.055,1.028.167,2.065.2,3.092.565-.028,1.139-.065,1.7-.111.1.787.139,1.574.194,2.361-.574.037-1.148.074-1.713.139.083,1.12.092,2.268.287,3.379.3.62,1.083.167,1.583.065.111.732.24,1.454.389,2.176a6.547,6.547,0,0,1-4.009.25c-.954-.4-1.176-1.509-1.278-2.426-.092-1.065-.083-2.139-.24-3.194l-1.148.028c-.028-.787-.064-1.565-.157-2.343.38-.037.76-.083,1.148-.12C6209.295,130.306,6209.267,129.824,6209.239,129.352Z" transform="translate(-6174.296 -127.491)" fill="gray"/>
      <path id="Path_450" data-name="Path 450" d="M6308.431,139.973a3.409,3.409,0,0,1,2.454-1.4,3.342,3.342,0,0,1,3.129.917,4.655,4.655,0,0,1,.592,2.5c.083,1.537.25,3.074.287,4.611-.528.037-1.064.065-1.592.093-.241-1.9-.213-3.824-.472-5.722-.361-1.407-2.241-1.426-3.231-.694a2.287,2.287,0,0,0-.815,2.176c.083,1.509.213,3.009.315,4.509l-1.6.167c-.324-2.685-.352-5.4-.629-8.092.5-.074,1-.12,1.509-.167C6308.4,139.241,6308.422,139.6,6308.431,139.973Z" transform="translate(-6256.646 -136.695)" fill="gray"/>
      <g id="Group_231" data-name="Group 231" transform="translate(41.015 2.478)">
        <path id="Path_451" data-name="Path 451" d="M6251.5,144.991c1.065-2.768,5.287-3.379,7.194-1.176a4.909,4.909,0,0,1,1,3.046c-2.268.157-4.527.343-6.8.472a2.789,2.789,0,0,0,1.713,2.324A2.537,2.537,0,0,0,6258,148c.584-.009,1.157.037,1.741.065a3.682,3.682,0,0,1-1.852,2.426,5.363,5.363,0,0,1-4.768.009C6251.243,149.464,6250.817,146.89,6251.5,144.991Zm1.4,1.157c1.667-.176,3.343-.222,5.019-.38a2.624,2.624,0,0,0-1.213-1.759A2.586,2.586,0,0,0,6252.9,146.149Z" transform="translate(-6251.195 -142.479)" fill="gray"/>
      </g>
      <path id="Path_452" data-name="Path 452" d="M6155.122,150.742a3.605,3.605,0,0,1,4.805-1.083,3.109,3.109,0,0,1,1.083,2.315c.139,1.787.259,3.583.389,5.37-1.111.028-2.2.222-3.315.213-.037-1.037-.111-2.074-.222-3.1a5.2,5.2,0,0,0-.379-2.389,1.151,1.151,0,0,0-1.9.8c-.074,1.62.176,3.241.259,4.861-1.092.111-2.194.111-3.277.241q-.319-4.1-.583-8.2c1.019-.046,2.028-.157,3.046-.241C6155.057,149.946,6155.085,150.344,6155.122,150.742Z" transform="translate(-6127.373 -145.566)" fill="gray"/>
      <g id="Group_232" data-name="Group 232" transform="translate(14.773 4.393)">
        <path id="Path_453" data-name="Path 453" d="M6096.3,154.129a5.531,5.531,0,0,1,3.908.694,4.375,4.375,0,0,1,.445,6.592,5.386,5.386,0,0,1-3.954,1.194,4.157,4.157,0,0,1-4.055-3.129,4.227,4.227,0,0,1,1.074-4.12A4.662,4.662,0,0,1,6096.3,154.129Zm.436,2.222c-1.241.472-1.157,2.13-.769,3.157a1.387,1.387,0,0,0,2.352.426,2.873,2.873,0,0,0,.223-2.491A1.407,1.407,0,0,0,6096.734,156.351Z" transform="translate(-6092.489 -154.06)" fill="gray"/>
      </g>
      <path id="Path_454" data-name="Path 454" d="M6011.519,159.528a3.619,3.619,0,0,1,4.314-1.222,2.845,2.845,0,0,1,1.454,2.426c.158,1.833.259,3.667.408,5.5-1.065.056-2.12.167-3.186.176a5.56,5.56,0,0,1-.194-1.62c0-1.185-.2-2.361-.25-3.546a1.066,1.066,0,0,0-2,.389c-.064,1.648.195,3.3.278,4.935-1.074.111-2.14.2-3.223.25-.277-1.713-.139-3.463-.472-5.157-.065-.111-.186-.342-.241-.463a1.137,1.137,0,0,0-1.713.88c-.046,1.639.231,3.278.278,4.917-1.074.028-2.139.13-3.2.213-.287-2.731-.389-5.472-.62-8.2,1.019-.009,2.037-.148,3.055-.194,0,.259.009.778.009,1.037a3.679,3.679,0,0,1,2.463-1.389A2.741,2.741,0,0,1,6011.519,159.528Z" transform="translate(-6003.148 -152.973)" fill="gray"/>
      <path id="Path_455" data-name="Path 455" d="M6580.522,271.626a5.067,5.067,0,1,1,.3,9.9c-.63-.056-.982-.639-1.463-.972-.5-.426-1.148-.62-1.676-1.019a4.944,4.944,0,0,1-.871-4.111A5.082,5.082,0,0,1,6580.522,271.626Z" transform="translate(-6481.84 -247.655)" fill="gray"/>
      <g id="Group_233" data-name="Group 233" transform="translate(54.747 34.403)">
        <path id="Path_456" data-name="Path 456" d="M6334.375,339.889a5.138,5.138,0,0,1,4.463-4.241,11.331,11.331,0,0,1,4.324.241,4.716,4.716,0,0,1,3.148,3.417c-1.269.157-2.537.324-3.8.528a2.066,2.066,0,0,0-3.4-.824c-.861.852-.8,2.185-.657,3.287a2.117,2.117,0,0,0,2.657,1.63,2.2,2.2,0,0,0,1.491-1.583c1.25.111,2.491.269,3.731.417a6.336,6.336,0,0,1,.667-4.592,5.73,5.73,0,0,1,5.12-2.556,6.005,6.005,0,0,1,4.861,1.843,5.9,5.9,0,0,1,1.1,5.315,5.214,5.214,0,0,1-3.527,3.667,8.579,8.579,0,0,1-4.223.12,5.4,5.4,0,0,1-3.916-3.546,4.9,4.9,0,0,1-3.167,3.481,9.289,9.289,0,0,1-3.5.333,5.708,5.708,0,0,1-4.231-1.8A5.947,5.947,0,0,1,6334.375,339.889Zm17.147-1.25a2.5,2.5,0,0,0-1.241,2.38,2.852,2.852,0,0,0,1.1,2.731,1.837,1.837,0,0,0,2.62-1.241,4.27,4.27,0,0,0-.352-3.305A1.765,1.765,0,0,0,6351.522,338.639Z" transform="translate(-6334.245 -335.553)" fill="gray"/>
      </g>
      <path id="Path_457" data-name="Path 457" d="M6488.08,336.206c1.62-.454,3.657-.046,4.462,1.574a5.04,5.04,0,0,1,2.287-1.555,4.178,4.178,0,0,1,3.981.8,4.079,4.079,0,0,1,.991,2.806v7.027h-4.093v-5.889a1.726,1.726,0,0,0-.436-1.315,1.329,1.329,0,0,0-1.769-.037,2.436,2.436,0,0,0-.6,1.787c-.009,1.815,0,3.629,0,5.453h-4.093c-.027-2.185.047-4.37-.037-6.546a1.283,1.283,0,0,0-2.148-.648,2.269,2.269,0,0,0-.583,1.759c-.019,1.815.009,3.629-.01,5.444h-4.139c0-3.518-.009-7.037.009-10.555,1.278-.019,2.556-.009,3.824-.009v1.5A4.479,4.479,0,0,1,6488.08,336.206Z" transform="translate(-6402.731 -301.55)" fill="gray"/>
    </g>
    <g id="Group_237" data-name="Group 237" transform="translate(0 0.454)">
      <path id="Path_458" data-name="Path 458" d="M6378.259,130.929c3.269-.231,6.537-.417,9.8-.694.454,6.009.852,12.027,1.26,18.046q2.777-3.68,5.555-7.37a7.278,7.278,0,0,1,1.018-1.241c3.917-.269,7.843-.583,11.769-.8q-4.153,4.667-8.333,9.3c3.037,4.435,6.064,8.879,9.129,13.3a11.12,11.12,0,0,0-2.25.694,7.6,7.6,0,0,0-4.472-.685,29.185,29.185,0,0,1-4.314.148c-1.389-2.231-2.694-4.518-4.084-6.74q-1.625,1.805-3.231,3.611c-.037.963.111,1.935.148,2.907a9.935,9.935,0,0,0-6.972,1.658,9.8,9.8,0,0,0-2.917-1.463C6379.722,151.364,6378.907,141.151,6378.259,130.929Z" transform="translate(-6304.475 -130.235)" fill="gray"/>
      <g id="Group_235" data-name="Group 235" transform="translate(0 5.778)">
        <path id="Path_459" data-name="Path 459" d="M5932.034,165.852c3.222-.25,6.444-.481,9.667-.676.287,4,.528,8.009.852,12.009a10.377,10.377,0,0,1,14.305-.963c2.5,2.157,3.611,5.491,3.9,8.694.407,3.8-.074,7.916-2.371,11.083a9.917,9.917,0,0,1-11.87,2.9,12.1,12.1,0,0,1-3.389-2.778c.13,1.185.148,2.389.278,3.574-2.981.287-5.973.389-8.953.676C5933.617,188.86,5932.9,177.351,5932.034,165.852Zm14.481,15.388a4,4,0,0,0-2.917,2.426,9.183,9.183,0,0,0-.343,4.37,5.815,5.815,0,0,0,1.935,4.12,3.688,3.688,0,0,0,4.945-.389c1.222-1.38,1.259-3.352,1.176-5.092-.148-1.565-.371-3.315-1.574-4.463A3.306,3.306,0,0,0,5946.515,181.24Z" transform="translate(-5932.034 -165.176)" fill="gray"/>
      </g>
      <path id="Path_460" data-name="Path 460" d="M6299.026,196.965q4.792-.417,9.592-.824c.648,6.7,1.214,13.416,1.787,20.138a8.846,8.846,0,0,0-5.768,2.167,8.214,8.214,0,0,0-2.185,3.2c-.417.028-.833.056-1.25.074C6300.48,213.464,6299.739,205.215,6299.026,196.965Z" transform="translate(-6238.344 -185.243)" fill="gray"/>
      <g id="Group_236" data-name="Group 236" transform="translate(30.536 12.37)">
        <path id="Path_461" data-name="Path 461" d="M6123.085,206.359a38.129,38.129,0,0,1,10.435-1.315c2.519.009,5.268.333,7.2,2.111a10.1,10.1,0,0,1,2.778,6.546c.268,3.3.583,6.6.852,9.9a19.814,19.814,0,0,0,.416,2.87,11.755,11.755,0,0,0,1.315,2.861c-3.01.213-6.01.565-9.019.75a7.474,7.474,0,0,1-1.25-2.8,12.991,12.991,0,0,1-3.583,2.852,16.8,16.8,0,0,1-8.722,1.444,7.423,7.423,0,0,1-5.981-3.963c-1.148-2.565-.852-5.981,1.314-7.935a11.766,11.766,0,0,1,3.787-2.055c3.824-1.287,7.842-2.093,11.444-3.991-.084-1.065-.463-2.38-1.639-2.657a7.937,7.937,0,0,0-4.509.491,3.809,3.809,0,0,0-2.027,2.815c-3.065-.194-6.129-.093-9.194-.222a8.649,8.649,0,0,1,2.13-5.2A9.358,9.358,0,0,1,6123.085,206.359Zm5.371,14.61a2.9,2.9,0,0,0-1.981,2.38,2.349,2.349,0,0,0,1.917,2.546,5.783,5.783,0,0,0,5.574-2.342c.991-1.482.731-3.37.527-5.046C6132.521,219.451,6130.418,220.043,6128.456,220.969Z" transform="translate(-6116.706 -205.044)" fill="gray"/>
      </g>
    </g>
  </g>
</svg>
