<svg xmlns="http://www.w3.org/2000/svg" width="95.383" height="41.224" viewBox="0 0 95.383 41.224">
  <g id="opinion_montenbaik_d" transform="translate(-21.821 -71.744)">
    <g id="Group_33" data-name="Group 33" transform="translate(21.821 71.744)">
      <g id="Group_25" data-name="Group 25">
        <g id="Group_24" data-name="Group 24">
          <path id="Path_44" data-name="Path 44" d="M201.271,545.261c2.1-1.251,4.186-2.517,6.286-3.761.079,1.23.173,2.46.259,3.7a12.265,12.265,0,0,0,2.244-.165,7.119,7.119,0,0,1,2.891-.029c1.46-.417,3.028-.187,4.509-.5a4.891,4.891,0,0,1,4.689,1.158c-.079-.633-.122-1.273-.144-1.913,4.042-.266,8.077-.561,12.118-.827.237,3.409.482,6.811.7,10.22.683-.892,1.345-1.8,2.028-2.683q7.886-.55,15.779-1.079c-2.985,3.366-6.012,6.7-8.99,10.069,1.4,2.05,2.819,4.078,4.2,6.142a6.254,6.254,0,1,1,10.083,6.53,6.5,6.5,0,0,1-4.121,1.553c.194,2.906.043,5.833.086,8.745H237.339a8.755,8.755,0,0,1-2.035-.115,8.315,8.315,0,0,1-6.991-.964,7.119,7.119,0,0,1-3.97,1.381h-1.215a6.827,6.827,0,0,1-4.984-2.078,6.483,6.483,0,0,1-1.654-4.754c-3.661.187-7.307.525-10.953.849-.209-.3-.417-.6-.626-.9a12.808,12.808,0,0,1-4.61,1.733,12.678,12.678,0,0,1-6.775-.388,8.045,8.045,0,0,1-3.61-2.877,9.678,9.678,0,0,1-3.488,3.351,10.525,10.525,0,0,1-7.89.834,3.646,3.646,0,0,1-1.712.331c-3.315.223-6.631.467-9.946.69-.741-10.428-1.446-20.857-2.179-31.285,3.819-.266,7.638-.539,11.45-.8a10.936,10.936,0,0,0,3.747-.173,5.5,5.5,0,0,1,2.69.173,5,5,0,0,1,4.912.18,6.849,6.849,0,0,1,5.4-1.144c2.007-.4,4.078-.223,6.092-.6a13.557,13.557,0,0,1,2.222-.18A2.225,2.225,0,0,0,201.271,545.261Zm2.107,1.136c.022.374.05.741.079,1.115-.295.029-.59.058-.892.094.072.6.1,1.208.122,1.82.295,0,.59-.014.892-.022.122.82.115,1.654.187,2.481.079.712.252,1.575.992,1.884a5.084,5.084,0,0,0,3.114-.194c-.115-.561-.216-1.122-.3-1.69-.388.079-.985.432-1.23-.05-.151-.863-.151-1.748-.223-2.625.446-.05.885-.079,1.331-.108-.043-.611-.072-1.23-.151-1.834-.446.036-.885.065-1.323.086-.029-.805-.115-1.6-.158-2.4C204.989,545.4,204.191,545.916,203.378,546.4Zm21.036-.554c.5,7.94,1.136,15.88,1.625,23.82a7.618,7.618,0,0,1,2.265,1.136,7.717,7.717,0,0,1,5.416-1.287c-.029-.755-.144-1.51-.115-2.258.834-.935,1.676-1.877,2.51-2.8,1.079,1.733,2.093,3.51,3.172,5.236a21.731,21.731,0,0,0,3.351-.115,5.851,5.851,0,0,1,3.474.532,8.628,8.628,0,0,1,1.748-.539c-2.381-3.431-4.732-6.883-7.091-10.328q3.247-3.6,6.473-7.221c-3.049.165-6.1.4-9.141.619a6,6,0,0,0-.791.964c-1.431,1.913-2.877,3.819-4.315,5.725-.316-4.675-.619-9.342-.978-14.017C229.485,545.52,226.946,545.664,224.415,545.844ZM216.46,547.5c-.007-.288-.014-.568-.029-.849-.4.036-.784.072-1.172.129.223,2.093.237,4.2.489,6.286.41-.05.827-.086,1.244-.13-.086-1.165-.18-2.337-.245-3.5a1.761,1.761,0,0,1,.633-1.69c.77-.568,2.23-.547,2.51.539.2,1.474.173,2.963.367,4.445.41-.022.827-.043,1.237-.072-.036-1.194-.165-2.388-.223-3.582a3.612,3.612,0,0,0-.46-1.942,3.053,3.053,0,0,0-4.351.367Zm-8.127,1.331a3.558,3.558,0,0,0,1.273,4.286,4.166,4.166,0,0,0,3.7-.007,2.842,2.842,0,0,0,1.438-1.884c-.453-.022-.9-.058-1.352-.05a1.974,1.974,0,0,1-2.632,1.287,2.175,2.175,0,0,1-1.331-1.805c1.762-.1,3.517-.245,5.279-.367a3.815,3.815,0,0,0-.777-2.366A3.467,3.467,0,0,0,208.333,548.829Zm-10.543.144c-.022-.309-.05-.626-.079-.935-.791.058-1.575.151-2.366.187.137,2.122.288,4.25.453,6.372.849-.1,1.7-.108,2.546-.187a34.949,34.949,0,0,1-.2-3.776.894.894,0,0,1,1.474-.619,3.961,3.961,0,0,1,.295,1.856c.086.8.151,1.6.173,2.409.863.007,1.712-.137,2.575-.165-.108-1.388-.194-2.783-.3-4.171a2.4,2.4,0,0,0-.841-1.8A2.775,2.775,0,0,0,197.79,548.972Zm-7.12-.554a3.641,3.641,0,0,0-2.014.957,3.309,3.309,0,0,0,2.316,5.631,4.182,4.182,0,0,0,3.071-.928,3.4,3.4,0,0,0-.345-5.121A4.263,4.263,0,0,0,190.67,548.419Zm-7.933,1.625a2.135,2.135,0,0,0-2.215-.834,2.829,2.829,0,0,0-1.913,1.079c0-.2-.007-.6-.007-.806-.791.036-1.582.137-2.373.151.18,2.122.252,4.258.482,6.372.827-.058,1.654-.144,2.488-.165-.036-1.273-.252-2.546-.216-3.819a.883.883,0,0,1,1.331-.683c.05.086.144.266.187.36.266,1.316.158,2.675.367,4.006.834-.036,1.669-.108,2.5-.194-.065-1.28-.266-2.553-.216-3.833a.827.827,0,0,1,1.553-.3c.036.921.194,1.834.194,2.754a4.573,4.573,0,0,0,.151,1.259c.827,0,1.647-.094,2.474-.137-.115-1.424-.194-2.848-.316-4.272a2.219,2.219,0,0,0-1.129-1.884A2.8,2.8,0,0,0,182.737,550.044Zm-15.635.273c.676,8.932,1.23,17.872,1.891,26.8,2.316-.223,4.639-.3,6.955-.525-.1-.921-.115-1.856-.216-2.776a9.5,9.5,0,0,0,2.632,2.158,7.715,7.715,0,0,0,9.22-2.251,12.379,12.379,0,0,0,1.841-8.609,9.961,9.961,0,0,0-3.028-6.753,8.06,8.06,0,0,0-11.112.748c-.252-3.107-.439-6.214-.662-9.328C172.108,549.943,169.6,550.123,167.1,550.317Zm47.136,4.092c.554,6.408,1.129,12.816,1.69,19.224.324-.022.647-.036.971-.058a6.3,6.3,0,0,1,1.7-2.488,6.88,6.88,0,0,1,4.481-1.683c-.439-5.214-.885-10.428-1.388-15.643C219.208,553.971,216.719,554.194,214.238,554.41Zm-18.462,1.525a7.3,7.3,0,0,0-3.3,1.949,6.72,6.72,0,0,0-1.654,4.042c2.381.093,4.768.022,7.142.173a2.972,2.972,0,0,1,1.575-2.186,6.1,6.1,0,0,1,3.5-.381c.921.216,1.208,1.237,1.273,2.064-2.79,1.474-5.919,2.093-8.889,3.1a9.14,9.14,0,0,0-2.942,1.6,5.473,5.473,0,0,0-1.021,6.164,5.766,5.766,0,0,0,4.646,3.078,13.063,13.063,0,0,0,6.775-1.122,9.988,9.988,0,0,0,2.783-2.215,5.644,5.644,0,0,0,.971,2.172c2.337-.144,4.668-.417,7-.583a9.424,9.424,0,0,1-1.021-2.222,14.483,14.483,0,0,1-.324-2.229c-.209-2.56-.453-5.128-.662-7.688a7.846,7.846,0,0,0-2.158-5.085c-1.5-1.381-3.646-1.633-5.6-1.64A29.305,29.305,0,0,0,195.776,555.934Zm57.111,7.638A3.978,3.978,0,0,0,250,566.528a3.841,3.841,0,0,0,.676,3.193c.41.3.913.453,1.3.791.374.259.647.712,1.136.755a3.94,3.94,0,1,0-.23-7.7Zm-34.025,11.471a4.649,4.649,0,0,0,.9,4,4.433,4.433,0,0,0,3.287,1.4,7.363,7.363,0,0,0,2.719-.259,3.819,3.819,0,0,0,2.46-2.7,4.179,4.179,0,0,0,3.042,2.755,6.662,6.662,0,0,0,3.28-.094,4.049,4.049,0,0,0,2.74-2.848,4.582,4.582,0,0,0-.856-4.128,4.673,4.673,0,0,0-3.776-1.431,4.458,4.458,0,0,0-3.977,1.985,4.887,4.887,0,0,0-.518,3.567c-.964-.115-1.927-.237-2.9-.324a1.71,1.71,0,0,1-1.158,1.23,1.642,1.642,0,0,1-2.064-1.266,3,3,0,0,1,.511-2.553,1.608,1.608,0,0,1,2.639.64c.978-.165,1.963-.288,2.949-.41a3.69,3.69,0,0,0-2.445-2.654,8.8,8.8,0,0,0-3.359-.187A3.977,3.977,0,0,0,218.862,575.043Zm23.669-3.172a3.571,3.571,0,0,0-1.834,1.223v-1.165c-.992,0-1.985-.007-2.97.007-.014,2.733,0,5.466-.007,8.2,1.072.007,2.143,0,3.215,0,.014-1.41-.007-2.819.007-4.229a1.764,1.764,0,0,1,.453-1.366,1,1,0,0,1,1.669.5c.065,1.69.007,3.395.029,5.085h3.179v-4.236a1.911,1.911,0,0,1,.467-1.388,1.024,1.024,0,0,1,1.374.029,1.37,1.37,0,0,1,.338,1.021v4.574h3.179v-5.459a3.188,3.188,0,0,0-.77-2.179,3.264,3.264,0,0,0-3.093-.618,3.913,3.913,0,0,0-1.776,1.208A2.926,2.926,0,0,0,242.531,571.872Z" transform="translate(-164.7 -541.5)"/>
        </g>
        <path id="Path_45" data-name="Path 45" d="M786.5,631.222a2.012,2.012,0,0,1,2.956-1.668,2.037,2.037,0,0,1,.942,1.366C789.1,631.056,787.8,631.085,786.5,631.222Z" transform="translate(-741.779 -622.994)"/>
        <path id="Path_46" data-name="Path 46" d="M520.28,660.9a1.1,1.1,0,0,1,1.4.849,2.229,2.229,0,0,1-.173,1.935,1.079,1.079,0,0,1-1.827-.331C519.388,662.55,519.316,661.27,520.28,660.9Z" transform="translate(-493.971 -652.251)"/>
        <path id="Path_47" data-name="Path 47" d="M320.914,829.289a2.585,2.585,0,0,1,2.51.755,5.316,5.316,0,0,1,1.223,3.466,5.423,5.423,0,0,1-.913,3.956,2.873,2.873,0,0,1-3.841.3,4.5,4.5,0,0,1-1.5-3.2,7.136,7.136,0,0,1,.266-3.395A3.083,3.083,0,0,1,320.914,829.289Z" transform="translate(-307.264 -808.519)"/>
        <path id="Path_48" data-name="Path 48" d="M634.759,875.406c1.532-.719,3.164-1.18,4.689-1.906.158,1.3.352,2.762-.41,3.92a4.521,4.521,0,0,1-4.33,1.82,1.825,1.825,0,0,1-1.489-1.978A2.249,2.249,0,0,1,634.759,875.406Z" transform="translate(-599.511 -849.623)"/>
        <path id="Path_49" data-name="Path 49" d="M1090.479,992.909a1.36,1.36,0,0,1,1.654.439,3.318,3.318,0,0,1,.273,2.568,1.429,1.429,0,0,1-2.035.964,2.186,2.186,0,0,1-.856-2.122A1.944,1.944,0,0,1,1090.479,992.909Z" transform="translate(-1022.997 -960.336)"/>
      </g>
      <g id="Group_29" data-name="Group 29" transform="translate(11.536 3.452)">
        <path id="Path_50" data-name="Path 50" d="M692.106,590.946c.813-.482,1.611-.992,2.445-1.446.043.8.129,1.6.158,2.4.439-.022.885-.05,1.323-.086.079.611.108,1.223.151,1.834-.446.029-.892.057-1.331.108.065.87.072,1.762.223,2.625.237.482.841.13,1.23.05.086.568.187,1.129.3,1.69a5.087,5.087,0,0,1-3.114.194c-.741-.309-.913-1.172-.992-1.884-.072-.827-.065-1.661-.187-2.481l-.892.022c-.022-.611-.05-1.215-.122-1.82.295-.029.59-.065.892-.093C692.149,591.686,692.127,591.312,692.106,590.946Z" transform="translate(-664.963 -589.5)" fill="#fff"/>
        <path id="Path_51" data-name="Path 51" d="M868.715,610.323a2.648,2.648,0,0,1,1.906-1.086,2.6,2.6,0,0,1,2.431.712,3.611,3.611,0,0,1,.46,1.942c.065,1.194.194,2.388.223,3.582-.41.029-.827.05-1.237.072-.187-1.474-.165-2.97-.367-4.445-.281-1.093-1.74-1.108-2.51-.539a1.776,1.776,0,0,0-.633,1.69c.065,1.172.165,2.337.245,3.5l-1.244.129c-.252-2.086-.273-4.193-.489-6.286.388-.057.777-.094,1.172-.129C868.694,609.755,868.708,610.036,868.715,610.323Z" transform="translate(-828.491 -607.777)" fill="#fff"/>
        <g id="Group_26" data-name="Group 26" transform="translate(31.859 1.925)">
          <path id="Path_52" data-name="Path 52" d="M768.318,618.219a3.463,3.463,0,0,1,5.588-.913,3.815,3.815,0,0,1,.777,2.366c-1.762.122-3.517.266-5.279.367a2.166,2.166,0,0,0,1.331,1.805,1.971,1.971,0,0,0,2.632-1.287c.453-.007.9.029,1.352.05a2.858,2.858,0,0,1-1.438,1.884,4.166,4.166,0,0,1-3.7.007A3.551,3.551,0,0,1,768.318,618.219Zm1.086.9c1.295-.137,2.6-.173,3.9-.295a2.037,2.037,0,0,0-.942-1.366A2.009,2.009,0,0,0,769.4,619.118Z" transform="translate(-768.079 -616.267)" fill="#fff"/>
        </g>
        <path id="Path_53" data-name="Path 53" d="M593.338,629.414a2.8,2.8,0,0,1,3.733-.841,2.415,2.415,0,0,1,.841,1.8c.108,1.388.2,2.783.3,4.171-.863.022-1.712.173-2.575.165-.029-.805-.086-1.611-.173-2.409a4.037,4.037,0,0,0-.295-1.855.894.894,0,0,0-1.474.618c-.058,1.259.137,2.517.2,3.776-.849.086-1.7.086-2.546.187q-.248-3.182-.453-6.372c.791-.036,1.575-.122,2.366-.187C593.288,628.8,593.309,629.1,593.338,629.414Z" transform="translate(-571.784 -625.394)" fill="#fff"/>
        <g id="Group_27" data-name="Group 27" transform="translate(11.475 3.412)">
          <path id="Path_54" data-name="Path 54" d="M487.611,637a4.3,4.3,0,0,1,3.035.539,3.4,3.4,0,0,1,.345,5.121,4.182,4.182,0,0,1-3.071.928,3.229,3.229,0,0,1-3.15-2.431,3.284,3.284,0,0,1,.834-3.2A3.62,3.62,0,0,1,487.611,637Zm.338,1.726c-.964.367-.9,1.654-.6,2.452a1.077,1.077,0,0,0,1.827.331,2.231,2.231,0,0,0,.173-1.935A1.093,1.093,0,0,0,487.949,638.728Z" transform="translate(-484.652 -636.948)" fill="#fff"/>
        </g>
        <path id="Path_55" data-name="Path 55" d="M331.6,645.194a2.811,2.811,0,0,1,3.351-.949,2.209,2.209,0,0,1,1.129,1.884c.122,1.424.2,2.848.316,4.272-.827.043-1.647.13-2.474.137a4.315,4.315,0,0,1-.151-1.259c0-.921-.158-1.834-.194-2.755a.828.828,0,0,0-1.553.3c-.05,1.28.151,2.56.216,3.833-.834.086-1.661.158-2.5.194-.216-1.331-.108-2.69-.367-4.006-.05-.086-.144-.266-.187-.36a.883.883,0,0,0-1.331.683c-.036,1.273.18,2.546.216,3.819-.834.022-1.661.1-2.488.165-.223-2.122-.3-4.25-.482-6.372.791-.007,1.582-.115,2.373-.151,0,.2.007.6.007.805a2.856,2.856,0,0,1,1.913-1.079A2.129,2.129,0,0,1,331.6,645.194Z" transform="translate(-325.1 -640.102)" fill="#fff"/>
        <path id="Path_56" data-name="Path 56" d="M1352.331,846.74a3.936,3.936,0,1,1,.23,7.688c-.489-.043-.762-.5-1.136-.755-.388-.331-.892-.482-1.3-.791a3.841,3.841,0,0,1-.676-3.193A3.947,3.947,0,0,1,1352.331,846.74Z" transform="translate(-1275.679 -828.12)" fill="#fff"/>
        <g id="Group_28" data-name="Group 28" transform="translate(42.526 26.723)">
          <path id="Path_57" data-name="Path 57" d="M916.5,964.439a3.991,3.991,0,0,1,3.467-3.294,8.8,8.8,0,0,1,3.359.187,3.663,3.663,0,0,1,2.445,2.654c-.985.122-1.971.252-2.949.41a1.6,1.6,0,0,0-2.639-.64,2.975,2.975,0,0,0-.511,2.553,1.645,1.645,0,0,0,2.064,1.266,1.711,1.711,0,0,0,1.158-1.23c.971.086,1.935.209,2.9.324a4.924,4.924,0,0,1,.518-3.567,4.451,4.451,0,0,1,3.977-1.985,4.664,4.664,0,0,1,3.776,1.431,4.582,4.582,0,0,1,.856,4.128,4.049,4.049,0,0,1-2.74,2.848,6.662,6.662,0,0,1-3.28.094,4.193,4.193,0,0,1-3.042-2.755,3.805,3.805,0,0,1-2.46,2.7,7.212,7.212,0,0,1-2.719.259,4.433,4.433,0,0,1-3.287-1.4A4.62,4.62,0,0,1,916.5,964.439Zm13.32-.971a1.944,1.944,0,0,0-.964,1.848,2.215,2.215,0,0,0,.856,2.122,1.427,1.427,0,0,0,2.035-.964,3.318,3.318,0,0,0-.273-2.568A1.371,1.371,0,0,0,929.817,963.468Z" transform="translate(-916.396 -961.071)" fill="#fff"/>
        </g>
        <path id="Path_58" data-name="Path 58" d="M1184.881,962.063a2.928,2.928,0,0,1,3.467,1.223,3.913,3.913,0,0,1,1.776-1.208,3.246,3.246,0,0,1,3.093.619,3.166,3.166,0,0,1,.77,2.179v5.459h-3.179v-4.574a1.341,1.341,0,0,0-.338-1.021,1.032,1.032,0,0,0-1.374-.029,1.89,1.89,0,0,0-.467,1.388c-.007,1.41,0,2.819,0,4.236h-3.179c-.021-1.7.036-3.395-.029-5.085a1,1,0,0,0-1.668-.5,1.763,1.763,0,0,0-.453,1.366c-.014,1.41.007,2.819-.007,4.229h-3.215c0-2.733-.007-5.466.007-8.2.993-.014,1.985-.007,2.97-.007V963.3A3.48,3.48,0,0,1,1184.881,962.063Z" transform="translate(-1118.586 -935.143)" fill="#fff"/>
      </g>
      <g id="Group_32" data-name="Group 32" transform="translate(2.402 3.805)">
        <path id="Path_59" data-name="Path 59" d="M995,594.939c2.539-.18,5.078-.324,7.609-.539.352,4.668.662,9.342.978,14.017q2.158-2.859,4.315-5.725a5.647,5.647,0,0,1,.791-.964c3.042-.209,6.092-.453,9.141-.619q-3.226,3.625-6.473,7.221c2.359,3.445,4.711,6.9,7.091,10.328a8.632,8.632,0,0,0-1.748.539,5.908,5.908,0,0,0-3.474-.532,22.665,22.665,0,0,1-3.351.115c-1.079-1.733-2.093-3.51-3.172-5.236q-1.262,1.4-2.51,2.8c-.029.748.086,1.5.115,2.258A7.718,7.718,0,0,0,998.9,619.9a7.618,7.618,0,0,0-2.265-1.136C996.136,610.812,995.5,602.879,995,594.939Z" transform="translate(-937.687 -594.4)" fill="#00acee"/>
        <g id="Group_30" data-name="Group 30" transform="translate(0 4.488)">
          <path id="Path_60" data-name="Path 60" d="M198.1,657.325c2.5-.194,5.006-.374,7.508-.525.223,3.107.41,6.221.662,9.328a8.06,8.06,0,0,1,11.112-.748,9.961,9.961,0,0,1,3.028,6.753,12.387,12.387,0,0,1-1.841,8.609,7.7,7.7,0,0,1-9.22,2.251,9.4,9.4,0,0,1-2.632-2.158c.1.921.115,1.856.216,2.776-2.316.223-4.639.3-6.955.525C199.33,675.2,198.776,666.257,198.1,657.325Zm11.248,11.953a3.107,3.107,0,0,0-2.265,1.884,7.137,7.137,0,0,0-.266,3.395,4.516,4.516,0,0,0,1.5,3.2,2.864,2.864,0,0,0,3.841-.3,5.423,5.423,0,0,0,.913-3.956,5.278,5.278,0,0,0-1.223-3.466A2.568,2.568,0,0,0,209.348,669.278Z" transform="translate(-198.1 -656.8)" fill="#00acee"/>
        </g>
        <path id="Path_61" data-name="Path 61" d="M853.5,712.74q3.722-.324,7.451-.64c.5,5.207.942,10.421,1.388,15.642a6.871,6.871,0,0,0-4.481,1.683,6.38,6.38,0,0,0-1.7,2.488c-.324.022-.647.043-.971.057C854.629,725.556,854.054,719.148,853.5,712.74Z" transform="translate(-806.364 -703.635)" fill="#00acee"/>
        <g id="Group_31" data-name="Group 31" transform="translate(23.719 9.608)">
          <path id="Path_62" data-name="Path 62" d="M532.855,729.021A29.619,29.619,0,0,1,540.961,728c1.956.007,4.092.259,5.6,1.64a7.846,7.846,0,0,1,2.158,5.085c.209,2.56.453,5.128.662,7.688a15.426,15.426,0,0,0,.324,2.23,9.147,9.147,0,0,0,1.021,2.222c-2.337.165-4.668.439-7,.583a5.8,5.8,0,0,1-.971-2.172,10.091,10.091,0,0,1-2.783,2.215,13.051,13.051,0,0,1-6.775,1.122,5.766,5.766,0,0,1-4.646-3.078,5.461,5.461,0,0,1,1.021-6.163,9.138,9.138,0,0,1,2.942-1.6c2.97-1,6.092-1.625,8.889-3.1-.065-.827-.36-1.848-1.273-2.064a6.165,6.165,0,0,0-3.5.381,2.959,2.959,0,0,0-1.575,2.186c-2.381-.151-4.761-.072-7.142-.173a6.72,6.72,0,0,1,1.654-4.042A7.272,7.272,0,0,1,532.855,729.021Zm4.171,11.349a2.249,2.249,0,0,0-1.539,1.848,1.825,1.825,0,0,0,1.489,1.978,4.492,4.492,0,0,0,4.33-1.82c.77-1.151.568-2.618.41-3.92C540.184,739.191,538.551,739.651,537.027,740.37Z" transform="translate(-527.9 -728)" fill="#00acee"/>
        </g>
      </g>
    </g>
  </g>
</svg>
