<svg xmlns="http://www.w3.org/2000/svg" width="69.113" height="48.698" viewBox="0 0 69.113 48.698">
  <g id="opinion_peugot_c" transform="translate(-46.375 -61.876)">
    <g id="Group_38" data-name="Group 38" transform="translate(46.375 61.877)">
      <g id="Group_36" data-name="Group 36" transform="translate(15.777)">
        <g id="Group_34" data-name="Group 34" transform="translate(12.578 1.729)">
          <path id="Path_63" data-name="Path 63" d="M740.683,338.987c-.268.045-1.115.273-1.2.3a.307.307,0,0,0-.2.156.617.617,0,0,0-.061.39.165.165,0,0,0,.24.095c.178-.073,1.233-.463,1.417-.519A.188.188,0,0,0,741,339.3a.529.529,0,0,0,.028-.229C741.018,338.914,740.862,338.953,740.683,338.987Z" transform="translate(-739.206 -338.957)" fill="#010135"/>
        </g>
        <g id="Group_35" data-name="Group 35">
          <path id="Path_64" data-name="Path 64" d="M546.792,339.967a46.4,46.4,0,0,0-5.254-9.4c-.441-.586-.273-.892-.039-1.082a17.14,17.14,0,0,0,1.885-1.863,3.451,3.451,0,0,0,.48-3.887c-.636-1.673-2.733-5.65-3.173-6.966-.508-1.517-.558-2.192-.251-3.023.357-.976.881-1.015,1.277-1.009a.431.431,0,0,1,.374.329,5.554,5.554,0,0,0,.452,2.069,6.371,6.371,0,0,0,2.928,3.151c.379.162.446-.128.413-.268s-.6-2.331-1.015-3.977c-.441-1.723-.658-2.1-1.049-2.465a3.419,3.419,0,0,0-2.365-.876,3.336,3.336,0,0,0-2.666,1.952c-.084.145-.117.245-.3.117-.508-.357-2-1.6-2.136-2.376-.078-.457-.162-.524-.619-.7a27.005,27.005,0,0,0-5.053-1.617,2.925,2.925,0,0,0-1.528-.033,10.442,10.442,0,0,0-3.224,1.1,1.675,1.675,0,0,0-.742.641.753.753,0,0,1-.379.312,16.492,16.492,0,0,0-2.041.837c-.273.156-.418.323-.279.63a8.8,8.8,0,0,0,1.288,1.946,2.227,2.227,0,0,0,.792.312c.117.028.2.061.24-.022a.719.719,0,0,1,.29-.39,3.284,3.284,0,0,1,1.305-.435.78.78,0,0,1,.547.067,1.807,1.807,0,0,1,.541.747c.106.323.039.446-.145.524a5.591,5.591,0,0,1-1.366.251c-.63.05-.814-.123-.859-.162a.117.117,0,0,0-.184-.006,1.282,1.282,0,0,1-.513.368c-.139.067-.218.217-.084.452.4.7.937,1.484,1.428,1.629.39.123.6-.006,1.043-.323.4-.284.653-.284.758-.206s.357.29.3.491a7.031,7.031,0,0,1-.948,1.355c-.128.162-.245.251-.474.139-.335-.162-5.4-2.789-6.074-3.051a5.419,5.419,0,0,0-1.946-.385,9.912,9.912,0,0,0-1.863.117,1.686,1.686,0,0,0-.892.541,2.847,2.847,0,0,0-.987,1.417,2.5,2.5,0,0,0,.368,1.037.286.286,0,0,0,.3.117,3.061,3.061,0,0,1,1.3-.178c.541.095.6.519.625.848a.219.219,0,0,0,.229.178,2.007,2.007,0,0,1,.943.19,8.852,8.852,0,0,1,1.578,1.127c.117.134.112.251-.117.273a22.13,22.13,0,0,0-3.9.747,2.9,2.9,0,0,0-1.567.9,6.863,6.863,0,0,0-.747,1.857c-.106.563.5,1.266.664,1.422.112.106.184.173.374.067a4.292,4.292,0,0,1,1.7-.653c.413-.022.58.368.68.508s.2.045.569-.056a42.819,42.819,0,0,1,5.633-.05,4.893,4.893,0,0,1,2.025.446,12.75,12.75,0,0,1,1.7,1.366s-1.45,2.437-2.237,3.876c-.725,1.333-1.255,2.337-1.511,2.917a4.252,4.252,0,0,0-.39,1.874,16.458,16.458,0,0,1,.078,1.707c-.011.346-.335.385-.792.5-.63.162-1.885.273-2.9.524-.926.229-1.272.446-1.439,1.166a19.5,19.5,0,0,0-.34,2.582c-.011.257-.017.385.312.318a13.362,13.362,0,0,1,1.428-.167c.859-.067,1.79-.05,2.5-.056,1.322-.006,5.22.223,5.488.245.335.033.4-.006.379-.24-.033-.307-.089-1.288-.1-1.874a2.119,2.119,0,0,1,.424-1.751c.524-.569,4.5-5.008,4.724-5.231.2-.2.323-.4.614-.128s3.575,2.632,4.239,3.118a3.281,3.281,0,0,0,2.041.658c.541.011.692.954.229,1.043s-1.188.24-1.7.351a1.462,1.462,0,0,0-1.244.959,17.083,17.083,0,0,0-.424,2.794c-.006.134-.011.329.2.284a19.551,19.551,0,0,1,4.088-.2c1.857.056,3.664.212,3.921.229.273.017.3-.022.435-.234a9.136,9.136,0,0,1,1.545-1.673C546.91,340.447,546.915,340.341,546.792,339.967Zm-7.15-19.548c.011-.151.017-.307.022-.468s.006-.307.011-.491c.006-.151.128-.19.2-.089s.273.7.686,1.456c.613,1.143,1.344,2.566,1.6,3.179a1.337,1.337,0,0,1-.24,1.484,6.764,6.764,0,0,1-2.276,1.383.909.909,0,0,1-1.009-.2c-.229-.217-2.108-2.476-2.711-3.168a.876.876,0,0,1,.385-1.484c.753-.273,2.064-.608,2.471-.719C539.319,321.15,539.609,320.849,539.642,320.419ZM521.377,324.5c-1.366,0-2.655.039-3.1.078a.748.748,0,0,1-.357-.006c-.095-.05-.028-.223.106-.363a2.981,2.981,0,0,1,1.021-.647,19.664,19.664,0,0,1,2.013-.229c.151-.006,2.108-.184,2.287-.173s.708.8,1.233,1.372C524.523,324.535,522.821,324.5,521.377,324.5Zm3.452,10.145a2.911,2.911,0,0,0-.379,1.79c.011.675.089,1.506.05,1.9s-.3.563-.686.669-2.711.48-3.229.63a.915.915,0,0,0-.714.809c-.089.368-.112.508-.134.653-.017.128-.017.273-.167.284s-.675.045-.842.067-.19-.011-.19-.2a11.21,11.21,0,0,1,.29-1.417,1.039,1.039,0,0,1,.881-.859c.58-.139,2.939-.535,3.385-.619.524-.095.653-.318.625-.82-.022-.524-.1-1.255-.117-1.707a2.964,2.964,0,0,1,.162-1.221c.162-.441,1-2.259,1.7-3.542.97-1.768,2.158-3.664,2.393-3.949.19-.229.318-.318.547-.245a5.216,5.216,0,0,1,.853.541c.19.139.346.251.346.251A61.835,61.835,0,0,0,524.829,334.647ZM546,340.168a7.963,7.963,0,0,0-1.366,1.445c-.156.24-.173.245-.418.217-2.069-.2-4.752-.2-5.5-.2-.139,0-.084-.084-.1-.145a5.3,5.3,0,0,1,.24-1.288c.1-.335.19-.385.865-.608.8-.262,3.463-.77,4.1-.954.441-.128.307-.7.028-1.177-6.23-10.474-9.682-13.3-17.747-17.691-1.06-.569-5.254-2.828-6.09-3.168a10.445,10.445,0,0,0-2.571-.5c-.5-.033-1.093.112-1.11-.095-.011-.167.151-.58.4-.619a7.539,7.539,0,0,1,2.917.067,7.216,7.216,0,0,1,1.55.625c1.539.775,3.581,1.807,4.066,2.052.719.363,4.016,2.052,4.908,2.421.837.34,1.182.112,1.472-.307a22.944,22.944,0,0,0,1.523-3.212,2.145,2.145,0,0,0-.1-2.058,23.029,23.029,0,0,0-2.644-3.586c-.53-.558-2.019-.535-3.4-.234a22.929,22.929,0,0,0-3.045.965,1.349,1.349,0,0,1-.491.139c-.145,0-.43-.519-.469-.625-.106-.245-.1-.279.335-.474.792-.357,1.55-.53,1.88-.719s.351-.541.825-.831a7.932,7.932,0,0,1,3.865-1.149,22.881,22.881,0,0,1,5.3,1.656.549.549,0,0,1,.151.106.425.425,0,0,1,.134.212,3.921,3.921,0,0,0,.948,1.79,14.091,14.091,0,0,0,1.679,1.556,1.386,1.386,0,0,1,.569.809,26.22,26.22,0,0,1,.435,4.908c-.056.519-.106.736-.775.92-.692.2-2.376.541-3.073.764-1.071.34-.87,1.16-.357,1.885.524.742,4.328,5.215,6.57,8.516a49.352,49.352,0,0,1,4.545,8.07C546.067,339.75,546.2,340.023,546,340.168Z" transform="translate(-513.679 -307.951)" fill="#010135"/>
        </g>
      </g>
      <g id="Group_37" data-name="Group 37" transform="translate(0 42.49)">
        <path id="Path_65" data-name="Path 65" d="M230.8,1073v5.839h1.606v-1.8h1.439c3.09,0,4.663-.993,4.663-2.086,0-1.177-1.69-1.958-4.523-1.958Zm1.612,3.413v-2.761h1.266c1.305,0,3.034.223,3.034,1.305,0,.736-.558,1.456-3.24,1.456Z" transform="translate(-230.8 -1072.822)" fill="#010135"/>
        <path id="Path_66" data-name="Path 66" d="M420.57,1078.839v-.736H416.6c-.853,0-1.1-.385-1.1-1.037v-.853h4.651v-.73h-4.651v-1.746h4.863V1073H413.9v4.1c0,1.1.457,1.74,1.935,1.74Z" transform="translate(-403.688 -1072.822)" fill="#010135"/>
        <path id="Path_67" data-name="Path 67" d="M589.774,1073h-1.606v4.93a5.7,5.7,0,0,1-1.9.29c-1.238,0-2.46-.312-2.46-1.4V1073H582.2v3.938c0,1.612,1.606,2.086,3.38,2.086a10.651,10.651,0,0,0,4.194-.825Z" transform="translate(-562.602 -1072.822)" fill="#010135"/>
        <path id="Path_68" data-name="Path 68" d="M767.229,1072.918c0-1.617,1.378-2.381,3.056-2.381a10.085,10.085,0,0,1,3.441.736v-.982a11.4,11.4,0,0,0-3.441-.491c-2.694,0-4.886,1.233-4.886,3.112,0,1.985,2.192,3.09,4.886,3.09a15.719,15.719,0,0,0,3.614-.5v-2.314h-1.584v1.729a5.024,5.024,0,0,1-1.913.351c-1.835,0-3.173-.909-3.173-2.354" transform="translate(-735.584 -1069.8)" fill="#010135"/>
        <path id="Path_69" data-name="Path 69" d="M976.965,1078.839v-.736H973c-.848,0-1.093-.385-1.093-1.037v-.853h4.651v-.73h-4.651v-1.746h4.863V1073H970.3v4.1c0,1.1.452,1.74,1.935,1.74Z" transform="translate(-929.056 -1072.822)" fill="#010135"/>
        <path id="Path_70" data-name="Path 70" d="M1132.1,1069.9c-2.694,0-4.9,1.26-4.9,3.146,0,1.974,2.2,3.056,4.9,3.056s4.886-1.082,4.886-3.056c-.006-1.885-2.192-3.146-4.886-3.146m0,5.549c-1.829,0-3.068-.943-3.068-2.4,0-1.606,1.378-2.409,3.068-2.409s3.056.8,3.056,2.409c-.006,1.461-1.238,2.4-3.056,2.4" transform="translate(-1077.205 -1069.894)" fill="#010135"/>
        <path id="Path_71" data-name="Path 71" d="M1326.2,1073.842h3.207v5h1.606v-5h3.207V1073h-8.02Z" transform="translate(-1265.107 -1072.822)" fill="#010135"/>
      </g>
    </g>
  </g>
</svg>
