<svg xmlns="http://www.w3.org/2000/svg" width="159.217" height="24.384" viewBox="0 0 159.217 24.384">
  <g id="opinion-terrafirma-01" transform="translate(-22.75 -111.616)">
    <path id="Path_578" data-name="Path 578" d="M489.621,1794.766l6.672,0,1.2,9.026,5.086-9.026,6.672,0-2.916,13.683h-4.294l2.18-10.234-5.822,10.234h-3.756l-1.42-10.234L491,1808.458h-4.294Zm-14.476,6.049h4.388a1.887,1.887,0,0,0,2.029-1.515c.193-.9-.278-1.477-1.392-1.477h-4.388Zm-3.27-6.058,10.965,0c3.355,0,4.256,1.533,3.77,3.817a3.819,3.819,0,0,1-2.85,3.124c.793.326,1.316,1.014,1.118,2.491-.363,2.7-.472,3.567-.042,4.256h-5a5.475,5.475,0,0,1,.165-2.033c.458-2.147-.17-2.529-1.321-2.529H474.5l-.972,4.563h-4.562Zm-7.379,0h4.563l-2.916,13.683H461.58Zm-14.627,0,13.051,0-.656,3.067-8.493,0-.5,2.359,7.9,0-.628,2.954-7.9,0-1.132,5.308h-4.563Zm-10.257,3.445-3.039,5.171H440.4Zm-2.048-3.454,5.577,0,2.968,13.688-4.888,0-.349-2.222-5.978,0-1.3,2.222-4.888,0-4.964,0a5.474,5.474,0,0,1,.165-2.033c.458-2.147-.17-2.529-1.321-2.529h-4.18l-.972,4.562-4.563,0,2.916-13.683,10.965,0c3.355,0,4.256,1.533,3.77,3.817a3.819,3.819,0,0,1-2.85,3.123c.793.325,1.316,1.015,1.118,2.491-.359,2.661-.467,3.539-.061,4.223Zm-18.5,6.049,4.388,0a1.887,1.887,0,0,0,2.029-1.515c.193-.9-.278-1.477-1.392-1.477H419.7Zm-17.745-.009h4.388a1.888,1.888,0,0,0,2.029-1.515c.193-.9-.278-1.477-1.392-1.477h-4.388Zm-3.274-6.058,10.965,0c3.355,0,4.256,1.533,3.77,3.817a3.819,3.819,0,0,1-2.85,3.123c.793.326,1.316,1.014,1.118,2.491-.363,2.7-.472,3.562-.042,4.256l-5,0a5.474,5.474,0,0,1,.165-2.033c.458-2.147-.17-2.529-1.321-2.529h-4.18l-.972,4.563-4.563,0Zm-15.617-.01,13.7,0-.628,2.954-9.144,0-.528,2.472,8.568,0-.6,2.836-8.568,0-.528,2.472,9.144,0-.628,2.949-13.7,0Zm-15.967-.009,14.6.009-.656,3.067-5.02,0-2.265,10.616H368.56l2.26-10.616-5.02,0ZM517.7,1818.971h-4.935l1.585-6.61h4.784l-.189.783h-3.907l-.486,2.019h3.657l-.189.783h-3.657l-.538,2.236h4.062Zm-9.559-3.7h1.873a3.565,3.565,0,0,0,.925-.1,1.3,1.3,0,0,0,.618-.377,1.344,1.344,0,0,0,.349-.628.841.841,0,0,0-.146-.764,1.253,1.253,0,0,0-1.01-.316h-2.085Zm4.062,3.7h-1.1c-.41-1.038-.665-1.68-.764-1.916a2.876,2.876,0,0,0-.354-.609.883.883,0,0,0-.42-.321,2.037,2.037,0,0,0-.6-.066h-1.01l-.7,2.916h-.873l1.585-6.61H510.9a5.167,5.167,0,0,1,.986.076,1.241,1.241,0,0,1,.637.321,1.167,1.167,0,0,1,.321.618,1.859,1.859,0,0,1-.024.788,2.07,2.07,0,0,1-.764,1.2,3.065,3.065,0,0,1-1.519.576,2.272,2.272,0,0,1,.953,1.222Zm-5.322-5.822h-3.586l-.491,2.048h3.1l-.189.783h-3.1l-.717,2.991h-.873l1.585-6.61h4.459Zm-9.1,5.822h-4.935l1.585-6.61h4.784l-.189.783h-3.907l-.486,2.019h3.657l-.189.783h-3.657l-.538,2.236h4.062Zm-10.257-.783h1.415a5.721,5.721,0,0,0,.788-.052,2.161,2.161,0,0,0,.76-.292,2.49,2.49,0,0,0,.769-.783,4.491,4.491,0,0,0,.576-1.444,4.992,4.992,0,0,0,.137-.925,1.77,1.77,0,0,0-.137-.783,1.067,1.067,0,0,0-.42-.519,1.4,1.4,0,0,0-.547-.2,6.1,6.1,0,0,0-.736-.038h-1.387Zm.524-5.827h2.279a6.937,6.937,0,0,1,1.019.061,1.785,1.785,0,0,1,.755.3,1.593,1.593,0,0,1,.533.651,2.7,2.7,0,0,1,.236.953,4.327,4.327,0,0,1-.146,1.307,5.058,5.058,0,0,1-1.269,2.4,3.49,3.49,0,0,1-2.614.939h-2.378Zm-2.883,6.61h-.878l1.585-6.61h.878Zm-5.619-3.7h1.873a3.565,3.565,0,0,0,.925-.1,1.3,1.3,0,0,0,.618-.377,1.345,1.345,0,0,0,.349-.628.841.841,0,0,0-.146-.764,1.253,1.253,0,0,0-1.01-.316h-2.085Zm4.062,3.7h-1.1c-.41-1.038-.665-1.68-.764-1.916a2.877,2.877,0,0,0-.354-.609.883.883,0,0,0-.42-.321,2.037,2.037,0,0,0-.6-.066h-1.01l-.7,2.916h-.873l1.585-6.61H482.3a5.167,5.167,0,0,1,.986.076,1.241,1.241,0,0,1,.637.321,1.167,1.167,0,0,1,.321.618,1.787,1.787,0,0,1-.024.788,2.071,2.071,0,0,1-.764,1.2,3.065,3.065,0,0,1-1.519.576,2.272,2.272,0,0,1,.953,1.222Zm-9.068,0H469.6l1.585-6.61h4.784l-.189.783h-3.907l-.486,2.019h3.657l-.189.783H471.2l-.538,2.236h4.062Zm-4.426-5.822H466.53l-.491,2.048h3.1l-.189.783h-3.1l-.717,2.991h-.873l1.585-6.61H470.3Zm-7.691,3.119c-.2-1.43-.307-2.241-.33-2.435a7.663,7.663,0,0,1-.042-.779,13.7,13.7,0,0,1-.656,1.236l-1.213,1.977Zm1.378,2.7h-.986l-.293-2.01h-2.76l-1.213,2.01h-.925l4.124-6.61h.944Zm-6.3-4.671a1.031,1.031,0,0,0-.226-.948,1.5,1.5,0,0,0-1.071-.316,2.452,2.452,0,0,0-1.161.255,1.1,1.1,0,0,0-.6.736.559.559,0,0,0,.175.637,3.4,3.4,0,0,0,1.151.415,9.036,9.036,0,0,1,1.25.368,1.573,1.573,0,0,1,.745.59,1.292,1.292,0,0,1,.113,1.071,2.387,2.387,0,0,1-1.019,1.415,3.254,3.254,0,0,1-1.906.561,2.47,2.47,0,0,1-1.934-.623,1.789,1.789,0,0,1-.344-1.614l.849-.071a1.116,1.116,0,0,0,.335,1.156,1.99,1.99,0,0,0,1.25.363,2.467,2.467,0,0,0,1.26-.3,1.3,1.3,0,0,0,.651-.821.654.654,0,0,0-.283-.788,5.473,5.473,0,0,0-1.472-.491,2.722,2.722,0,0,1-1.444-.679,1.19,1.19,0,0,1-.217-1.137,2.189,2.189,0,0,1,.939-1.312,3.116,3.116,0,0,1,1.821-.519,2.343,2.343,0,0,1,1.647.514,1.5,1.5,0,0,1,.359,1.468Zm-8.257,4.671h-4.935l1.585-6.61h4.784l-.189.783h-3.907l-.486,2.019h3.657l-.189.783h-3.657l-.538,2.236h4.062Zm-10.257-.783H440.4a5.72,5.72,0,0,0,.788-.052,2.161,2.161,0,0,0,.76-.292,2.489,2.489,0,0,0,.769-.783,4.488,4.488,0,0,0,.576-1.444,4.99,4.99,0,0,0,.137-.925,1.77,1.77,0,0,0-.137-.783,1.066,1.066,0,0,0-.42-.519,1.4,1.4,0,0,0-.547-.2,6.1,6.1,0,0,0-.736-.038H440.2Zm.519-5.827h2.279a6.937,6.937,0,0,1,1.019.061,1.785,1.785,0,0,1,.755.3,1.592,1.592,0,0,1,.533.651,2.7,2.7,0,0,1,.236.953,4.325,4.325,0,0,1-.146,1.307,5.059,5.059,0,0,1-1.269,2.4,3.49,3.49,0,0,1-2.614.939h-2.378Zm-2.883,6.61h-.878l1.585-6.61h.878Zm-5.615-3.7h1.873a3.564,3.564,0,0,0,.925-.1,1.3,1.3,0,0,0,.618-.377,1.345,1.345,0,0,0,.349-.628.841.841,0,0,0-.146-.764,1.253,1.253,0,0,0-1.01-.316H431.53Zm4.058,3.7h-1.1c-.411-1.038-.665-1.68-.764-1.916a2.876,2.876,0,0,0-.354-.609.883.883,0,0,0-.42-.321,2.036,2.036,0,0,0-.6-.066h-1.01l-.7,2.916h-.873l1.581-6.615h2.925a5.171,5.171,0,0,1,.986.075,1.24,1.24,0,0,1,.637.321,1.166,1.166,0,0,1,.321.618,1.788,1.788,0,0,1-.024.788,2.071,2.071,0,0,1-.764,1.2,3.067,3.067,0,0,1-1.519.576,2.271,2.271,0,0,1,.953,1.222Zm88.519,0h-4.935l1.585-6.61h4.784l-.189.783h-3.907l-.486,2.019h3.657l-.189.783h-3.657l-.538,2.236h4.063Zm-7.549-24.19,5.577,0,2.968,13.688-4.888,0-.349-2.222-5.978,0-1.3,2.222-4.888,0Zm2.043,3.449-3.039,5.171h3.831Z" transform="translate(-343.05 -1683.084)"/>
  </g>
</svg>
