<svg xmlns="http://www.w3.org/2000/svg" width="94.462" height="48.757" viewBox="0 0 94.462 48.757">
  <g id="opinion_kifit_b-01" transform="translate(-60.001 -105.798)">
    <g id="Group_308" data-name="Group 308" transform="translate(60.001 105.798)">
      <g id="Group_247" data-name="Group 247" transform="translate(27.754)">
        <path id="Path_462" data-name="Path 462" d="M546.854,461.8h2.583a1.973,1.973,0,0,0,.419.039,8.8,8.8,0,0,1-.624.946c-.634.916-1.287,1.823-1.911,2.749-.078.117-.166.214-.253.322-.156-.848-.166-1.706-.312-2.554a6.53,6.53,0,0,0-.156-1.15C546.678,462.034,546.766,461.917,546.854,461.8Z" transform="translate(-546.6 -461.8)" fill="#f2eb0b"/>
      </g>
      <g id="Group_248" data-name="Group 248" transform="translate(28.173 0.039)">
        <path id="Path_463" data-name="Path 463" d="M553.727,462.2h.078c.058.77.166,1.55.244,2.33.058.468.088.946.185,1.414-.088.136-.175.253-.273.38-.985-.049-1.989.02-2.973-.039a1.345,1.345,0,0,1-.058.185c-.01-.029-.019-.088-.029-.117l.01-.049c0-.019.01-.059.01-.078a2.617,2.617,0,0,0,.253-.322c.634-.926,1.287-1.823,1.911-2.749A6.564,6.564,0,0,0,553.727,462.2Z" transform="translate(-550.9 -462.2)" fill="#ddda1c"/>
      </g>
      <g id="Group_249" data-name="Group 249" transform="translate(12.497 0.037)">
        <path id="Path_464" data-name="Path 464" d="M580.8,462.177c1.014,0,2.028-.01,3.032.01q-1.3,1.872-2.613,3.724c-.1-.468-.117-.936-.185-1.414C580.966,463.727,580.868,462.957,580.8,462.177Z" transform="translate(-562.21 -462.175)" fill="#fff200"/>
        <path id="Path_465" data-name="Path 465" d="M522.413,465.5a9.069,9.069,0,0,1,.156,1.15c.146.848.156,1.706.312,2.554,0,.02-.01.058-.01.078-1.024.01-2.047-.01-3.071-.01C520.658,468.005,521.545,466.748,522.413,465.5Z" transform="translate(-507.156 -465.176)" fill="#fff200"/>
        <path id="Path_466" data-name="Path 466" d="M390.1,546.114l.127-.039c.955-.01,1.891.01,2.847.01-.029.312-.127.6-.176.907-.068.312-.136.634-.2.946-.117.614-.263,1.209-.37,1.823l-.059-.029a4.817,4.817,0,0,1-.409-.643c-.487-.8-.965-1.6-1.443-2.408A3.133,3.133,0,0,1,390.1,546.114Z" transform="translate(-390.1 -537.893)" fill="#fff200"/>
      </g>
      <g id="Group_259" data-name="Group 259" transform="translate(4.153 0.077)">
        <path id="Path_467" data-name="Path 467" d="M602.258,462.617c.829-.039,1.657-.039,2.486-.01.468.029.936.058,1.4.117l-1.023,5.381a15.1,15.1,0,0,0-3.383,0,1.775,1.775,0,0,0-1.189.7,6.511,6.511,0,0,0-.439,1.072A45.473,45.473,0,0,0,599,474.393c1.55,0,3.09.01,4.64.01,1.238.029,2.486-.029,3.714.039h1.95c-.292,1.628-.614,3.246-.916,4.874h5.654c.078-.029.156.029.224.068-.3,1.365-.526,2.739-.8,4.1q-1.492,7.867-2.993,15.724H604.6c.858-4.592,1.745-9.183,2.622-13.774.38-2.037.79-4.065,1.15-6.112-3.432,0-6.863-.02-10.294-.029q-1.872,9.958-3.734,19.916h-5.781q1.872-9.958,3.734-19.916c-3.168.01-6.327.01-9.495.029h-2.3c.312-1.647.634-3.285.946-4.933,3.929.01,7.867,0,11.8.01.136-.634.253-1.267.39-1.9a39.884,39.884,0,0,1,.985-4.241,9.053,9.053,0,0,1,1.355-2.73,7,7,0,0,1,2.817-2.106A10.608,10.608,0,0,1,602.258,462.617Z" transform="translate(-553.594 -462.586)"/>
        <path id="Path_468" data-name="Path 468" d="M933.061,513.67a1.149,1.149,0,0,1,.088-.361c1.969-.01,3.948,0,5.917-.01-.01.088-.029.175-.039.263-.029.117-.049.244-.078.361-.244,1.306-.5,2.613-.741,3.929-.058.331-.136.663-.185,1l-.263,1.375a1.915,1.915,0,0,0-.029.234h4.6c-.1.487-.185.985-.283,1.472-.2,1.15-.439,2.3-.653,3.461H936.8c-.01.029-.039.1-.049.127-.117.653-.244,1.306-.37,1.969-.059.331-.127.663-.185,1-.331,1.745-.663,3.5-.994,5.245-.078.458-.176.916-.263,1.375-.049.322-.136.634-.175.955-.273,1.433-.556,2.856-.809,4.289-.068.331-.136.663-.2,1-.166.838-.331,1.677-.478,2.515a1.542,1.542,0,0,0,.224,1.306,1.818,1.818,0,0,0,1.2.419,11.706,11.706,0,0,0,1.755-.029c.38-.029.751-.078,1.121-.137-.166.975-.361,1.95-.546,2.915-.078.439-.175.877-.244,1.326-.039.176-.068.361-.1.536a13.993,13.993,0,0,1-1.677.4,15.9,15.9,0,0,1-2.642.185,9.131,9.131,0,0,1-2-.185,5.616,5.616,0,0,1-.692-.195,3.371,3.371,0,0,1-1.706-1.2,4.7,4.7,0,0,1-.653-1.56,8.445,8.445,0,0,1-.049-3.09c.1-.682.254-1.355.37-2.028.058-.331.136-.673.185-1,.029-.117.049-.244.068-.361.127-.653.254-1.306.361-1.969.058-.331.136-.663.185-1,.156-.79.3-1.589.458-2.379.049-.322.136-.634.175-.955.283-1.462.556-2.924.829-4.4.283-1.54.575-3.071.868-4.611a6.173,6.173,0,0,0,.127-.741c-.682-.049-1.384-.01-2.076-.019-.419.01-.848-.02-1.258.01a1.917,1.917,0,0,0-.624.019.528.528,0,0,0-.049-.107c.292-1.5.575-3,.858-4.494q2.033-.015,4.065,0a4.667,4.667,0,0,0,.1-.507c.195-1.141.419-2.281.614-3.422.078-.37.136-.741.2-1.111C932.846,514.87,932.954,514.275,933.061,513.67Z" transform="translate(-866.226 -508.356)"/>
        <path id="Path_469" data-name="Path 469" d="M305.416,875.8h.312c-.078.546-.292,1.072-.361,1.628.351-.127.741.01,1.092-.078a.568.568,0,0,0,.2-.224c.166-.429.185-.916.39-1.326h.322a1.813,1.813,0,0,1-.058.331c-.059.253-.127.507-.185.76a1.2,1.2,0,0,1-.546.819c.049.565.136,1.111.166,1.677-.127,0-.253-.01-.38-.01a3.338,3.338,0,0,0-.059-.331c-.029-.419-.078-.829-.137-1.238-.292.01-.575-.01-.868.01-.02.02-.049.058-.068.078-.137.458-.224.936-.361,1.394-.058.156-.253.068-.38.1.195-.946.468-1.872.682-2.808A2.676,2.676,0,0,1,305.416,875.8Z" transform="translate(-304.5 -835.518)"/>
        <path id="Path_470" data-name="Path 470" d="M348.058,875.8h.351a1.584,1.584,0,0,1-.088.468c-.263,1.043-.517,2.076-.79,3.12-.117,0-.224,0-.331-.01a10.714,10.714,0,0,1,.3-1.345c.058-.253.127-.507.185-.76s.117-.468.175-.712S347.99,876.063,348.058,875.8Z" transform="translate(-343.037 -835.518)"/>
        <path id="Path_471" data-name="Path 471" d="M412.177,875.8c.107,0,.214.01.322.01a.7.7,0,0,1-.029.283c-.214.838-.419,1.667-.634,2.505-.059.253-.137.517-.185.78-.117,0-.244.01-.351.01.068-.517.244-1.024.361-1.531.058-.253.136-.507.195-.76s.117-.468.175-.712A4.281,4.281,0,0,1,412.177,875.8Z" transform="translate(-400.889 -835.518)"/>
        <path id="Path_472" data-name="Path 472" d="M673.5,875.8c.127,0,.253,0,.37.01.068.975.068,1.94.1,2.915.526-.936,1-1.891,1.521-2.827l.1-.1c.117,0,.224.01.331.01-.029.078-.068.146-.1.224-.575,1.053-1.131,2.106-1.7,3.168a2.106,2.106,0,0,1-.127.185c-.117,0-.244,0-.351-.01a2.265,2.265,0,0,0-.049-.273C673.588,878,673.529,876.9,673.5,875.8Z" transform="translate(-637.528 -835.518)"/>
        <path id="Path_473" data-name="Path 473" d="M797.1,875.852c.1-.166.312-.078.468-.088-.01.01-.049.039-.058.049-.3.565-.634,1.121-.946,1.687a.537.537,0,0,1-.585.39c-.136.478-.224.975-.38,1.443h-.361c.127-.478.234-.955.361-1.433-.156,0-.37-.029-.37-.224-.059-.634-.1-1.277-.127-1.911h.37c.117.556.029,1.131.146,1.687.224-.01.546.117.673-.146C796.552,876.827,796.816,876.33,797.1,875.852Z" transform="translate(-747.274 -835.473)"/>
        <path id="Path_474" data-name="Path 474" d="M372.363,876.629a1.053,1.053,0,0,1,.829-.819c.439-.01.877,0,1.316-.01a2.927,2.927,0,0,1-.1.419c-.448.019-.9-.01-1.345.01-.351.117-.341.546-.439.838-.029.117-.059.244-.1.361a1.277,1.277,0,0,1,.546-.058h.946a1.308,1.308,0,0,1-.1.429c-.487.01-.985-.01-1.482.01-.127.526-.234,1.063-.409,1.57H371.7c.029-.185.078-.361.117-.546C371.992,878.1,372.178,877.37,372.363,876.629Z" transform="translate(-365.149 -835.518)"/>
        <path id="Path_475" data-name="Path 475" d="M442,876.311c.058-.146.019-.439.244-.419h1.95a3.257,3.257,0,0,1-.1.419c-.292.02-.575.01-.868.01-.068.292-.156.575-.224.868l-.263,1.053c-.059.244-.127.468-.175.712-.049.156-.078.312-.127.468-.088.117-.253.029-.38.058.253-1.053.526-2.1.78-3.149C442.565,876.311,442.283,876.311,442,876.311Z" transform="translate(-428.596 -835.6)"/>
        <g id="Group_250" data-name="Group 250" transform="translate(19.468 40.282)">
          <path id="Path_476" data-name="Path 476" d="M505.009,876.151a.4.4,0,0,1,.361-.351H506.5a.574.574,0,0,1,.468.253,1.558,1.558,0,0,1-.039.7,1.709,1.709,0,0,1-.244.653.992.992,0,0,1-.526.361c.058.536.156,1.072.2,1.608-.127,0-.253-.01-.38-.01-.078-.526-.156-1.043-.2-1.569H505.1a.806.806,0,0,0-.117-.078c-.049.234-.117.468-.166.7-.078.322-.156.643-.244.955-.127.01-.244.01-.37.01C504.473,878.305,504.746,877.223,505.009,876.151Zm.3.292c-.078.312-.156.614-.224.926.37,0,.741.01,1.111-.01.283-.078.322-.409.39-.653.039-.156.1-.4-.1-.478-.351-.029-.7,0-1.063-.01A.553.553,0,0,0,505.311,876.443Z" transform="translate(-504.2 -875.8)"/>
        </g>
        <path id="Path_477" data-name="Path 477" d="M547.451,876.48a1.048,1.048,0,0,1,.829-.77c.439-.01.877,0,1.306-.01-.029.136-.068.273-.1.419-.439.029-.877-.01-1.326.019a.491.491,0,0,0-.361.409c-.058.273-.146.526-.2.8a.982.982,0,0,1,.146-.068h1.287a.964.964,0,0,1-.107.429h-1.414c-.039.136-.078.273-.107.419-.039.224-.224.546.019.712.439.049.9.01,1.345.02a1.08,1.08,0,0,1-.078.429c-.429-.01-.858.01-1.287-.01a.49.49,0,0,1-.478-.468,1.671,1.671,0,0,1,.078-.575Z" transform="translate(-523.295 -835.428)"/>
        <path id="Path_478" data-name="Path 478" d="M586.6,876.638a1.091,1.091,0,0,1,.829-.829c.439-.01.868,0,1.306-.01-.029.136-.058.273-.1.419-.419.029-.848,0-1.267.01a.446.446,0,0,0-.38.4c-.166.682-.351,1.365-.507,2.037-.02.088.039.166.058.254a13.138,13.138,0,0,0,1.384.039c-.01.088-.029.185-.039.273-.01.039-.039.117-.049.156-.429-.01-.848.01-1.277-.01a.477.477,0,0,1-.439-.4,2.067,2.067,0,0,1,.127-.877c.059-.234.127-.468.176-.7C586.478,877.136,586.546,876.892,586.6,876.638Z" transform="translate(-558.656 -835.518)"/>
        <g id="Group_251" data-name="Group 251" transform="translate(31.273 40.274)">
          <path id="Path_479" data-name="Path 479" d="M625.814,876.561a1.066,1.066,0,0,1,.76-.829c.361-.01.721-.01,1.092,0a.579.579,0,0,1,.37.643c-.117.526-.253,1.043-.39,1.569a2.787,2.787,0,0,1-.361,1.024.868.868,0,0,1-.634.361c-.332-.01-.673.02-1-.01a.611.611,0,0,1-.331-.731C625.472,877.906,625.648,877.233,625.814,876.561Zm.39-.049c-.185.682-.351,1.384-.526,2.076-.039.1.029.2.058.292.322.068.653-.01.975.039a.428.428,0,0,0,.38-.312c.068-.224.117-.458.185-.692.107-.439.224-.887.331-1.326a1.265,1.265,0,0,0,.02-.331c-.059-.039-.107-.107-.185-.1q-.439-.015-.877,0C626.369,876.151,626.242,876.337,626.2,876.512Z" transform="translate(-625.297 -875.725)"/>
        </g>
        <path id="Path_480" data-name="Path 480" d="M709.77,876.66a1.017,1.017,0,0,1,.877-.76h1.248a2.911,2.911,0,0,1-.1.419c-.419.01-.848,0-1.267.01a.434.434,0,0,0-.38.341c-.078.273-.127.556-.224.819.487-.02.965-.01,1.452-.01-.029.117-.058.234-.078.351-.02.02-.049.058-.068.078-.458,0-.926-.01-1.384,0-.1.273-.146.565-.224.848a.228.228,0,0,0,.2.3c.4.01.809,0,1.219,0l.068.068a2.3,2.3,0,0,0-.088.351q-.658.015-1.316,0a.478.478,0,0,1-.439-.351,1.054,1.054,0,0,1,.039-.624C709.467,877.889,709.614,877.275,709.77,876.66Z" transform="translate(-669.782 -835.609)"/>
        <g id="Group_252" data-name="Group 252" transform="translate(43.098 40.286)">
          <path id="Path_481" data-name="Path 481" d="M747.487,875.988c.136-.195.4-.127.595-.136a5,5,0,0,1,1.082.049c.068.059.137.136.2.2a2,2,0,0,1-.117,1.014,1.022,1.022,0,0,1-.692.7c.058.536.156,1.072.2,1.608-.127,0-.253-.01-.38-.01-.058-.253-.068-.517-.117-.77-.029-.263-.068-.526-.1-.79-.263-.029-.556.068-.79-.078-.136.546-.253,1.092-.419,1.628a1.13,1.13,0,0,1-.361.029c.039-.156.078-.312.117-.458.058-.253.136-.507.185-.76s.127-.468.176-.712.136-.507.185-.76A3.132,3.132,0,0,1,747.487,875.988Zm.2.5c-.039.244-.117.478-.166.721-.01.058-.039.156-.049.214.351.02.7.01,1.053.01a.457.457,0,0,0,.37-.361,2.785,2.785,0,0,0,.117-.565.218.218,0,0,0-.224-.214h-.9C747.76,876.251,747.74,876.4,747.692,876.485Z" transform="translate(-746.6 -875.846)"/>
        </g>
        <g id="Group_253" data-name="Group 253" transform="translate(52.94 40.317)">
          <path id="Path_482" data-name="Path 482" d="M848.183,877.219c.049-.419.2-.926.653-1.043.37-.029.741,0,1.111-.01-.068.292-.146.575-.224.868a.264.264,0,1,1-.224-.468c-.234,0-.458,0-.692-.01-.2.127-.214.38-.263.595.312.487.585,1,.907,1.491a1.146,1.146,0,0,1,.273-.195.686.686,0,0,1,.088.058,1.442,1.442,0,0,1,.1.214,3.513,3.513,0,0,0-.292.244,1.857,1.857,0,0,1,.37.731,1.365,1.365,0,0,1-.4-.01,2.542,2.542,0,0,1-.273-.439c-.019,0-.058.01-.078.01a4.6,4.6,0,0,1-.634.439c-.293-.039-.624.078-.887-.078-.292-.283-.078-.692-.01-1.024a1.235,1.235,0,0,1,.253-.614c.127-.117.273-.2.409-.312A.767.767,0,0,1,848.183,877.219Zm-.039,1.072c-.059.253-.117.507-.2.751-.02.078-.02.2.078.234a3.341,3.341,0,0,0,.624-.01c.166-.1.322-.234.478-.341-.2-.312-.38-.634-.585-.946C848.417,878.087,848.28,878.194,848.144,878.291Z" transform="translate(-847.565 -876.163)"/>
        </g>
        <path id="Path_483" data-name="Path 483" d="M838.836,924.832c.5-.01.994-.01,1.482,0-.029.117-.058.234-.1.351-.059.078-.166.058-.244.068-.361,0-.721-.01-1.072,0-.195-.01-.331.175-.38.351-.058.244-.117.468-.176.712s-.127.507-.185.76c-.029.3-.273.624-.088.916a7.014,7.014,0,0,0,1.014.01c.361-.127.351-.565.458-.868a1.865,1.865,0,0,0,.058-.322c-.244-.01-.478.02-.721-.01.029-.136.059-.253.078-.39.361-.01.712-.01,1.072,0-.058.429-.2.848-.292,1.267a1.016,1.016,0,0,1-.634.741,8.954,8.954,0,0,1-1.024.02.444.444,0,0,1-.419-.283,1.162,1.162,0,0,1,.029-.77l.439-1.725A1.208,1.208,0,0,1,838.836,924.832Z" transform="translate(-785.639 -879.764)"/>
        <path id="Path_484" data-name="Path 484" d="M326.712,925.76a.931.931,0,0,1,.829-.76h1.384a2.473,2.473,0,0,1-.117.419c-.487.029-.975-.01-1.452.02-.322.136-.331.556-.37.848.448.234.916.409,1.365.643.2.2.029.487-.01.731a1.12,1.12,0,0,1-.731.907H326a3.012,3.012,0,0,1,.136-.419c.517-.01,1.033.01,1.54-.01.292-.146.283-.507.38-.77-.039-.049-.058-.117-.136-.136-.253-.117-.517-.244-.77-.351-.185-.117-.487-.136-.575-.37A3.1,3.1,0,0,1,326.712,925.76Z" transform="translate(-323.904 -879.922)"/>
        <g id="Group_254" data-name="Group 254" transform="translate(6.112 45.067)">
          <path id="Path_485" data-name="Path 485" d="M368.019,925.228a.447.447,0,0,1,.273-.341,9.434,9.434,0,0,1,1.482.058.783.783,0,0,1,.195.848,2.1,2.1,0,0,1-.322.829.828.828,0,0,1-.634.351c-.312,0-.624.02-.936-.01a.916.916,0,0,0-.1-.1c-.146.526-.253,1.063-.419,1.589H367.2C367.483,927.382,367.746,926.3,368.019,925.228Zm.331.176c-.1.361-.195.721-.273,1.092a.366.366,0,0,1,.059.068c.331,0,.663.01,1-.01.312-.088.351-.448.419-.712a.91.91,0,0,0,.029-.458.363.363,0,0,0-.214-.078h-.955A.165.165,0,0,1,368.35,925.4Z" transform="translate(-367.2 -924.885)"/>
        </g>
        <g id="Group_255" data-name="Group 255" transform="translate(10.218 45.052)">
          <path id="Path_486" data-name="Path 486" d="M409.862,925.463a1.126,1.126,0,0,1,.682-.712c.341-.029.682-.01,1.014-.01a.451.451,0,0,1,.478.4,2.769,2.769,0,0,1-.166,1.014c-.117.468-.234.926-.351,1.394a1.041,1.041,0,0,1-.78.79c-.331.01-.663.01-1,0-.341-.029-.468-.429-.4-.721C409.491,926.9,409.686,926.184,409.862,925.463Zm.37.019c-.175.712-.361,1.414-.536,2.125-.029.1.039.185.078.283.322.029.653.01.975.01a.405.405,0,0,0,.38-.331c.166-.663.331-1.326.507-1.989a1.1,1.1,0,0,0,.02-.312.917.917,0,0,0-.1-.1c-.312-.02-.634-.01-.955-.01A.426.426,0,0,0,410.232,925.482Z" transform="translate(-409.317 -924.735)"/>
        </g>
        <g id="Group_256" data-name="Group 256" transform="translate(14.174 45.076)">
          <path id="Path_487" data-name="Path 487" d="M450.729,925.256a.328.328,0,0,1,.341-.273h1.2a.44.44,0,0,1,.409.292c.117.3-.049.614-.107.916a1.024,1.024,0,0,1-.712.76c.049.224.049.458.1.692.029.3.088.6.117.907h-.38c-.068-.439-.117-.887-.185-1.326-.01-.078-.02-.156-.029-.244-.263-.029-.556.059-.8-.058-.117.487-.244.965-.361,1.453a.678.678,0,0,0-.059.185c-.117,0-.244,0-.361.01C450.183,927.449,450.456,926.348,450.729,925.256Zm.322.224c-.1.351-.185.7-.263,1.063a8.482,8.482,0,0,0,1.111,0c.292-.088.331-.419.39-.663.029-.156.088-.4-.107-.458-.351-.02-.7,0-1.053-.01C451.119,925.421,451.07,925.46,451.05,925.48Z" transform="translate(-449.9 -924.981)"/>
        </g>
        <path id="Path_488" data-name="Path 488" d="M497.3,925.419a1.512,1.512,0,0,1,.136-.419c.682.01,1.384,0,2.067,0-.049.136-.049.312-.156.419-.273.02-.556-.01-.829.01-.107.507-.244.994-.361,1.491-.156.546-.253,1.1-.439,1.638h-.361c.273-1.043.536-2.086.78-3.139Z" transform="translate(-478.505 -879.922)"/>
        <path id="Path_489" data-name="Path 489" d="M561.916,925.77a1.11,1.11,0,0,1,.741-.77h1.384a1.7,1.7,0,0,1-.136.429c-.409-.01-.809-.01-1.219,0-.2-.01-.351.195-.39.38l-.5,1.989a.3.3,0,0,0,.1.341c.439.019.887,0,1.326.01a1.989,1.989,0,0,1-.078.419c-.458,0-.916-.01-1.365,0a.6.6,0,0,1-.351-.77C561.575,927.115,561.751,926.443,561.916,925.77Z" transform="translate(-536.356 -879.922)"/>
        <g id="Group_257" data-name="Group 257" transform="translate(28.859 45.062)">
          <path id="Path_490" data-name="Path 490" d="M601.082,925.621a1.128,1.128,0,0,1,.682-.77c.341-.029.682-.01,1.014-.01a.466.466,0,0,1,.487.468,3.454,3.454,0,0,1-.185.994c-.117.448-.224.9-.341,1.345a1.067,1.067,0,0,1-.79.79q-.468.015-.936,0a.466.466,0,0,1-.439-.351,1.287,1.287,0,0,1,.068-.741C600.79,926.771,600.946,926.2,601.082,925.621Zm.37.01c-.175.682-.351,1.384-.517,2.067-.039.1.029.2.058.283.322.039.643.01.965.019.224.02.38-.2.419-.4.156-.643.312-1.277.487-1.92.029-.146.059-.419-.156-.419-.292-.01-.585-.01-.877-.01C601.638,925.25,601.5,925.445,601.453,925.631Z" transform="translate(-600.54 -924.835)"/>
        </g>
        <g id="Group_258" data-name="Group 258" transform="translate(32.667 45.068)">
          <path id="Path_491" data-name="Path 491" d="M641.306,925.251a.611.611,0,0,1,.361-.351c.185.01.361,0,.546.01.049,1.18.078,2.379.127,3.558h-.361c-.029-.331-.029-.653-.058-.975h-1.433c-.156.312-.332.614-.487.916a.652.652,0,0,1-.117.059c-.068,0-.214-.01-.283-.01C640.156,927.376,640.74,926.323,641.306,925.251Zm.273.185c-.292.546-.585,1.082-.858,1.628.4.01.79,0,1.189,0-.01-.585-.02-1.17-.058-1.755C641.754,925.319,641.628,925.319,641.579,925.436Z" transform="translate(-639.6 -924.9)"/>
        </g>
        <path id="Path_492" data-name="Path 492" d="M688.423,925.709a1.136,1.136,0,0,1,.76-.809h1.374c-.058.137-.039.331-.156.419-.419.02-.829-.01-1.248.01a.48.48,0,0,0-.341.351c-.136.526-.263,1.043-.4,1.57a2.946,2.946,0,0,0-.136.634c.019.039.068.107.088.146.458.029.907.01,1.365.019a1.226,1.226,0,0,1-.078.419c-.458,0-.916-.01-1.365,0a.533.533,0,0,1-.351-.341,1.062,1.062,0,0,1,.049-.673C688.121,926.879,688.277,926.294,688.423,925.709Z" transform="translate(-650.521 -879.832)"/>
        <path id="Path_493" data-name="Path 493" d="M726.477,924.96c.117,0,.244-.01.361,0-.068.536-.273,1.043-.351,1.579h1.345c.136-.526.244-1.053.4-1.57.117,0,.244-.01.361-.01-.029.127-.059.253-.1.38-.059.253-.127.507-.185.76s-.127.507-.185.76-.127.468-.175.712c-.088.312-.166.634-.244.955-.117,0-.244,0-.361-.01.107-.526.253-1.043.38-1.569-.458.01-.916-.01-1.375.01-.01.078-.029.156-.039.234-.068.254-.136.507-.195.76a2.315,2.315,0,0,1-.175.575c-.117-.01-.224-.01-.341-.01C725.883,927.329,726.2,926.149,726.477,924.96Z" transform="translate(-684.549 -879.882)"/>
        <path id="Path_494" data-name="Path 494" d="M769.348,924.9h.361c-.1.575-.292,1.141-.4,1.716l-.02.029c-.136.6-.292,1.209-.458,1.813-.117,0-.224-.01-.331-.01a3.476,3.476,0,0,1,.156-.7c.214-.877.439-1.755.663-2.642C769.319,925.046,769.338,924.978,769.348,924.9Z" transform="translate(-723.267 -879.832)"/>
        <path id="Path_495" data-name="Path 495" d="M793.926,924.91c.156-.01.312,0,.468-.01a.4.4,0,0,1,.244.253c.127.848.3,1.7.429,2.554.166-.721.322-1.443.517-2.164a2.615,2.615,0,0,1,.175-.614c.107-.049.234-.01.351-.029-.059.312-.156.6-.224.916-.029.1-.049.195-.078.292-.058.253-.127.507-.185.76s-.127.507-.185.76c-.058.283-.146.565-.214.848h-.361c-.01-.029-.049-.1-.058-.136-.107-.682-.253-1.355-.361-2.037-.059-.292-.1-.6-.176-.9-.02-.029-.058-.078-.078-.107a.8.8,0,0,0-.117.331c-.224.848-.419,1.706-.643,2.554a1.144,1.144,0,0,1-.1.292H793c.058-.361.175-.721.253-1.072.058-.253.127-.507.185-.76s.127-.468.175-.7c.058-.253.137-.507.185-.76C793.838,925.085,793.819,924.939,793.926,924.91Z" transform="translate(-745.379 -879.832)"/>
      </g>
      <g id="Group_260" data-name="Group 260" transform="translate(1.599 4.133)">
        <path id="Path_496" data-name="Path 496" d="M551.449,504.2c.985.049,1.989-.01,2.973.039-.877,1.258-1.765,2.505-2.642,3.763-.117-1.2-.253-2.408-.38-3.607C551.41,504.336,551.439,504.239,551.449,504.2Z" transform="translate(-524.777 -504.2)" fill="#e0d000"/>
        <path id="Path_497" data-name="Path 497" d="M278.368,564.875c1.024-.01,2.057.01,3.08.01v.068c-.058.234-.117.468-.166.7-.224,1.1-.458,2.2-.673,3.3h-.049c-.741-1.277-1.5-2.525-2.262-3.782C278.319,565.079,278.339,564.972,278.368,564.875Z" transform="translate(-278.3 -558.958)" fill="#e0d000"/>
      </g>
      <g id="Group_261" data-name="Group 261" transform="translate(4.738 4.124)">
        <path id="Path_498" data-name="Path 498" d="M517.8,504.363c.059-.088.117-.176.185-.263,1.024.01,2.047.02,3.071.01l-.01.049c-.946,1.336-1.862,2.681-2.808,4.016C518.063,506.917,517.975,505.64,517.8,504.363Z" transform="translate(-497.592 -504.1)" fill="#e1e892"/>
        <path id="Path_499" data-name="Path 499" d="M357.568,546c1.024.01,2.037-.01,3.061.02l.01.039c-.156.77-.322,1.54-.468,2.32-.136.565-.2,1.131-.37,1.677-.273-.38-.487-.79-.731-1.18-.429-.721-.868-1.433-1.3-2.154a3.606,3.606,0,0,0-.273-.4C357.52,546.214,357.549,546.107,357.568,546Z" transform="translate(-352.918 -541.915)" fill="#e1e892"/>
        <path id="Path_500" data-name="Path 500" d="M310.51,565.032q.863-.015,1.725,0c.429.058.868,0,1.287.029-.214.955-.4,1.911-.614,2.876-.049.273-.117.546-.175.819-.77-1.2-1.462-2.457-2.232-3.656A.167.167,0,0,0,310.51,565.032Z" transform="translate(-310.5 -559.086)" fill="#e1e892"/>
      </g>
      <g id="Group_262" data-name="Group 262" transform="translate(11.62 4.192)">
        <path id="Path_501" data-name="Path 501" d="M522.029,508.816c.955-1.326,1.862-2.681,2.808-4.016.01.029.02.088.029.117.136,1.2.273,2.408.38,3.607-.078.117-.156.224-.244.331-.994-.049-2-.01-3-.029Z" transform="translate(-508.264 -504.8)" fill="#f9f16d"/>
        <path id="Path_502" data-name="Path 502" d="M381.948,546.5h.029a3.975,3.975,0,0,0,.312.565c.478.8.965,1.609,1.443,2.408a6.487,6.487,0,0,0,.409.643l.039.049c-.029.136-.058.263-.078.4-.985-.01-1.979.01-2.964-.02h-.029l-.01-.049c.166-.546.244-1.121.37-1.677C381.626,548.05,381.792,547.28,381.948,546.5Z" transform="translate(-381.1 -542.435)" fill="#f9f16d"/>
      </g>
      <g id="Group_263" data-name="Group 263" transform="translate(8.559 4.387)">
        <path id="Path_503" data-name="Path 503" d="M490.8,510.592c.877-1.267,1.755-2.525,2.642-3.792.166,1.267.263,2.544.439,3.821l-.02.029c-.273,0-.565.01-.838-.01C492.272,510.582,491.531,510.651,490.8,510.592Z" transform="translate(-477.045 -506.8)" fill="#b4c387"/>
        <path id="Path_504" data-name="Path 504" d="M349.7,553.043q.38-1.886.76-3.743a4.107,4.107,0,0,1,.273.4c.429.721.868,1.433,1.3,2.154.244.39.458.809.731,1.18l.01.049C351.737,553.053,350.724,553.112,349.7,553.043Z" transform="translate(-349.7 -545.157)" fill="#b4c387"/>
      </g>
      <g id="Group_264" data-name="Group 264" transform="translate(3.919 8.179)">
        <path id="Path_505" data-name="Path 505" d="M488.2,546.051c.078-.117.166-.234.244-.351.741.058,1.482-.01,2.213.039.273.02.565.01.838.01l-.02.058c-.946,1.306-1.842,2.651-2.788,3.958-.02-.049-.049-.127-.068-.166-.1-.79-.156-1.589-.253-2.379A9.645,9.645,0,0,0,488.2,546.051Z" transform="translate(-470.058 -545.7)" fill="#9acd5f"/>
        <path id="Path_506" data-name="Path 506" d="M381.5,588.1c.985.029,1.979.01,2.964.02-.263,1.219-.507,2.447-.77,3.675-.663-1.063-1.287-2.154-1.95-3.227C381.646,588.412,381.578,588.246,381.5,588.1Z" transform="translate(-373.76 -583.967)" fill="#9acd5f"/>
        <path id="Path_507" data-name="Path 507" d="M302.1,607.029a2.511,2.511,0,0,1,.468-.029c.741.01,1.472-.01,2.213.01.117.01.312.02.263.2-.253,1.17-.478,2.34-.751,3.5C303.572,609.476,302.831,608.248,302.1,607.029Z" transform="translate(-302.1 -601.024)" fill="#9acd5f"/>
      </g>
      <g id="Group_265" data-name="Group 265" transform="translate(8.501 8.224)">
        <path id="Path_508" data-name="Path 508" d="M521.92,546.165c1,.01,2-.029,3,.029q-1.3,1.857-2.593,3.695c-.117-.614-.137-1.248-.224-1.862-.078-.595-.117-1.2-.2-1.794Z" transform="translate(-505.055 -546.161)" fill="#99ac3a"/>
        <path id="Path_509" data-name="Path 509" d="M349.158,587.7c1.024.068,2.037.01,3.071.039h.029a4.283,4.283,0,0,0-.224.926c-.214,1.024-.419,2.047-.634,3.071-.01.01-.029.039-.049.058-.751-1.248-1.491-2.5-2.252-3.734A1.468,1.468,0,0,1,349.158,587.7Z" transform="translate(-349.1 -583.651)" fill="#99ac3a"/>
      </g>
      <g id="Group_266" data-name="Group 266" transform="translate(82.189 8.237)">
        <path id="Path_510" data-name="Path 510" d="M1105.292,546.3h5.615c-.049.517-.185,1.024-.273,1.531-1.881.019-3.763-.01-5.635.01C1105.078,547.324,1105.2,546.817,1105.292,546.3Z" transform="translate(-1105 -546.3)" fill="#0081b2"/>
      </g>
      <g id="Group_267" data-name="Group 267" transform="translate(22.519 8.286)">
        <path id="Path_511" data-name="Path 511" d="M492.939,550.758c.955-1.306,1.842-2.642,2.788-3.958.078.595.117,1.2.2,1.794.078.624.1,1.248.224,1.862-.088.127-.185.253-.273.38-.994-.039-1.989.01-2.983-.029A.385.385,0,0,1,492.939,550.758Z" transform="translate(-492.9 -546.8)" fill="#add68c"/>
      </g>
      <g id="Group_268" data-name="Group 268" transform="translate(0.838 8.53)">
        <path id="Path_512" data-name="Path 512" d="M461.6,553.034c.868-1.248,1.725-2.486,2.6-3.734a9.386,9.386,0,0,1,.166,1.17c.1.79.166,1.589.253,2.379-.01.049-.029.156-.039.2-.643.029-1.287.01-1.93.01A7.6,7.6,0,0,1,461.6,553.034Z" transform="translate(-442.971 -549.3)" fill="#51b94c"/>
        <path id="Path_513" data-name="Path 513" d="M271.27,568.1c.76,1.258,1.521,2.515,2.262,3.782-1-.01-2.018,0-3.032-.01C270.753,570.615,271,569.357,271.27,568.1Z" transform="translate(-270.5 -566.267)" fill="#51b94c"/>
      </g>
      <g id="Group_269" data-name="Group 269" transform="translate(81.779 9.768)">
        <path id="Path_514" data-name="Path 514" d="M1101.219,562.01c1.881-.02,3.763.01,5.635-.01-.137.721-.283,1.453-.4,2.174h-.029a8.711,8.711,0,0,0-1.131-.029c-1.5-.01-3-.01-4.494,0C1100.946,563.433,1101.063,562.721,1101.219,562.01Z" transform="translate(-1100.8 -562)" fill="#008abd"/>
      </g>
      <g id="Group_270" data-name="Group 270" transform="translate(3.919 10.129)">
        <path id="Path_515" data-name="Path 515" d="M302.929,565.7c.77,1.2,1.462,2.457,2.232,3.656l.01.01c-.049.185-.078.361-.117.556.049-.176-.146-.185-.263-.195-.9-.049-1.794-.01-2.691-.01.2-1.1.458-2.2.673-3.3C302.812,566.168,302.87,565.934,302.929,565.7Z" transform="translate(-302.1 -565.7)" fill="#69b645"/>
        <path id="Path_516" data-name="Path 516" d="M462.456,585.7c.02.039.049.127.068.166a.313.313,0,0,1-.049.059c-.721.994-1.4,2.008-2.115,3.012a12.643,12.643,0,0,1-.751,1.033c-.156-1.258-.273-2.505-.409-3.763.078-.117.156-.224.234-.331a6.331,6.331,0,0,0,1.053.029c.643-.01,1.287.01,1.93-.01A.768.768,0,0,1,462.456,585.7Z" transform="translate(-443.885 -583.75)" fill="#69b645"/>
        <path id="Path_517" data-name="Path 517" d="M343.4,629.058c.01-.01.029-.039.049-.058-.01.029-.02.088-.029.117l-.848,4.065-.01-.019c-.458-.79-.936-1.569-1.4-2.359-.292-.468-.556-.946-.858-1.4a2.949,2.949,0,0,1,.058-.312c.8.01,1.608-.01,2.408.01A1.382,1.382,0,0,0,343.4,629.058Z" transform="translate(-336.576 -622.829)" fill="#69b645"/>
      </g>
      <g id="Group_271" data-name="Group 271" transform="translate(88.516 10.723)">
        <path id="Path_518" data-name="Path 518" d="M1170.212,571.8c1.881.01,3.763,0,5.635.01-.1.5-.185.985-.273,1.482-1.609.019-3.217.01-4.825.01-.283.01-.614-.078-.848.117C1170.007,572.882,1170.095,572.346,1170.212,571.8Z" transform="translate(-1169.9 -571.8)" fill="#0083b5"/>
      </g>
      <g id="Group_272" data-name="Group 272" transform="translate(81.516 11.905)">
        <path id="Path_519" data-name="Path 519" d="M1098.363,583.932c1.5-.01,3-.01,4.494,0a7.309,7.309,0,0,1,1.131.029c-.059.478-.166.955-.253,1.423-1.881.01-3.753-.01-5.635.01C1098.158,584.9,1098.285,584.42,1098.363,583.932Z" transform="translate(-1098.1 -583.925)" fill="#0092c8"/>
      </g>
      <g id="Group_273" data-name="Group 273" transform="translate(88.311 12.21)">
        <path id="Path_520" data-name="Path 520" d="M1168,587.18c.244-.2.565-.107.848-.117,1.608,0,3.217.01,4.825-.01-.078.419-.156.848-.234,1.258-1.881.02-3.763-.01-5.644.01C1167.859,587.94,1167.946,587.57,1168,587.18Z" transform="translate(-1167.8 -587.048)" fill="#008dc2"/>
      </g>
      <g id="Group_274" data-name="Group 274" transform="translate(0 12.302)">
        <path id="Path_521" data-name="Path 521" d="M372.963,589.026a4.938,4.938,0,0,1,.224-.926c.078.156.156.312.244.458.653,1.072,1.287,2.164,1.95,3.227-.02.146-.058.292-.088.429h-.01c-.985-.01-1.969-.01-2.944,0H372.3c.01-.029.02-.088.029-.117C372.544,591.073,372.758,590.05,372.963,589.026Z" transform="translate(-361.538 -588.09)" fill="#28af4b"/>
        <path id="Path_522" data-name="Path 522" d="M464.151,591.012c.7-1,1.394-2.018,2.115-3.012.1,1.111.244,2.213.351,3.315a2.386,2.386,0,0,0,.078.361c-.1.146-.195.292-.3.429-.994-.02-1.989,0-2.983-.02l-.01-.049C463.673,591.724,463.9,591.363,464.151,591.012Z" transform="translate(-443.757 -588)" fill="#28af4b"/>
        <path id="Path_523" data-name="Path 523" d="M262.651,610.5l.049.039a1.5,1.5,0,0,1,.136.2c.614,1.024,1.238,2.047,1.842,3.071.078.146.175.273.273.419l.02.029c-1.024,0-2.047-.02-3.071-.01C262.144,613.005,262.417,611.758,262.651,610.5Z" transform="translate(-261.9 -608.307)" fill="#28af4b"/>
      </g>
      <g id="Group_275" data-name="Group 275" transform="translate(22.509 12.312)">
        <path id="Path_524" data-name="Path 524" d="M492.8,588.1c.994.029,1.989-.01,2.983.029-.858,1.219-1.706,2.437-2.574,3.656-.029-.117-.058-.244-.078-.361C493.044,590.3,492.9,589.2,492.8,588.1Z" transform="translate(-492.8 -588.1)" fill="#34813e"/>
      </g>
      <g id="Group_276" data-name="Group 276" transform="translate(0.76 12.595)">
        <path id="Path_525" data-name="Path 525" d="M432.1,594.782q1.316-1.9,2.642-3.782c.146,1.258.253,2.505.409,3.763l.01.049v.029h-.049C434.118,594.763,433.1,594.821,432.1,594.782Z" transform="translate(-416.269 -591)" fill="#117a3d"/>
        <path id="Path_526" data-name="Path 526" d="M341,595.073c.253-1.258.5-2.515.77-3.773.76,1.238,1.5,2.486,2.252,3.734a1.932,1.932,0,0,1-.624.049C342.608,595.063,341.809,595.082,341,595.073Z" transform="translate(-334.049 -591.271)" fill="#117a3d"/>
        <path id="Path_527" data-name="Path 527" d="M269.778,606.8c1,.01,2.018,0,3.032.01h.049c.9.01,1.794-.029,2.691.01-.741-.01-1.472.01-2.213-.01a1.893,1.893,0,0,0-.468.029,2.589,2.589,0,0,0-.117.361c-.253,1.228-.487,2.457-.77,3.675-.1-.136-.185-.273-.273-.419l-1.842-3.071c-.049-.068-.1-.137-.136-.2l-.029-.049C269.729,607.034,269.749,606.917,269.778,606.8Z" transform="translate(-269.7 -605.26)" fill="#117a3d"/>
      </g>
      <g id="Group_277" data-name="Group 277" transform="translate(81.087 13.359)">
        <path id="Path_528" data-name="Path 528" d="M1094.129,598.851c1.881-.029,3.753-.01,5.635-.01-.136.76-.292,1.5-.419,2.262l-.01-.01a2.938,2.938,0,0,0-.877-.058h-3.9a3.155,3.155,0,0,0-.858.049c.146-.741.292-1.492.419-2.232Z" transform="translate(-1093.7 -598.835)" fill="#0099d2"/>
      </g>
      <g id="Group_278" data-name="Group 278" transform="translate(88.067 13.482)">
        <path id="Path_529" data-name="Path 529" d="M1165.544,600.11c1.881-.01,3.763.01,5.644-.01-.068.419-.166.828-.224,1.258h-.029c-1.881.029-3.753.01-5.635.01C1165.378,600.948,1165.466,600.529,1165.544,600.11Z" transform="translate(-1165.3 -600.1)" fill="#0096cd"/>
      </g>
      <g id="Group_279" data-name="Group 279" transform="translate(3.061 14.184)">
        <path id="Path_530" data-name="Path 530" d="M294.051,607.661a2.224,2.224,0,0,1,.117-.361c.731,1.219,1.472,2.437,2.2,3.665l.01.029c-.029.127-.059.253-.078.38-.994.058-1.989-.029-2.983,0l-.019-.029C293.553,610.117,293.787,608.889,294.051,607.661Z" transform="translate(-293.3 -607.3)" fill="#004e2e"/>
        <path id="Path_531" data-name="Path 531" d="M364.538,630.3h.039c.595,1.063,1.258,2.086,1.872,3.139a3.043,3.043,0,0,0,.283.439c.049-.117.088-.234.127-.351-.049.292-.127.575-.175.858-.994-.029-1.989,0-2.983-.02C363.983,633.01,364.256,631.655,364.538,630.3Z" transform="translate(-356.837 -628.058)" fill="#004e2e"/>
        <path id="Path_532" data-name="Path 532" d="M403.515,671.307c-.058-.166-.175-.331-.107-.507a1.5,1.5,0,0,0,.341.1c.868.029,1.755-.029,2.622.039-.546,1-1.17,1.989-1.716,2.993C404.275,673.052,403.9,672.184,403.515,671.307Z" transform="translate(-392.655 -664.61)" fill="#004e2e"/>
      </g>
      <g id="Group_280" data-name="Group 280" transform="translate(87.697 14.74)">
        <path id="Path_533" data-name="Path 533" d="M1161.88,613.01c1.881-.01,3.753.01,5.635-.01-.1.634-.224,1.267-.341,1.891-1.589-.01-3.168.01-4.757,0a1.633,1.633,0,0,0-.916.117C1161.636,614.345,1161.754,613.673,1161.88,613.01Z" transform="translate(-1161.5 -613)" fill="#00a0db"/>
      </g>
      <g id="Group_281" data-name="Group 281" transform="translate(80.756 15.561)">
        <path id="Path_534" data-name="Path 534" d="M1090.622,621.485a3.157,3.157,0,0,1,.858-.049h3.9a2.938,2.938,0,0,1,.877.058c-.088.575-.214,1.131-.312,1.7-1.881.02-3.763,0-5.644.01C1090.4,622.625,1090.514,622.05,1090.622,621.485Z" transform="translate(-1090.3 -621.429)" fill="#00a0dc"/>
      </g>
      <g id="Group_282" data-name="Group 282" transform="translate(10.801 16.377)">
        <path id="Path_535" data-name="Path 535" d="M430.2,629.8c1,.039,2.008-.02,3.012.039-.848,1.248-1.716,2.476-2.593,3.714-.058.1-.136.195-.185.292a1.74,1.74,0,0,1-.088-.39c-.107-1.121-.244-2.232-.351-3.354C430.068,630,430.137,629.907,430.2,629.8Z" transform="translate(-424.414 -629.8)" fill="#0b9444"/>
        <path id="Path_536" data-name="Path 536" d="M372.7,630.232c.985-.01,1.969-.01,2.944,0-.2,1.072-.448,2.145-.663,3.227-.039.117-.078.234-.127.351a2.594,2.594,0,0,1-.283-.439C373.958,632.318,373.295,631.295,372.7,630.232Z" transform="translate(-372.7 -630.184)" fill="#0b9444"/>
      </g>
      <g id="Group_283" data-name="Group 283" transform="translate(19.653 16.397)">
        <path id="Path_537" data-name="Path 537" d="M463.5,630c.994.019,1.989-.01,2.983.019l-2.544,3.627a2.415,2.415,0,0,1-.1-.829c-.049-.653-.2-1.3-.2-1.95a6.046,6.046,0,0,0-.117-.829Z" transform="translate(-463.5 -630)" fill="#1b6934"/>
      </g>
      <g id="Group_284" data-name="Group 284" transform="translate(16.826 16.416)">
        <path id="Path_538" data-name="Path 538" d="M437.278,630.2h.049a5.853,5.853,0,0,1,.117.829c0,.653.166,1.3.2,1.95a2.967,2.967,0,0,0,.1.829c-.107.156-.214.3-.312.458-.975.01-1.94-.019-2.915.01l-.02-.078a2.973,2.973,0,0,1,.185-.292Q436,632.077,437.278,630.2Z" transform="translate(-434.5 -630.2)" fill="#146131"/>
      </g>
      <g id="Group_285" data-name="Group 285" transform="translate(87.317 16.627)">
        <path id="Path_539" data-name="Path 539" d="M1157.98,632.478c.263-.185.6-.1.916-.117,1.589.01,3.168-.01,4.757,0-.136.741-.283,1.482-.4,2.232-1.881.01-3.763,0-5.654.01.049-.283.117-.565.156-.848C1157.824,633.317,1157.932,632.907,1157.98,632.478Z" transform="translate(-1157.6 -632.357)" fill="#00aaea"/>
      </g>
      <g id="Group_286" data-name="Group 286" transform="translate(6.912 16.68)">
        <path id="Path_540" data-name="Path 540" d="M403.6,636.595c.868-1.219,1.716-2.466,2.574-3.695.117,1.121.253,2.232.351,3.353a1.741,1.741,0,0,0,.088.39l.02.078a.166.166,0,0,0-.068.01h-.01c-.868-.068-1.745,0-2.622-.039A1.3,1.3,0,0,1,403.6,636.595Z" transform="translate(-396.698 -632.9)" fill="#056839"/>
        <path id="Path_541" data-name="Path 541" d="M333.541,633.3c.3.458.565.936.858,1.4.468.79.955,1.56,1.4,2.359-1,.029-2,.01-3,.01a4.982,4.982,0,0,1,.146-.848C333.141,635.24,333.336,634.265,333.541,633.3Z" transform="translate(-332.8 -633.261)" fill="#056839"/>
      </g>
      <g id="Group_287" data-name="Group 287" transform="translate(80.268 17.313)">
        <path id="Path_542" data-name="Path 542" d="M1085.788,639.41c1.881-.01,3.763.01,5.644-.01-.175.877-.331,1.755-.507,2.622a4.308,4.308,0,0,0-.936-.049H1085.3C1085.456,641.135,1085.612,640.277,1085.788,639.41Z" transform="translate(-1085.3 -639.4)" fill="#00a8e6"/>
      </g>
      <g id="Group_288" data-name="Group 288" transform="translate(79.986 19.901)">
        <path id="Path_543" data-name="Path 543" d="M1082.673,665.95h4.689a3.748,3.748,0,0,1,.936.049c-.088.478-.166.955-.283,1.423-1.872-.01-3.743,0-5.615,0,.029-.341.127-.673.185-1.014C1082.614,666.253,1082.644,666.1,1082.673,665.95Z" transform="translate(-1082.4 -665.945)" fill="#00aded"/>
      </g>
      <g id="Group_289" data-name="Group 289" transform="translate(15.149 20.485)">
        <path id="Path_544" data-name="Path 544" d="M418.938,671.961a.168.168,0,0,0,.068-.01c.975-.029,1.94-.01,2.915-.01.049.1.088.2.136.312-.526.975-1.131,1.92-1.667,2.9.985.01,1.959.01,2.944,0,.059.127.117.254.166.38-.312.4-.507.868-.79,1.287-.283.546-.634,1.043-.9,1.6h-.068c-.166-.478-.4-.936-.595-1.394l-.76-1.755c-.029.01-.088.019-.117.029a.366.366,0,0,1-.01-.1c-.751-.029-1.5,0-2.252-.01a5.362,5.362,0,0,0-.682.029.32.32,0,0,1-.029-.058c1,.01,2.008.01,3.012-.01a10.154,10.154,0,0,0-.439-1.063C419.562,673.384,419.259,672.662,418.938,671.961Z" transform="translate(-417.3 -671.935)" fill="#006350"/>
      </g>
      <g id="Group_290" data-name="Group 290" transform="translate(15.061 20.511)">
        <path id="Path_545" data-name="Path 545" d="M418.116,672.2h.01c.322.7.624,1.414.936,2.125a10.145,10.145,0,0,1,.439,1.063c-1,.02-2.008.01-3.012.01l-.088-.2C416.936,674.179,417.56,673.214,418.116,672.2Z" transform="translate(-416.4 -672.2)" fill="#009e4f"/>
        <path id="Path_546" data-name="Path 546" d="M570.078,676.4c.419.02.829.01,1.238.01.595-.01,1.18.029,1.774,0-.244,1.326-.487,2.642-.721,3.958h-.029c-.76-1.2-1.56-2.379-2.34-3.558A3.032,3.032,0,0,1,570.078,676.4Z" transform="translate(-555.026 -675.991)" fill="#009e4f"/>
      </g>
      <g id="Group_291" data-name="Group 291" transform="translate(18.23 20.803)">
        <path id="Path_547" data-name="Path 547" d="M450.567,675.2c.429.965.858,1.93,1.277,2.9-.985.01-1.959.01-2.944,0C449.446,677.12,450.041,676.175,450.567,675.2Z" transform="translate(-448.9 -675.2)" fill="#4ab556"/>
        <path id="Path_548" data-name="Path 548" d="M601.9,676.781c1.024-.01,2.057.019,3.09.01-.2,1.219-.458,2.437-.653,3.656l-.029-.049C603.489,679.2,602.7,677.99,601.9,676.781Z" transform="translate(-586.985 -676.625)" fill="#4ab556"/>
      </g>
      <g id="Group_292" data-name="Group 292" transform="translate(32.404 20.94)">
        <path id="Path_549" data-name="Path 549" d="M595.021,676.6l.01.019c.809,1.209,1.6,2.427,2.408,3.626a1.14,1.14,0,0,1-.039.361c-.507-.049-1-.019-1.511-.029s-1.024-.019-1.531-.01H594.3v-.019C594.534,679.232,594.778,677.916,595.021,676.6Z" transform="translate(-594.3 -676.6)" fill="#006351"/>
      </g>
      <g id="Group_293" data-name="Group 293" transform="translate(15.169 21.33)">
        <path id="Path_550" data-name="Path 550" d="M563.682,680.6c.79,1.18,1.589,2.359,2.34,3.558-1,.029-2.008,0-3.022-.01C563.224,682.979,563.439,681.789,563.682,680.6Z" transform="translate(-548.816 -680.6)" fill="#008370"/>
        <path id="Path_551" data-name="Path 551" d="M417.5,705.3c.224-.019.458-.029.682-.029.751.01,1.5-.019,2.252.01a.364.364,0,0,1,.01.1c-.37.663-.76,1.316-1.15,1.979-.176.292-.331.595-.536.877C418.348,707.255,417.929,706.28,417.5,705.3Z" transform="translate(-417.5 -702.858)" fill="#008370"/>
      </g>
      <g id="Group_294" data-name="Group 294" transform="translate(16.446 23.825)">
        <path id="Path_552" data-name="Path 552" d="M432.277,706.229c.029-.01.088-.019.117-.029.263.575.507,1.17.76,1.755.195.468.419.916.595,1.394-1.014.01-2.018,0-3.032.01-.039-.088-.078-.185-.117-.273a10.039,10.039,0,0,0,.536-.877C431.516,707.545,431.906,706.892,432.277,706.229Z" transform="translate(-430.6 -706.2)" fill="#284e3e"/>
      </g>
      <g id="Group_295" data-name="Group 295" transform="translate(19.672 24.088)">
        <path id="Path_553" data-name="Path 553" d="M464.6,710.187a13.366,13.366,0,0,1,.79-1.287c.419.955.848,1.911,1.267,2.876-.985.029-1.969.01-2.954.02C463.953,711.23,464.3,710.733,464.6,710.187Z" transform="translate(-463.7 -708.9)" fill="#007045"/>
      </g>
      <g id="Group_296" data-name="Group 296" transform="translate(17.879 24.888)">
        <path id="Path_554" data-name="Path 554" d="M562.6,717.1c1,0,2.008.029,3.022.01h.029v.02c-.049.565-.214,1.111-.283,1.686-.146.741-.253,1.482-.429,2.213-.614-.9-1.189-1.813-1.8-2.72a7.152,7.152,0,0,0-.585-.838A1,1,0,0,1,562.6,717.1Z" transform="translate(-551.117 -717.1)" fill="#00aaaf"/>
        <path id="Path_555" data-name="Path 555" d="M447.016,739.3a3.133,3.133,0,0,1,.458.877c.312.76.663,1.5.975,2.271-1.024.029-2.037-.029-3.051.029a2.261,2.261,0,0,0-.1-.224C445.865,741.269,446.441,740.285,447.016,739.3Z" transform="translate(-445.3 -737.136)" fill="#00aaaf"/>
      </g>
      <g id="Group_297" data-name="Group 297" transform="translate(19.604 24.917)">
        <path id="Path_556" data-name="Path 556" d="M587.441,717.4h.058a8.211,8.211,0,0,0,.7,1.111c.439.653.868,1.316,1.306,1.969a2.208,2.208,0,0,0,.38.517l.01.01c-.029.127-.049.244-.078.37a11.63,11.63,0,0,1-1.306-.029c-.331-.039-.663-.01-1-.02a3.314,3.314,0,0,0-.76.029l-.049.029.01-.058.01-.039c.175-.731.292-1.472.429-2.213C587.226,718.511,587.392,717.965,587.441,717.4Z" transform="translate(-574.641 -717.4)" fill="#00a2be"/>
        <path id="Path_557" data-name="Path 557" d="M463.039,738.319h.029c.985-.01,1.969.02,2.954-.019l.146.322c-.458.682-.829,1.414-1.258,2.115a7.031,7.031,0,0,0-.439.79h-.039c-.3-.76-.653-1.511-.975-2.271a3.134,3.134,0,0,0-.458-.877A.28.28,0,0,1,463.039,738.319Z" transform="translate(-463 -736.263)" fill="#00a2be"/>
      </g>
      <g id="Group_298" data-name="Group 298" transform="translate(21.057 24.911)">
        <path id="Path_558" data-name="Path 558" d="M594.9,717.341c.507-.01,1.024-.01,1.53.01s1-.019,1.511.029c-.224,1.189-.419,2.379-.653,3.568a1.968,1.968,0,0,1-.38-.517c-.439-.653-.868-1.316-1.306-1.969A11.3,11.3,0,0,1,594.9,717.341Z" transform="translate(-583.494 -717.334)" fill="#00aab8"/>
        <path id="Path_559" data-name="Path 559" d="M478.348,743.815c.439-.7.809-1.433,1.258-2.115.429.965.848,1.92,1.277,2.885-.985.068-1.989.02-2.983.029C478.036,744.342,478.183,744.079,478.348,743.815Z" transform="translate(-477.9 -739.325)" fill="#00aab8"/>
      </g>
      <g id="Group_299" data-name="Group 299" transform="translate(16.563 25.258)">
        <path id="Path_560" data-name="Path 560" d="M555.5,724.448c.224-1.18.429-2.369.673-3.548a6.415,6.415,0,0,1,.585.838c.614.9,1.189,1.813,1.8,2.72l-.01.039c-.868,0-1.725-.029-2.593-.01C555.812,724.468,555.656,724.468,555.5,724.448Z" transform="translate(-543.441 -720.9)" fill="#0084ab"/>
        <path id="Path_561" data-name="Path 561" d="M431.8,738.51c1.014-.01,2.018,0,3.032-.01h.039a.342.342,0,0,1-.049.078c-.575.985-1.15,1.969-1.716,2.954C432.677,740.528,432.239,739.514,431.8,738.51Z" transform="translate(-431.8 -736.784)" fill="#0084ab"/>
      </g>
      <g id="Group_300" data-name="Group 300" transform="translate(21.066 28.807)">
        <path id="Path_562" data-name="Path 562" d="M554.868,757.3c.156.01.312.029.458.029.868-.01,1.735.01,2.593.01l-.01.059c-.234,1.277-.458,2.544-.7,3.821-.634-.868-1.17-1.784-1.774-2.661-.214-.322-.429-.634-.634-.955C554.829,757.495,554.849,757.4,554.868,757.3Z" transform="translate(-547.313 -757.3)" fill="#1bc2f3"/>
        <path id="Path_563" data-name="Path 563" d="M478,771.71c1-.01,2,0,3-.01a1.951,1.951,0,0,0,.1.2,2.092,2.092,0,0,1-.2.419c-.351.575-.682,1.17-1.024,1.745a4.737,4.737,0,0,1-.507.79C478.907,773.815,478.409,772.772,478,771.71Z" transform="translate(-478 -770.296)" fill="#1bc2f3"/>
      </g>
      <g id="Group_301" data-name="Group 301" transform="translate(22.421 28.842)">
        <path id="Path_564" data-name="Path 564" d="M587.3,757.694a3.974,3.974,0,0,1,.76-.029c.331.01.663-.02,1,.019.439.049.877.02,1.306.029-.2,1.2-.439,2.4-.643,3.587a5.253,5.253,0,0,1-.546-.77C588.548,759.585,587.934,758.639,587.3,757.694Z" transform="translate(-578 -757.661)" fill="#25aae1"/>
        <path id="Path_565" data-name="Path 565" d="M493.635,773.9c.439,1,.887,2.018,1.336,3.022-.458.049-.916.01-1.384.029-.546-.01-1.092.01-1.628-.01H491.9v-.078a3.52,3.52,0,0,0,.507-.79c.341-.575.682-1.17,1.024-1.745C493.508,774.183,493.567,774.046,493.635,773.9Z" transform="translate(-491.9 -772.317)" fill="#25aae1"/>
      </g>
      <g id="Group_302" data-name="Group 302" transform="translate(17.966 28.885)">
        <path id="Path_566" data-name="Path 566" d="M575.87,758.129l.049-.029c.634.936,1.248,1.891,1.881,2.837a6.116,6.116,0,0,0,.546.77,4.282,4.282,0,0,1-.117.595,1.026,1.026,0,0,0-.049-.185,9.727,9.727,0,0,0-1.189-.078c-.585.01-1.17-.02-1.764.01a4.755,4.755,0,0,1-.526-.029c.156,0,.3-.01.458-.01l.01-.059C575.421,760.664,575.636,759.4,575.87,758.129Z" transform="translate(-562.173 -758.1)" fill="#0073ac"/>
        <path id="Path_567" data-name="Path 567" d="M446.2,771.359c1.014-.058,2.037,0,3.051-.029h.039c.994-.01,1.989.039,2.983-.029a.075.075,0,0,1,.02.049c-1,.01-2,0-3,.01.419,1.063.907,2.106,1.355,3.159v.078c-.868,0-1.735.01-2.6-.01a2.064,2.064,0,0,0-.429.058c-.049-.1-.088-.2-.127-.292.526-.829.985-1.7,1.5-2.535a2.489,2.489,0,0,0,.224-.458c-.848-.01-1.7,0-2.554-.01a1.385,1.385,0,0,0-.448.058C446.22,771.4,446.21,771.368,446.2,771.359Z" transform="translate(-446.2 -770.013)" fill="#0073ac"/>
      </g>
      <g id="Group_303" data-name="Group 303" transform="translate(17.996 29.109)">
        <path id="Path_568" data-name="Path 568" d="M548,764.065c.185-1.228.458-2.447.663-3.665.2.322.419.643.634.955.6.877,1.15,1.794,1.774,2.661l-.01.058c-.156.01-.3.01-.458.01C549.755,764.065,548.877,764.065,548,764.065Z" transform="translate(-538.105 -760.4)" fill="#00aeef"/>
        <path id="Path_569" data-name="Path 569" d="M446.5,771.836a1.159,1.159,0,0,1,.448-.059c.848.01,1.7-.01,2.554.01a2.844,2.844,0,0,1-.224.458c-.507.848-.975,1.706-1.5,2.535C447.348,773.8,446.919,772.811,446.5,771.836Z" transform="translate(-446.5 -770.666)" fill="#00aeef"/>
      </g>
      <g id="Group_304" data-name="Group 304" transform="translate(20.686 32.774)">
        <path id="Path_570" data-name="Path 570" d="M547.429,798h.029c.877,0,1.745.01,2.622.02.175.01.351.029.526.029l-.049.029a6.464,6.464,0,0,0-.224.955c-.166.985-.37,1.959-.517,2.944l-.01-.019c-.809-1.209-1.608-2.427-2.408-3.636Z" transform="translate(-540.255 -798)" fill="#006288"/>
        <path id="Path_571" data-name="Path 571" d="M474.646,807.276c.409-.692.79-1.394,1.219-2.076.419.955.848,1.911,1.258,2.876.049.1.117.185.175.283.01.01.029.049.039.058H474.2c-.029-.078-.068-.156-.1-.234A7.457,7.457,0,0,0,474.646,807.276Z" transform="translate(-474.1 -804.498)" fill="#006288"/>
      </g>
      <g id="Group_305" data-name="Group 305" transform="translate(22.46 32.81)">
        <path id="Path_572" data-name="Path 572" d="M579.839,798.376c.585-.029,1.17,0,1.764-.01.4-.01.79.058,1.189.078a1.022,1.022,0,0,0,.049.185c-.2,1.141-.4,2.281-.614,3.412-.829-1.2-1.608-2.437-2.427-3.636Z" transform="translate(-571.27 -798.363)" fill="#0f75bc"/>
        <path id="Path_573" data-name="Path 573" d="M492.31,804.819c.546.029,1.092.01,1.628.01.458-.01.916.02,1.384-.029.039.078.078.166.117.244-.556.994-1.15,1.969-1.706,2.954-.059-.1-.127-.185-.175-.283-.409-.965-.838-1.921-1.258-2.876Z" transform="translate(-492.3 -804.173)" fill="#0f75bc"/>
      </g>
      <g id="Group_306" data-name="Group 306" transform="translate(23.884 32.852)">
        <path id="Path_574" data-name="Path 574" d="M572.717,799.755a4.542,4.542,0,0,1,.224-.955c.819,1.2,1.6,2.437,2.427,3.636-.01.088-.029.175-.039.253-1.043.02-2.086-.02-3.129,0C572.346,801.715,572.551,800.74,572.717,799.755Z" transform="translate(-565.834 -798.8)" fill="#00436c"/>
        <path id="Path_575" data-name="Path 575" d="M508.616,807.4c.439,1,.887,2.008,1.326,3.012-1,.01-2,0-3,.01-.01-.01-.029-.049-.039-.058C507.465,809.369,508.06,808.394,508.616,807.4Z" transform="translate(-506.9 -806.562)" fill="#00436c"/>
      </g>
      <g id="Group_307" data-name="Group 307" transform="translate(19.39 33.096)">
        <path id="Path_576" data-name="Path 576" d="M540.892,801.3c.809,1.209,1.608,2.427,2.408,3.636-.721.029-1.443-.01-2.164-.01a4.3,4.3,0,0,1-.936-.01C540.434,803.708,540.648,802.5,540.892,801.3Z" transform="translate(-532.46 -801.3)" fill="#0080b4"/>
        <path id="Path_577" data-name="Path 577" d="M460.8,804.958a2.073,2.073,0,0,1,.429-.058c.868.01,1.735.01,2.6.01h.058l-.019.029c-.429.682-.809,1.384-1.219,2.076a7.473,7.473,0,0,1-.565.916C461.658,806.937,461.229,805.943,460.8,804.958Z" transform="translate(-460.8 -804.549)" fill="#0080b4"/>
      </g>
    </g>
  </g>
</svg>
