<svg xmlns="http://www.w3.org/2000/svg" width="49.396" height="49.713" viewBox="0 0 49.396 49.713">
  <g id="proteccion" transform="translate(0)">
    <path id="Path_301" data-name="Path 301" d="M-6544.439,5377.691l-5.318-4.691,5.129-4.894a.722.722,0,0,0,.2-.7.728.728,0,0,0-.506-.524l-6.828-1.971,2.524-6.607a.728.728,0,0,0-.117-.718.736.736,0,0,0-.684-.258l-7.018,1.132-.571-7.046a.727.727,0,0,0-.415-.6.733.733,0,0,0-.729.059l-5.852,4.014-3.555-6.121a.732.732,0,0,0-.633-.363.732.732,0,0,0-.633.363l-4.081,7.026-7.058-4.074a.733.733,0,0,0-.73,0,.726.726,0,0,0-.367.628l-.017,7.068-7.084-.584a.732.732,0,0,0-.661.311.723.723,0,0,0-.061.725l3.034,6.392-6.653,2.494a.727.727,0,0,0-.463.562.726.726,0,0,0,.258.68l5.5,4.481-4.934,5.089a.726.726,0,0,0-.176.706.729.729,0,0,0,.526.5l6.9,1.7-2.262,6.7a.721.721,0,0,0,.145.711.73.73,0,0,0,.693.231l6.968-1.4.847,7.019a.725.725,0,0,0,.438.581.734.734,0,0,0,.726-.086l5.689-4.238,3.792,5.784a.733.733,0,0,0,.618.339h.028a.732.732,0,0,0,.619-.387l3.312-6.06,6,3.783a.73.73,0,0,0,.73.03.725.725,0,0,0,.391-.613l.294-7.062,7.056.858a.732.732,0,0,0,.673-.284.723.723,0,0,0,.089-.721l-2.781-6.505,6.745-2.234a.728.728,0,0,0,.485-.544A.724.724,0,0,0-6544.439,5377.691Z" transform="translate(6593.589 -5348.406)" fill="#29abe2"/>
    <ellipse id="Ellipse_5" data-name="Ellipse 5" cx="12.675" cy="12.666" rx="12.675" ry="12.666" transform="translate(12.499 12.685)" fill="#fff"/>
  </g>
</svg>
