<svg xmlns="http://www.w3.org/2000/svg" width="197.726" height="30.279" viewBox="0 0 197.726 30.279">
  <path id="terrafirma" d="M4680.583,189.291l8.284,0,1.491,11.212,6.317-11.208,8.283,0-3.621,16.993-5.332,0,2.708-12.709-7.231,12.707-4.666,0-1.766-12.711-2.756,12.709-5.332,0ZM4662.6,196.8l5.451,0a2.341,2.341,0,0,0,2.519-1.879c.239-1.118-.347-1.833-1.728-1.834l-5.451,0Zm-4.062-7.523,13.615.007c4.166,0,5.283,1.907,4.68,4.739a4.744,4.744,0,0,1-3.541,3.878c.985.405,1.636,1.263,1.388,3.1-.454,3.356-.587,4.427-.055,5.284l-6.213,0a6.826,6.826,0,0,1,.2-2.523c.568-2.666-.211-3.142-1.639-3.143l-5.189,0-1.207,5.664-5.666,0Zm-9.164,0,5.665,0-3.621,16.993-5.665,0Zm-18.161-.009,16.21.008-.812,3.808-10.545-.006-.624,2.927,9.807.005-.782,3.666-9.807-.005-1.4,6.592-5.666,0Zm-12.743,4.278-3.773,6.425,4.76,0Zm-2.539-4.286,6.927,0,3.686,17-6.069,0-.436-2.761-7.427,0-1.612,2.76-6.069,0-6.165,0a6.838,6.838,0,0,1,.2-2.523c.568-2.665-.211-3.142-1.64-3.143l-5.189,0-1.207,5.664-5.665,0,3.622-16.993,13.616.007c4.165,0,5.283,1.907,4.68,4.739a4.748,4.748,0,0,1-3.541,3.878c.985.4,1.636,1.262,1.388,3.1-.446,3.306-.582,4.395-.078,5.245Zm-22.978,7.509,5.451,0a2.341,2.341,0,0,0,2.52-1.879c.238-1.118-.348-1.833-1.729-1.834l-5.451,0Zm-22.041-.011,5.451,0a2.34,2.34,0,0,0,2.519-1.879c.238-1.118-.347-1.833-1.728-1.834l-5.451,0Zm-4.062-7.524,13.615.007c4.166,0,5.283,1.907,4.68,4.739a4.745,4.745,0,0,1-3.54,3.878c.984.405,1.635,1.263,1.388,3.1-.454,3.355-.587,4.427-.055,5.284l-6.213,0a6.848,6.848,0,0,1,.2-2.523c.568-2.665-.211-3.142-1.64-3.143l-5.189,0-1.207,5.664-5.665,0Zm-19.4-.01,17.02.009-.781,3.665-11.354-.006-.655,3.07,10.64.005-.75,3.523-10.64-.006-.654,3.07,11.354.006-.782,3.665-17.019-.009Zm-19.827-.011,18.138.009-.812,3.808-6.236,0-2.81,13.185-5.665,0,2.81-13.185-6.236,0Zm187.825,30.14h-6.131l1.97-8.208h5.94l-.234.974h-4.854l-.6,2.508h4.54l-.234.974h-4.541l-.666,2.777h5.044Zm-11.87-4.6h2.329a4.465,4.465,0,0,0,1.146-.121,1.651,1.651,0,0,0,.771-.467,1.69,1.69,0,0,0,.433-.778,1.052,1.052,0,0,0-.18-.952,1.566,1.566,0,0,0-1.255-.392h-2.592Zm5.043,4.6h-1.366q-.762-1.937-.951-2.379a3.375,3.375,0,0,0-.442-.759,1.122,1.122,0,0,0-.52-.4,2.59,2.59,0,0,0-.744-.084h-1.254l-.87,3.622h-1.086l1.97-8.208H4707a6.5,6.5,0,0,1,1.226.1,1.507,1.507,0,0,1,.789.4,1.461,1.461,0,0,1,.4.77,2.259,2.259,0,0,1-.031.98,2.61,2.61,0,0,1-.946,1.495,3.8,3.8,0,0,1-1.885.716,2.817,2.817,0,0,1,1.181,1.517Zm-6.61-7.233h-4.451l-.61,2.542h3.857l-.233.974h-3.858l-.892,3.717h-1.086l1.97-8.208h5.537Zm-11.3,7.233h-6.13l1.97-8.208h5.94l-.233.974h-4.854l-.6,2.508h4.541l-.234.974h-4.54l-.667,2.777h5.044Zm-12.739-.974h1.758a6.494,6.494,0,0,0,.976-.067,2.7,2.7,0,0,0,.944-.364,3.049,3.049,0,0,0,.953-.974,5.641,5.641,0,0,0,.715-1.791,5.837,5.837,0,0,0,.167-1.151,2.235,2.235,0,0,0-.17-.974,1.348,1.348,0,0,0-.52-.644,1.708,1.708,0,0,0-.682-.249,7.5,7.5,0,0,0-.916-.045h-1.725Zm.65-7.233h2.833a8.946,8.946,0,0,1,1.264.076,2.16,2.16,0,0,1,.939.37,2.012,2.012,0,0,1,.662.809,3.337,3.337,0,0,1,.292,1.184,5.394,5.394,0,0,1-.179,1.621,6.243,6.243,0,0,1-1.578,2.981,4.337,4.337,0,0,1-3.247,1.167h-2.957Zm-3.582,8.208h-1.092l1.97-8.208h1.092Zm-6.977-4.6h2.328a4.468,4.468,0,0,0,1.146-.121,1.641,1.641,0,0,0,.77-.467,1.692,1.692,0,0,0,.434-.778,1.051,1.051,0,0,0-.181-.952,1.565,1.565,0,0,0-1.255-.392h-2.591Zm5.044,4.6h-1.366q-.762-1.937-.952-2.379a3.3,3.3,0,0,0-.442-.759,1.119,1.119,0,0,0-.52-.4,2.589,2.589,0,0,0-.743-.084h-1.254l-.87,3.622h-1.086l1.97-8.208h3.633a6.486,6.486,0,0,1,1.226.1,1.5,1.5,0,0,1,.789.4,1.455,1.455,0,0,1,.4.77,2.244,2.244,0,0,1-.031.98,2.61,2.61,0,0,1-.946,1.495,3.8,3.8,0,0,1-1.885.716,2.819,2.819,0,0,1,1.181,1.517Zm-11.262,0h-6.13l1.97-8.208h5.939l-.233.974h-4.854l-.6,2.508h4.54l-.233.974h-4.54l-.667,2.777h5.044Zm-5.5-7.233h-4.45l-.61,2.542h3.857l-.233.974h-3.857l-.893,3.717h-1.086l1.97-8.208h5.537Zm-9.555,3.874q-.368-2.665-.411-3.026t-.054-.966a17.093,17.093,0,0,1-.816,1.534l-1.508,2.458Zm1.713,3.359h-1.226l-.364-2.5h-3.426l-1.506,2.5h-1.147l5.122-8.208h1.17Zm-7.821-5.8a1.284,1.284,0,0,0-.282-1.178,1.865,1.865,0,0,0-1.333-.395,3.079,3.079,0,0,0-1.441.314,1.362,1.362,0,0,0-.745.912.7.7,0,0,0,.216.792,4.309,4.309,0,0,0,1.429.518,11.005,11.005,0,0,1,1.553.459,2,2,0,0,1,.928.731,1.616,1.616,0,0,1,.14,1.33,2.946,2.946,0,0,1-1.265,1.758,4.049,4.049,0,0,1-2.365.7,3.078,3.078,0,0,1-2.4-.773,2.227,2.227,0,0,1-.429-2l1.052-.09a1.39,1.39,0,0,0,.417,1.436,2.467,2.467,0,0,0,1.554.451,3.089,3.089,0,0,0,1.565-.375,1.587,1.587,0,0,0,.808-1.019.808.808,0,0,0-.353-.98,6.908,6.908,0,0,0-1.828-.607,3.4,3.4,0,0,1-1.794-.843,1.486,1.486,0,0,1-.271-1.41,2.731,2.731,0,0,1,1.163-1.63,3.867,3.867,0,0,1,2.26-.644,2.877,2.877,0,0,1,2.044.641,1.855,1.855,0,0,1,.444,1.822Zm-10.257,5.8h-6.13l1.97-8.208h5.94l-.234.974h-4.854l-.6,2.508h4.541l-.234.974h-4.54l-.667,2.777h5.044Zm-12.74-.974h1.758a6.5,6.5,0,0,0,.976-.067,2.7,2.7,0,0,0,.944-.364,3.044,3.044,0,0,0,.953-.974,5.63,5.63,0,0,0,.715-1.791,5.8,5.8,0,0,0,.167-1.151,2.228,2.228,0,0,0-.169-.974,1.349,1.349,0,0,0-.52-.644,1.708,1.708,0,0,0-.682-.249,7.5,7.5,0,0,0-.916-.045h-1.725Zm.65-7.233h2.833a8.944,8.944,0,0,1,1.264.076,2.153,2.153,0,0,1,.938.37,2.009,2.009,0,0,1,.663.809,3.347,3.347,0,0,1,.292,1.184,5.412,5.412,0,0,1-.179,1.621,6.243,6.243,0,0,1-1.578,2.981,4.337,4.337,0,0,1-3.247,1.167h-2.956Zm-3.581,8.208h-1.092l1.97-8.208h1.092Zm-6.978-4.6h2.329a4.454,4.454,0,0,0,1.146-.121,1.644,1.644,0,0,0,.771-.467,1.685,1.685,0,0,0,.433-.778,1.049,1.049,0,0,0-.18-.952,1.565,1.565,0,0,0-1.255-.392h-2.592Zm5.044,4.6h-1.366q-.761-1.937-.952-2.379a3.321,3.321,0,0,0-.442-.759,1.124,1.124,0,0,0-.52-.4,2.592,2.592,0,0,0-.744-.084h-1.254l-.869,3.622h-1.087l1.97-8.208h3.633a6.49,6.49,0,0,1,1.226.1,1.5,1.5,0,0,1,.789.4,1.457,1.457,0,0,1,.4.77,2.266,2.266,0,0,1-.031.98,2.611,2.611,0,0,1-.947,1.495,3.8,3.8,0,0,1-1.885.716,2.822,2.822,0,0,1,1.181,1.517Zm109.933,0h-6.13l1.97-8.208h5.939l-.233.974h-4.854l-.6,2.508h4.541l-.234.974h-4.54l-.667,2.777h5.044Zm-9.378-30.043,6.927,0,3.686,17-6.07,0-.436-2.762-7.426,0-1.612,2.76-6.07,0Zm2.539,4.286-3.773,6.425,4.76,0Z" transform="translate(-4526.814 -189.211)" fill="gray"/>
</svg>
